<mxfile host="app.diagrams.net" modified="2021-05-26T23:10:55.440Z" agent="5.0 (Windows NT 10.0; Win64; x64) AppleWebKit/537.36 (KHTML, like Gecko) Chrome/90.0.4430.212 Safari/537.36" etag="0X9Qccq6zQP9ykky6b75" version="14.6.13" type="github">
  <diagram name="Page-1" id="e7e014a7-5840-1c2e-5031-d8a46d1fe8dd">
    <mxGraphModel dx="1902" dy="1147" grid="0" gridSize="10" guides="1" tooltips="1" connect="1" arrows="1" fold="1" page="0" pageScale="1" pageWidth="1169" pageHeight="826" background="#ffffff" math="0" shadow="0">
      <root>
        <mxCell id="0" />
        <mxCell id="1" parent="0" />
        <mxCell id="2" value="Thread 1" style="swimlane;whiteSpace=wrap" parent="1" vertex="1">
          <mxGeometry x="164.5" y="128" width="280" height="570" as="geometry" />
        </mxCell>
        <mxCell id="5" value="" style="ellipse;shape=startState;fillColor=#000000;strokeColor=#ff0000;" parent="2" vertex="1">
          <mxGeometry x="100" y="40" width="30" height="30" as="geometry" />
        </mxCell>
        <mxCell id="6" value="" style="edgeStyle=elbowEdgeStyle;elbow=horizontal;verticalAlign=bottom;endArrow=open;endSize=8;strokeColor=#FF0000;endFill=1;rounded=0" parent="2" source="5" target="7" edge="1">
          <mxGeometry x="100" y="40" as="geometry">
            <mxPoint x="115" y="110" as="targetPoint" />
          </mxGeometry>
        </mxCell>
        <mxCell id="7" value="idle" style="" parent="2" vertex="1">
          <mxGeometry x="60" y="110" width="110" height="50" as="geometry" />
        </mxCell>
        <mxCell id="8" value="user action" style="" parent="2" vertex="1">
          <mxGeometry x="60" y="220" width="110" height="50" as="geometry" />
        </mxCell>
        <mxCell id="9" value="" style="endArrow=open;strokeColor=#FF0000;endFill=1;rounded=0" parent="2" source="7" target="8" edge="1">
          <mxGeometry relative="1" as="geometry" />
        </mxCell>
        <mxCell id="10" value="post command" style="" parent="2" vertex="1">
          <mxGeometry x="60" y="325" width="110" height="50" as="geometry" />
        </mxCell>
        <mxCell id="11" value="" style="endArrow=open;strokeColor=#FF0000;endFill=1;rounded=0" parent="2" source="8" target="10" edge="1">
          <mxGeometry relative="1" as="geometry" />
        </mxCell>
        <mxCell id="12" value="" style="edgeStyle=elbowEdgeStyle;elbow=horizontal;strokeColor=#FF0000;endArrow=open;endFill=1;rounded=0" parent="2" source="10" target="7" edge="1">
          <mxGeometry width="100" height="100" relative="1" as="geometry">
            <mxPoint x="160" y="290" as="sourcePoint" />
            <mxPoint x="260" y="190" as="targetPoint" />
            <Array as="points">
              <mxPoint x="30" y="250" />
            </Array>
          </mxGeometry>
        </mxCell>
        <mxCell id="3" value="Thread 2" style="swimlane;whiteSpace=wrap" parent="1" vertex="1">
          <mxGeometry x="444.5" y="128" width="280" height="570" as="geometry" />
        </mxCell>
        <mxCell id="13" value="" style="ellipse;shape=startState;fillColor=#000000;strokeColor=#ff0000;" parent="3" vertex="1">
          <mxGeometry x="60" y="40" width="30" height="30" as="geometry" />
        </mxCell>
        <mxCell id="14" value="" style="edgeStyle=elbowEdgeStyle;elbow=horizontal;verticalAlign=bottom;endArrow=open;endSize=8;strokeColor=#FF0000;endFill=1;rounded=0" parent="3" source="13" target="15" edge="1">
          <mxGeometry x="40" y="20" as="geometry">
            <mxPoint x="55" y="90" as="targetPoint" />
          </mxGeometry>
        </mxCell>
        <mxCell id="15" value="idle" style="" parent="3" vertex="1">
          <mxGeometry x="20" y="110" width="110" height="50" as="geometry" />
        </mxCell>
        <mxCell id="16" value="check for &#xa;new commands" style="" parent="3" vertex="1">
          <mxGeometry x="20" y="220" width="110" height="50" as="geometry" />
        </mxCell>
        <mxCell id="17" value="" style="endArrow=open;strokeColor=#FF0000;endFill=1;rounded=0" parent="3" source="15" target="16" edge="1">
          <mxGeometry relative="1" as="geometry" />
        </mxCell>
        <mxCell id="18" value="command queue" style="" parent="3" vertex="1">
          <mxGeometry x="20" y="325" width="110" height="50" as="geometry" />
        </mxCell>
        <mxCell id="19" value="" style="endArrow=open;strokeColor=#FF0000;endFill=1;rounded=0" parent="3" source="16" target="18" edge="1">
          <mxGeometry relative="1" as="geometry" />
        </mxCell>
        <mxCell id="21" value="queue empty" style="rhombus;fillColor=#ffffc0;strokeColor=#ff0000;" parent="3" vertex="1">
          <mxGeometry x="150" y="225" width="80" height="40" as="geometry" />
        </mxCell>
        <mxCell id="22" value="yes" style="edgeStyle=elbowEdgeStyle;elbow=horizontal;align=left;verticalAlign=bottom;endArrow=open;endSize=8;strokeColor=#FF0000;exitX=0.5;exitY=0;endFill=1;rounded=0;entryX=0.75;entryY=0.5;entryPerimeter=0" parent="3" source="21" target="25" edge="1">
          <mxGeometry x="-1" relative="1" as="geometry">
            <mxPoint x="160" y="150" as="targetPoint" />
            <Array as="points">
              <mxPoint x="190" y="180" />
            </Array>
          </mxGeometry>
        </mxCell>
        <mxCell id="23" value="no" style="edgeStyle=elbowEdgeStyle;elbow=horizontal;align=left;verticalAlign=top;endArrow=open;endSize=8;strokeColor=#FF0000;endFill=1;rounded=0" parent="3" source="21" target="30" edge="1">
          <mxGeometry x="-1" relative="1" as="geometry">
            <mxPoint x="190" y="305" as="targetPoint" />
          </mxGeometry>
        </mxCell>
        <mxCell id="24" value="" style="endArrow=open;strokeColor=#FF0000;endFill=1;rounded=0" parent="3" source="16" target="21" edge="1">
          <mxGeometry relative="1" as="geometry" />
        </mxCell>
        <mxCell id="25" value="" style="shape=line;strokeWidth=6;strokeColor=#ff0000;rotation=90" parent="3" vertex="1">
          <mxGeometry x="130" y="127.5" width="50" height="15" as="geometry" />
        </mxCell>
        <mxCell id="26" value="" style="edgeStyle=elbowEdgeStyle;elbow=horizontal;verticalAlign=bottom;endArrow=open;endSize=8;strokeColor=#FF0000;endFill=1;rounded=0" parent="3" source="25" target="15" edge="1">
          <mxGeometry x="130" y="90" as="geometry">
            <mxPoint x="230" y="140" as="targetPoint" />
          </mxGeometry>
        </mxCell>
        <mxCell id="30" value="dispatch&#xa;command&#xa;worker thread" style="" parent="3" vertex="1">
          <mxGeometry x="140" y="325" width="110" height="50" as="geometry" />
        </mxCell>
        <mxCell id="31" value="critical&#xa;section" style="shape=note;whiteSpace=wrap;size=17" parent="3" vertex="1">
          <mxGeometry x="105" y="490" width="100" height="50" as="geometry" />
        </mxCell>
        <mxCell id="32" value="" style="endArrow=none;strokeColor=#FF0000;endFill=0;rounded=0;dashed=1" parent="3" source="18" target="31" edge="1">
          <mxGeometry relative="1" as="geometry" />
        </mxCell>
        <mxCell id="34" value="" style="whiteSpace=wrap;strokeColor=#FF0000;fillColor=#FF0000" parent="3" vertex="1">
          <mxGeometry x="245" y="395" width="5" height="45" as="geometry" />
        </mxCell>
        <mxCell id="41" value="" style="edgeStyle=elbowEdgeStyle;elbow=horizontal;entryX=0;entryY=0.5;strokeColor=#FF0000;endArrow=open;endFill=1;rounded=0" parent="3" source="30" target="34" edge="1">
          <mxGeometry width="100" height="100" relative="1" as="geometry">
            <mxPoint x="60" y="480" as="sourcePoint" />
            <mxPoint x="160" y="380" as="targetPoint" />
            <Array as="points">
              <mxPoint x="195" y="400" />
            </Array>
          </mxGeometry>
        </mxCell>
        <mxCell id="4" value="Thread 3" style="swimlane;whiteSpace=wrap" parent="1" vertex="1">
          <mxGeometry x="724.5" y="128" width="280" height="570" as="geometry" />
        </mxCell>
        <mxCell id="33" value="process&#xa;command" style="" parent="4" vertex="1">
          <mxGeometry x="90" y="405" width="110" height="50" as="geometry" />
        </mxCell>
        <mxCell id="35" value="" style="edgeStyle=elbowEdgeStyle;elbow=horizontal;strokeColor=#FF0000;endArrow=open;endFill=1;rounded=0;entryX=0.25;entryY=0.5;entryPerimeter=0" parent="4" target="25" edge="1">
          <mxGeometry width="100" height="100" relative="1" as="geometry">
            <mxPoint x="-30" y="410" as="sourcePoint" />
            <mxPoint x="-120" y="120" as="targetPoint" />
            <Array as="points">
              <mxPoint x="-10" y="135" />
            </Array>
          </mxGeometry>
        </mxCell>
        <mxCell id="37" value="" style="edgeStyle=none;strokeColor=#FF0000;endArrow=open;endFill=1;rounded=0" parent="4" target="33" edge="1">
          <mxGeometry width="100" height="100" relative="1" as="geometry">
            <mxPoint x="-30" y="429.5" as="sourcePoint" />
            <mxPoint x="90" y="429.5" as="targetPoint" />
          </mxGeometry>
        </mxCell>
        <mxCell id="38" value="" style="ellipse;shape=endState;fillColor=#000000;strokeColor=#ff0000" parent="4" vertex="1">
          <mxGeometry x="130" y="500" width="30" height="30" as="geometry" />
        </mxCell>
        <mxCell id="39" value="" style="endArrow=open;strokeColor=#FF0000;endFill=1;rounded=0" parent="4" source="33" target="38" edge="1">
          <mxGeometry relative="1" as="geometry" />
        </mxCell>
        <mxCell id="20" value="" style="endArrow=open;strokeColor=#FF0000;endFill=1;rounded=0" parent="1" source="10" target="18" edge="1">
          <mxGeometry relative="1" as="geometry" />
        </mxCell>
        <mxCell id="ypzSK29wUqCk7zwSj95s-41" value="Користувач" style="shape=umlActor;verticalLabelPosition=bottom;verticalAlign=top;html=1;" parent="1" vertex="1">
          <mxGeometry x="88" y="1019" width="30" height="60" as="geometry" />
        </mxCell>
        <mxCell id="ypzSK29wUqCk7zwSj95s-42" value="" style="rounded=0;whiteSpace=wrap;html=1;" parent="1" vertex="1">
          <mxGeometry x="192" y="931" width="178" height="309" as="geometry" />
        </mxCell>
        <mxCell id="ypzSK29wUqCk7zwSj95s-43" value="&lt;font style=&quot;font-size: 11px&quot;&gt;Створення нової ігрової сесії&lt;/font&gt;" style="ellipse;whiteSpace=wrap;html=1;" parent="1" vertex="1">
          <mxGeometry x="221.5" y="1019" width="120" height="57" as="geometry" />
        </mxCell>
        <mxCell id="ypzSK29wUqCk7zwSj95s-44" value="&lt;font style=&quot;font-size: 11px&quot;&gt;Створення користувацьких наборів карток&lt;/font&gt;" style="ellipse;whiteSpace=wrap;html=1;" parent="1" vertex="1">
          <mxGeometry x="221.5" y="953" width="120" height="57" as="geometry" />
        </mxCell>
        <mxCell id="ypzSK29wUqCk7zwSj95s-45" value="&lt;font style=&quot;font-size: 11px&quot;&gt;Перегляд історії&lt;/font&gt;" style="ellipse;whiteSpace=wrap;html=1;" parent="1" vertex="1">
          <mxGeometry x="221.5" y="1085" width="120" height="57" as="geometry" />
        </mxCell>
        <mxCell id="ypzSK29wUqCk7zwSj95s-46" value="&lt;font style=&quot;font-size: 11px&quot;&gt;Перегляд&lt;br&gt;статистики&lt;/font&gt;" style="ellipse;whiteSpace=wrap;html=1;" parent="1" vertex="1">
          <mxGeometry x="221.5" y="1151" width="120" height="57" as="geometry" />
        </mxCell>
        <mxCell id="ypzSK29wUqCk7zwSj95s-49" value="" style="endArrow=none;html=1;exitX=0.5;exitY=0.5;exitDx=0;exitDy=0;exitPerimeter=0;entryX=0;entryY=0.5;entryDx=0;entryDy=0;" parent="1" source="ypzSK29wUqCk7zwSj95s-41" target="ypzSK29wUqCk7zwSj95s-44" edge="1">
          <mxGeometry width="50" height="50" relative="1" as="geometry">
            <mxPoint x="131" y="1035" as="sourcePoint" />
            <mxPoint x="181" y="985" as="targetPoint" />
          </mxGeometry>
        </mxCell>
        <mxCell id="ypzSK29wUqCk7zwSj95s-50" value="" style="endArrow=none;html=1;exitX=0.5;exitY=0.5;exitDx=0;exitDy=0;exitPerimeter=0;entryX=0;entryY=0.5;entryDx=0;entryDy=0;" parent="1" source="ypzSK29wUqCk7zwSj95s-41" target="ypzSK29wUqCk7zwSj95s-43" edge="1">
          <mxGeometry width="50" height="50" relative="1" as="geometry">
            <mxPoint x="99" y="1020" as="sourcePoint" />
            <mxPoint x="231.49999999999886" y="991.5" as="targetPoint" />
          </mxGeometry>
        </mxCell>
        <mxCell id="ypzSK29wUqCk7zwSj95s-51" value="" style="endArrow=none;html=1;entryX=0;entryY=0.5;entryDx=0;entryDy=0;exitX=0.5;exitY=0.5;exitDx=0;exitDy=0;exitPerimeter=0;" parent="1" source="ypzSK29wUqCk7zwSj95s-41" target="ypzSK29wUqCk7zwSj95s-45" edge="1">
          <mxGeometry width="50" height="50" relative="1" as="geometry">
            <mxPoint x="104" y="1063" as="sourcePoint" />
            <mxPoint x="241.49999999999886" y="1001.5" as="targetPoint" />
          </mxGeometry>
        </mxCell>
        <mxCell id="ypzSK29wUqCk7zwSj95s-52" value="" style="endArrow=none;html=1;exitX=0.5;exitY=0.5;exitDx=0;exitDy=0;exitPerimeter=0;entryX=0;entryY=0.5;entryDx=0;entryDy=0;" parent="1" source="ypzSK29wUqCk7zwSj95s-41" target="ypzSK29wUqCk7zwSj95s-46" edge="1">
          <mxGeometry width="50" height="50" relative="1" as="geometry">
            <mxPoint x="119" y="1040" as="sourcePoint" />
            <mxPoint x="251.49999999999886" y="1011.5" as="targetPoint" />
          </mxGeometry>
        </mxCell>
        <mxCell id="ypzSK29wUqCk7zwSj95s-53" value="" style="ellipse;html=1;shape=endState;fillColor=#000000;strokeColor=#ff0000;" parent="1" vertex="1">
          <mxGeometry x="1177" y="1194" width="30" height="30" as="geometry" />
        </mxCell>
        <mxCell id="ypzSK29wUqCk7zwSj95s-70" style="edgeStyle=orthogonalEdgeStyle;rounded=0;orthogonalLoop=1;jettySize=auto;html=1;exitX=0.509;exitY=0.765;exitDx=0;exitDy=0;entryX=0.5;entryY=0;entryDx=0;entryDy=0;exitPerimeter=0;" parent="1" source="ypzSK29wUqCk7zwSj95s-54" target="ypzSK29wUqCk7zwSj95s-58" edge="1">
          <mxGeometry relative="1" as="geometry" />
        </mxCell>
        <mxCell id="ypzSK29wUqCk7zwSj95s-54" value="" style="ellipse;shape=startState;fillColor=#000000;strokeColor=#ff0000;" parent="1" vertex="1">
          <mxGeometry x="843.5" y="807" width="30" height="30" as="geometry" />
        </mxCell>
        <mxCell id="ypzSK29wUqCk7zwSj95s-64" style="edgeStyle=orthogonalEdgeStyle;rounded=0;orthogonalLoop=1;jettySize=auto;html=1;exitX=0.5;exitY=1;exitDx=0;exitDy=0;entryX=0.5;entryY=0;entryDx=0;entryDy=0;" parent="1" source="ypzSK29wUqCk7zwSj95s-58" target="ypzSK29wUqCk7zwSj95s-59" edge="1">
          <mxGeometry relative="1" as="geometry" />
        </mxCell>
        <mxCell id="ypzSK29wUqCk7zwSj95s-58" value="Обрати потрбіний&lt;br&gt;фунціонал" style="rounded=1;whiteSpace=wrap;html=1;" parent="1" vertex="1">
          <mxGeometry x="798.5" y="861" width="120" height="60" as="geometry" />
        </mxCell>
        <mxCell id="ypzSK29wUqCk7zwSj95s-66" style="edgeStyle=orthogonalEdgeStyle;rounded=0;orthogonalLoop=1;jettySize=auto;html=1;exitX=0.5;exitY=1;exitDx=0;exitDy=0;" parent="1" source="ypzSK29wUqCk7zwSj95s-59" target="ypzSK29wUqCk7zwSj95s-63" edge="1">
          <mxGeometry relative="1" as="geometry" />
        </mxCell>
        <mxCell id="ypzSK29wUqCk7zwSj95s-67" style="edgeStyle=orthogonalEdgeStyle;rounded=0;orthogonalLoop=1;jettySize=auto;html=1;exitX=0.5;exitY=1;exitDx=0;exitDy=0;entryX=0.5;entryY=0;entryDx=0;entryDy=0;" parent="1" source="ypzSK29wUqCk7zwSj95s-59" target="ypzSK29wUqCk7zwSj95s-62" edge="1">
          <mxGeometry relative="1" as="geometry" />
        </mxCell>
        <mxCell id="ypzSK29wUqCk7zwSj95s-68" style="edgeStyle=orthogonalEdgeStyle;rounded=0;orthogonalLoop=1;jettySize=auto;html=1;exitX=0.5;exitY=1;exitDx=0;exitDy=0;" parent="1" source="ypzSK29wUqCk7zwSj95s-59" target="ypzSK29wUqCk7zwSj95s-60" edge="1">
          <mxGeometry relative="1" as="geometry" />
        </mxCell>
        <mxCell id="ypzSK29wUqCk7zwSj95s-69" style="edgeStyle=orthogonalEdgeStyle;rounded=0;orthogonalLoop=1;jettySize=auto;html=1;exitX=0.5;exitY=1;exitDx=0;exitDy=0;entryX=0.5;entryY=0;entryDx=0;entryDy=0;" parent="1" source="ypzSK29wUqCk7zwSj95s-59" target="ypzSK29wUqCk7zwSj95s-61" edge="1">
          <mxGeometry relative="1" as="geometry" />
        </mxCell>
        <mxCell id="ypzSK29wUqCk7zwSj95s-77" style="edgeStyle=orthogonalEdgeStyle;rounded=0;orthogonalLoop=1;jettySize=auto;html=1;exitX=0.5;exitY=1;exitDx=0;exitDy=0;" parent="1" source="ypzSK29wUqCk7zwSj95s-59" target="ypzSK29wUqCk7zwSj95s-76" edge="1">
          <mxGeometry relative="1" as="geometry" />
        </mxCell>
        <mxCell id="ypzSK29wUqCk7zwSj95s-59" value="" style="rhombus;whiteSpace=wrap;html=1;" parent="1" vertex="1">
          <mxGeometry x="834.75" y="946" width="47.5" height="48" as="geometry" />
        </mxCell>
        <mxCell id="ypzSK29wUqCk7zwSj95s-94" style="edgeStyle=orthogonalEdgeStyle;rounded=0;orthogonalLoop=1;jettySize=auto;html=1;exitX=0.5;exitY=1;exitDx=0;exitDy=0;" parent="1" source="ypzSK29wUqCk7zwSj95s-60" target="ypzSK29wUqCk7zwSj95s-90" edge="1">
          <mxGeometry relative="1" as="geometry" />
        </mxCell>
        <mxCell id="ypzSK29wUqCk7zwSj95s-60" value="Переглянути історію" style="rounded=1;whiteSpace=wrap;html=1;" parent="1" vertex="1">
          <mxGeometry x="863.5" y="1101" width="120" height="60" as="geometry" />
        </mxCell>
        <mxCell id="ypzSK29wUqCk7zwSj95s-72" style="edgeStyle=orthogonalEdgeStyle;rounded=0;orthogonalLoop=1;jettySize=auto;html=1;exitX=0.5;exitY=1;exitDx=0;exitDy=0;entryX=0.5;entryY=0;entryDx=0;entryDy=0;" parent="1" source="ypzSK29wUqCk7zwSj95s-61" target="ypzSK29wUqCk7zwSj95s-71" edge="1">
          <mxGeometry relative="1" as="geometry" />
        </mxCell>
        <mxCell id="ypzSK29wUqCk7zwSj95s-61" value="Меню наборів карток" style="rounded=1;whiteSpace=wrap;html=1;" parent="1" vertex="1">
          <mxGeometry x="599.5" y="1101" width="120" height="60" as="geometry" />
        </mxCell>
        <mxCell id="ypzSK29wUqCk7zwSj95s-80" style="edgeStyle=orthogonalEdgeStyle;rounded=0;orthogonalLoop=1;jettySize=auto;html=1;exitX=0.5;exitY=1;exitDx=0;exitDy=0;" parent="1" source="ypzSK29wUqCk7zwSj95s-62" target="ypzSK29wUqCk7zwSj95s-73" edge="1">
          <mxGeometry relative="1" as="geometry" />
        </mxCell>
        <mxCell id="ypzSK29wUqCk7zwSj95s-62" value="Розпочати нову гру" style="rounded=1;whiteSpace=wrap;html=1;" parent="1" vertex="1">
          <mxGeometry x="731.75" y="1101" width="120" height="60" as="geometry" />
        </mxCell>
        <mxCell id="ypzSK29wUqCk7zwSj95s-95" style="edgeStyle=orthogonalEdgeStyle;rounded=0;orthogonalLoop=1;jettySize=auto;html=1;exitX=0.5;exitY=1;exitDx=0;exitDy=0;" parent="1" source="ypzSK29wUqCk7zwSj95s-63" target="ypzSK29wUqCk7zwSj95s-93" edge="1">
          <mxGeometry relative="1" as="geometry" />
        </mxCell>
        <mxCell id="ypzSK29wUqCk7zwSj95s-63" value="Переглянути статистику" style="rounded=1;whiteSpace=wrap;html=1;" parent="1" vertex="1">
          <mxGeometry x="997.5" y="1101" width="120" height="60" as="geometry" />
        </mxCell>
        <mxCell id="ypzSK29wUqCk7zwSj95s-75" style="edgeStyle=orthogonalEdgeStyle;rounded=0;orthogonalLoop=1;jettySize=auto;html=1;exitX=0.5;exitY=1;exitDx=0;exitDy=0;entryX=0.5;entryY=0;entryDx=0;entryDy=0;" parent="1" source="ypzSK29wUqCk7zwSj95s-100" target="ypzSK29wUqCk7zwSj95s-74" edge="1">
          <mxGeometry relative="1" as="geometry" />
        </mxCell>
        <mxCell id="ypzSK29wUqCk7zwSj95s-71" value="Створення нового або редагування існуючого набору" style="rounded=1;whiteSpace=wrap;html=1;" parent="1" vertex="1">
          <mxGeometry x="599.5" y="1204" width="120" height="60" as="geometry" />
        </mxCell>
        <mxCell id="ypzSK29wUqCk7zwSj95s-83" style="edgeStyle=orthogonalEdgeStyle;rounded=0;orthogonalLoop=1;jettySize=auto;html=1;exitX=0.5;exitY=1;exitDx=0;exitDy=0;entryX=0.5;entryY=0;entryDx=0;entryDy=0;" parent="1" source="ypzSK29wUqCk7zwSj95s-73" target="ypzSK29wUqCk7zwSj95s-82" edge="1">
          <mxGeometry relative="1" as="geometry" />
        </mxCell>
        <mxCell id="ypzSK29wUqCk7zwSj95s-73" value="Обрати складність гри" style="rounded=1;whiteSpace=wrap;html=1;" parent="1" vertex="1">
          <mxGeometry x="731.75" y="1204" width="120" height="60" as="geometry" />
        </mxCell>
        <mxCell id="ypzSK29wUqCk7zwSj95s-78" style="edgeStyle=orthogonalEdgeStyle;rounded=0;orthogonalLoop=1;jettySize=auto;html=1;exitX=0.5;exitY=1;exitDx=0;exitDy=0;entryX=0.5;entryY=0;entryDx=0;entryDy=0;" parent="1" source="ypzSK29wUqCk7zwSj95s-76" target="ypzSK29wUqCk7zwSj95s-53" edge="1">
          <mxGeometry relative="1" as="geometry" />
        </mxCell>
        <mxCell id="ypzSK29wUqCk7zwSj95s-76" value="Вихід" style="rounded=1;whiteSpace=wrap;html=1;" parent="1" vertex="1">
          <mxGeometry x="1132" y="1101" width="120" height="60" as="geometry" />
        </mxCell>
        <mxCell id="ypzSK29wUqCk7zwSj95s-88" style="edgeStyle=orthogonalEdgeStyle;rounded=0;orthogonalLoop=1;jettySize=auto;html=1;exitX=0.5;exitY=1;exitDx=0;exitDy=0;entryX=0.5;entryY=0;entryDx=0;entryDy=0;" parent="1" source="ypzSK29wUqCk7zwSj95s-82" target="ypzSK29wUqCk7zwSj95s-86" edge="1">
          <mxGeometry relative="1" as="geometry" />
        </mxCell>
        <mxCell id="ypzSK29wUqCk7zwSj95s-82" value="Обрати набір карток" style="rounded=1;whiteSpace=wrap;html=1;" parent="1" vertex="1">
          <mxGeometry x="731.75" y="1302" width="120" height="60" as="geometry" />
        </mxCell>
        <mxCell id="ypzSK29wUqCk7zwSj95s-85" style="edgeStyle=orthogonalEdgeStyle;rounded=0;orthogonalLoop=1;jettySize=auto;html=1;exitX=0.5;exitY=1;exitDx=0;exitDy=0;entryX=0.5;entryY=0;entryDx=0;entryDy=0;" parent="1" source="ypzSK29wUqCk7zwSj95s-86" target="ypzSK29wUqCk7zwSj95s-87" edge="1">
          <mxGeometry relative="1" as="geometry" />
        </mxCell>
        <mxCell id="ypzSK29wUqCk7zwSj95s-86" value="Процес гри" style="rounded=1;whiteSpace=wrap;html=1;" parent="1" vertex="1">
          <mxGeometry x="731.75" y="1400" width="120" height="60" as="geometry" />
        </mxCell>
        <mxCell id="ypzSK29wUqCk7zwSj95s-106" style="edgeStyle=orthogonalEdgeStyle;rounded=0;orthogonalLoop=1;jettySize=auto;html=1;exitX=0.5;exitY=1;exitDx=0;exitDy=0;endArrow=none;endFill=0;" parent="1" source="ypzSK29wUqCk7zwSj95s-87" edge="1">
          <mxGeometry relative="1" as="geometry">
            <mxPoint x="791.6190476190475" y="1579.9579613095239" as="targetPoint" />
          </mxGeometry>
        </mxCell>
        <mxCell id="ypzSK29wUqCk7zwSj95s-87" value="Збереження результатів" style="rounded=1;whiteSpace=wrap;html=1;" parent="1" vertex="1">
          <mxGeometry x="731.75" y="1498" width="120" height="60" as="geometry" />
        </mxCell>
        <mxCell id="ypzSK29wUqCk7zwSj95s-91" style="edgeStyle=orthogonalEdgeStyle;rounded=0;orthogonalLoop=1;jettySize=auto;html=1;exitX=0.5;exitY=1;exitDx=0;exitDy=0;entryX=0.5;entryY=0;entryDx=0;entryDy=0;" parent="1" source="ypzSK29wUqCk7zwSj95s-90" target="ypzSK29wUqCk7zwSj95s-59" edge="1">
          <mxGeometry relative="1" as="geometry">
            <Array as="points">
              <mxPoint x="924" y="1580" />
              <mxPoint x="443" y="1580" />
              <mxPoint x="443" y="946" />
            </Array>
          </mxGeometry>
        </mxCell>
        <mxCell id="ypzSK29wUqCk7zwSj95s-90" value="Відображення історії останніх ігор" style="rounded=1;whiteSpace=wrap;html=1;" parent="1" vertex="1">
          <mxGeometry x="863.5" y="1204" width="120" height="60" as="geometry" />
        </mxCell>
        <mxCell id="ypzSK29wUqCk7zwSj95s-97" style="edgeStyle=orthogonalEdgeStyle;rounded=0;orthogonalLoop=1;jettySize=auto;html=1;exitX=0.5;exitY=1;exitDx=0;exitDy=0;endArrow=none;endFill=0;" parent="1" source="ypzSK29wUqCk7zwSj95s-93" edge="1">
          <mxGeometry relative="1" as="geometry">
            <mxPoint x="924" y="1300" as="targetPoint" />
            <Array as="points">
              <mxPoint x="1058" y="1300" />
              <mxPoint x="924" y="1300" />
            </Array>
          </mxGeometry>
        </mxCell>
        <mxCell id="ypzSK29wUqCk7zwSj95s-93" value="Відображення статистики останніх ігор" style="rounded=1;whiteSpace=wrap;html=1;" parent="1" vertex="1">
          <mxGeometry x="997.5" y="1204" width="120" height="60" as="geometry" />
        </mxCell>
        <mxCell id="ypzSK29wUqCk7zwSj95s-108" style="edgeStyle=orthogonalEdgeStyle;rounded=0;orthogonalLoop=1;jettySize=auto;html=1;entryX=0.5;entryY=0;entryDx=0;entryDy=0;endArrow=classic;endFill=1;exitX=0.5;exitY=1;exitDx=0;exitDy=0;" parent="1" source="ypzSK29wUqCk7zwSj95s-98" target="ypzSK29wUqCk7zwSj95s-101" edge="1">
          <mxGeometry relative="1" as="geometry">
            <mxPoint x="690" y="1367" as="sourcePoint" />
          </mxGeometry>
        </mxCell>
        <mxCell id="ypzSK29wUqCk7zwSj95s-109" style="edgeStyle=orthogonalEdgeStyle;rounded=0;orthogonalLoop=1;jettySize=auto;html=1;exitX=0.5;exitY=1;exitDx=0;exitDy=0;entryX=0.5;entryY=0;entryDx=0;entryDy=0;endArrow=classic;endFill=1;" parent="1" source="ypzSK29wUqCk7zwSj95s-98" target="ypzSK29wUqCk7zwSj95s-100" edge="1">
          <mxGeometry relative="1" as="geometry" />
        </mxCell>
        <mxCell id="ypzSK29wUqCk7zwSj95s-98" value="" style="rhombus;whiteSpace=wrap;html=1;" parent="1" vertex="1">
          <mxGeometry x="635.75" y="1308" width="47.5" height="48" as="geometry" />
        </mxCell>
        <mxCell id="ypzSK29wUqCk7zwSj95s-99" style="edgeStyle=orthogonalEdgeStyle;rounded=0;orthogonalLoop=1;jettySize=auto;html=1;exitX=0.5;exitY=1;exitDx=0;exitDy=0;entryX=0.5;entryY=0;entryDx=0;entryDy=0;" parent="1" source="ypzSK29wUqCk7zwSj95s-71" target="ypzSK29wUqCk7zwSj95s-98" edge="1">
          <mxGeometry relative="1" as="geometry">
            <mxPoint x="659.5" y="1264" as="sourcePoint" />
            <mxPoint x="659.5" y="1444" as="targetPoint" />
          </mxGeometry>
        </mxCell>
        <mxCell id="ypzSK29wUqCk7zwSj95s-107" style="edgeStyle=orthogonalEdgeStyle;rounded=0;orthogonalLoop=1;jettySize=auto;html=1;exitX=0.5;exitY=1;exitDx=0;exitDy=0;entryX=1;entryY=0.5;entryDx=0;entryDy=0;endArrow=classic;endFill=1;" parent="1" source="ypzSK29wUqCk7zwSj95s-101" target="ypzSK29wUqCk7zwSj95s-74" edge="1">
          <mxGeometry relative="1" as="geometry" />
        </mxCell>
        <mxCell id="ypzSK29wUqCk7zwSj95s-101" value="Редагування існуючого набору" style="rounded=1;whiteSpace=wrap;html=1;" parent="1" vertex="1">
          <mxGeometry x="599.5" y="1400" width="120" height="60" as="geometry" />
        </mxCell>
        <mxCell id="ypzSK29wUqCk7zwSj95s-100" value="Створення нового&amp;nbsp; набору" style="rounded=1;whiteSpace=wrap;html=1;" parent="1" vertex="1">
          <mxGeometry x="467" y="1400" width="120" height="60" as="geometry" />
        </mxCell>
        <mxCell id="ypzSK29wUqCk7zwSj95s-105" style="edgeStyle=orthogonalEdgeStyle;rounded=0;orthogonalLoop=1;jettySize=auto;html=1;exitX=0.5;exitY=1;exitDx=0;exitDy=0;endArrow=none;endFill=0;" parent="1" source="ypzSK29wUqCk7zwSj95s-74" edge="1">
          <mxGeometry relative="1" as="geometry">
            <mxPoint x="522" y="1580" as="targetPoint" />
            <Array as="points">
              <mxPoint x="527" y="1580" />
            </Array>
          </mxGeometry>
        </mxCell>
        <mxCell id="ypzSK29wUqCk7zwSj95s-74" value="Збереження змін" style="rounded=1;whiteSpace=wrap;html=1;" parent="1" vertex="1">
          <mxGeometry x="467" y="1501" width="120" height="60" as="geometry" />
        </mxCell>
        <mxCell id="ypzSK29wUqCk7zwSj95s-110" value="Користувач" style="shape=umlActor;verticalLabelPosition=bottom;verticalAlign=top;html=1;" parent="1" vertex="1">
          <mxGeometry x="1546" y="768" width="30" height="60" as="geometry" />
        </mxCell>
        <mxCell id="ypzSK29wUqCk7zwSj95s-111" value="Віртуальний&amp;nbsp;круп&#39;є" style="rounded=0;whiteSpace=wrap;html=1;" parent="1" vertex="1">
          <mxGeometry x="1708" y="783" width="120" height="60" as="geometry" />
        </mxCell>
        <mxCell id="ypzSK29wUqCk7zwSj95s-118" value="" style="endArrow=none;dashed=1;html=1;" parent="1" edge="1">
          <mxGeometry width="50" height="50" relative="1" as="geometry">
            <mxPoint x="1559" y="1350" as="sourcePoint" />
            <mxPoint x="1559" y="854" as="targetPoint" />
          </mxGeometry>
        </mxCell>
        <mxCell id="ypzSK29wUqCk7zwSj95s-119" value="" style="endArrow=none;dashed=1;html=1;" parent="1" edge="1">
          <mxGeometry width="50" height="50" relative="1" as="geometry">
            <mxPoint x="1769" y="1351" as="sourcePoint" />
            <mxPoint x="1769" y="855" as="targetPoint" />
          </mxGeometry>
        </mxCell>
        <mxCell id="ypzSK29wUqCk7zwSj95s-125" value="" style="endArrow=classic;html=1;" parent="1" edge="1">
          <mxGeometry width="50" height="50" relative="1" as="geometry">
            <mxPoint x="1560" y="869" as="sourcePoint" />
            <mxPoint x="1769" y="869" as="targetPoint" />
          </mxGeometry>
        </mxCell>
        <mxCell id="ypzSK29wUqCk7zwSj95s-126" value="" style="endArrow=classic;html=1;" parent="1" edge="1">
          <mxGeometry width="50" height="50" relative="1" as="geometry">
            <mxPoint x="1559" y="976" as="sourcePoint" />
            <mxPoint x="1768" y="976" as="targetPoint" />
          </mxGeometry>
        </mxCell>
        <mxCell id="ypzSK29wUqCk7zwSj95s-127" value="Розпочати гру" style="text;html=1;align=center;verticalAlign=middle;resizable=0;points=[];autosize=1;" parent="1" vertex="1">
          <mxGeometry x="1625" y="853" width="88" height="18" as="geometry" />
        </mxCell>
        <mxCell id="ypzSK29wUqCk7zwSj95s-130" value="" style="endArrow=classic;html=1;" parent="1" edge="1">
          <mxGeometry width="50" height="50" relative="1" as="geometry">
            <mxPoint x="1768" y="897" as="sourcePoint" />
            <mxPoint x="1560" y="897" as="targetPoint" />
          </mxGeometry>
        </mxCell>
        <mxCell id="ypzSK29wUqCk7zwSj95s-131" value="Роздача карт" style="text;html=1;align=center;verticalAlign=middle;resizable=0;points=[];autosize=1;" parent="1" vertex="1">
          <mxGeometry x="1625" y="880" width="83" height="18" as="geometry" />
        </mxCell>
        <mxCell id="ypzSK29wUqCk7zwSj95s-133" value="" style="endArrow=classic;html=1;dashed=1;" parent="1" edge="1">
          <mxGeometry width="50" height="50" relative="1" as="geometry">
            <mxPoint x="1766" y="1021" as="sourcePoint" />
            <mxPoint x="1558" y="1021" as="targetPoint" />
          </mxGeometry>
        </mxCell>
        <mxCell id="ypzSK29wUqCk7zwSj95s-134" value="Викладає першу карту &quot;маячок&quot;" style="text;html=1;align=center;verticalAlign=middle;resizable=0;points=[];autosize=1;" parent="1" vertex="1">
          <mxGeometry x="1573" y="928" width="188" height="18" as="geometry" />
        </mxCell>
        <mxCell id="ypzSK29wUqCk7zwSj95s-135" value="" style="endArrow=classic;html=1;" parent="1" edge="1">
          <mxGeometry width="50" height="50" relative="1" as="geometry">
            <mxPoint x="1768" y="946" as="sourcePoint" />
            <mxPoint x="1560" y="946" as="targetPoint" />
          </mxGeometry>
        </mxCell>
        <mxCell id="ypzSK29wUqCk7zwSj95s-136" value="Відповідає своєю гральною картою" style="text;html=1;align=center;verticalAlign=middle;resizable=0;points=[];autosize=1;" parent="1" vertex="1">
          <mxGeometry x="1559" y="956" width="206" height="18" as="geometry" />
        </mxCell>
        <mxCell id="ypzSK29wUqCk7zwSj95s-138" value="Повідомляє про правильний хід&lt;br&gt;робить дану карту не активною" style="text;html=1;align=center;verticalAlign=middle;resizable=0;points=[];autosize=1;" parent="1" vertex="1">
          <mxGeometry x="1572.5" y="985" width="188" height="32" as="geometry" />
        </mxCell>
        <mxCell id="ypzSK29wUqCk7zwSj95s-146" value="" style="endArrow=classic;html=1;" parent="1" edge="1">
          <mxGeometry width="50" height="50" relative="1" as="geometry">
            <mxPoint x="1560" y="1052" as="sourcePoint" />
            <mxPoint x="1769" y="1052" as="targetPoint" />
          </mxGeometry>
        </mxCell>
        <mxCell id="ypzSK29wUqCk7zwSj95s-147" value="" style="endArrow=classic;html=1;dashed=1;" parent="1" edge="1">
          <mxGeometry width="50" height="50" relative="1" as="geometry">
            <mxPoint x="1767" y="1097" as="sourcePoint" />
            <mxPoint x="1559" y="1097" as="targetPoint" />
          </mxGeometry>
        </mxCell>
        <mxCell id="ypzSK29wUqCk7zwSj95s-148" value="Відповідає своєю гральною картою" style="text;html=1;align=center;verticalAlign=middle;resizable=0;points=[];autosize=1;" parent="1" vertex="1">
          <mxGeometry x="1560" y="1032" width="206" height="18" as="geometry" />
        </mxCell>
        <mxCell id="ypzSK29wUqCk7zwSj95s-149" value="Повідомляє про хибний хід&lt;br&gt;дає додаткову карту" style="text;html=1;align=center;verticalAlign=middle;resizable=0;points=[];autosize=1;" parent="1" vertex="1">
          <mxGeometry x="1587.5" y="1061" width="161" height="32" as="geometry" />
        </mxCell>
        <mxCell id="ypzSK29wUqCk7zwSj95s-150" value="" style="endArrow=classic;html=1;" parent="1" edge="1">
          <mxGeometry width="50" height="50" relative="1" as="geometry">
            <mxPoint x="1561" y="1198.33" as="sourcePoint" />
            <mxPoint x="1770" y="1198.33" as="targetPoint" />
          </mxGeometry>
        </mxCell>
        <mxCell id="ypzSK29wUqCk7zwSj95s-151" value="" style="endArrow=classic;html=1;dashed=1;" parent="1" edge="1">
          <mxGeometry width="50" height="50" relative="1" as="geometry">
            <mxPoint x="1767" y="1245" as="sourcePoint" />
            <mxPoint x="1559" y="1245" as="targetPoint" />
          </mxGeometry>
        </mxCell>
        <mxCell id="ypzSK29wUqCk7zwSj95s-152" value="Відповідає своєю останньою картою" style="text;html=1;align=center;verticalAlign=middle;resizable=0;points=[];autosize=1;" parent="1" vertex="1">
          <mxGeometry x="1557" y="1178.33" width="214" height="18" as="geometry" />
        </mxCell>
        <mxCell id="ypzSK29wUqCk7zwSj95s-153" value="Повідомляє про правильний хід.&lt;br&gt;&amp;nbsp;Перемога користувача" style="text;html=1;align=center;verticalAlign=middle;resizable=0;points=[];autosize=1;" parent="1" vertex="1">
          <mxGeometry x="1573.5" y="1208.33" width="191" height="32" as="geometry" />
        </mxCell>
        <mxCell id="ypzSK29wUqCk7zwSj95s-154" value="" style="endArrow=classic;html=1;" parent="1" edge="1">
          <mxGeometry width="50" height="50" relative="1" as="geometry">
            <mxPoint x="1562" y="1274.33" as="sourcePoint" />
            <mxPoint x="1771" y="1274.33" as="targetPoint" />
          </mxGeometry>
        </mxCell>
        <mxCell id="ypzSK29wUqCk7zwSj95s-155" value="" style="endArrow=classic;html=1;dashed=1;" parent="1" edge="1">
          <mxGeometry width="50" height="50" relative="1" as="geometry">
            <mxPoint x="1767" y="1321" as="sourcePoint" />
            <mxPoint x="1559" y="1321" as="targetPoint" />
          </mxGeometry>
        </mxCell>
        <mxCell id="ypzSK29wUqCk7zwSj95s-156" value="Відповідає своєю останньою картою" style="text;html=1;align=center;verticalAlign=middle;resizable=0;points=[];autosize=1;" parent="1" vertex="1">
          <mxGeometry x="1558" y="1254.33" width="214" height="18" as="geometry" />
        </mxCell>
        <mxCell id="ypzSK29wUqCk7zwSj95s-157" value="Повідомляє про хибний хід&lt;br&gt;дає додаткову карту.&lt;br&gt;" style="text;html=1;align=center;verticalAlign=middle;resizable=0;points=[];autosize=1;" parent="1" vertex="1">
          <mxGeometry x="1587.5" y="1284" width="161" height="32" as="geometry" />
        </mxCell>
        <mxCell id="ypzSK29wUqCk7zwSj95s-160" value="Викладає N карту &quot;маячок&quot;" style="text;html=1;align=center;verticalAlign=middle;resizable=0;points=[];autosize=1;" parent="1" vertex="1">
          <mxGeometry x="1586" y="1146" width="160" height="18" as="geometry" />
        </mxCell>
        <mxCell id="ypzSK29wUqCk7zwSj95s-161" value="" style="endArrow=classic;html=1;" parent="1" edge="1">
          <mxGeometry width="50" height="50" relative="1" as="geometry">
            <mxPoint x="1767" y="1164" as="sourcePoint" />
            <mxPoint x="1559" y="1164" as="targetPoint" />
          </mxGeometry>
        </mxCell>
        <mxCell id="ypzSK29wUqCk7zwSj95s-163" value="&lt;font style=&quot;font-size: 8px&quot;&gt;*Програє, якщо карти &lt;br&gt;&quot;маячки&quot; закінчуються &lt;br&gt;раніше,&amp;nbsp;ніж гральні&lt;br&gt;&amp;nbsp;карти користувача&lt;/font&gt;" style="text;html=1;align=center;verticalAlign=middle;resizable=0;points=[];autosize=1;" parent="1" vertex="1">
          <mxGeometry x="1782" y="1264" width="93" height="64" as="geometry" />
        </mxCell>
        <mxCell id="ypzSK29wUqCk7zwSj95s-166" value="Альтернатива" style="shape=umlFrame;whiteSpace=wrap;html=1;fillColor=none;width=100;height=22;" parent="1" vertex="1">
          <mxGeometry x="1442" y="925" width="446" height="187" as="geometry" />
        </mxCell>
        <mxCell id="ypzSK29wUqCk7zwSj95s-168" value="" style="endArrow=none;html=1;entryX=-0.001;entryY=0.539;entryDx=0;entryDy=0;entryPerimeter=0;dashed=1;exitX=0.995;exitY=0.549;exitDx=0;exitDy=0;exitPerimeter=0;dashPattern=1 4;" parent="1" source="ypzSK29wUqCk7zwSj95s-166" target="ypzSK29wUqCk7zwSj95s-166" edge="1">
          <mxGeometry width="50" height="50" relative="1" as="geometry">
            <mxPoint x="1557" y="1026" as="sourcePoint" />
            <mxPoint x="1789" y="939" as="targetPoint" />
          </mxGeometry>
        </mxCell>
        <mxCell id="ypzSK29wUqCk7zwSj95s-170" value="Альтернатива" style="shape=umlFrame;whiteSpace=wrap;html=1;fillColor=none;width=100;height=22;" parent="1" vertex="1">
          <mxGeometry x="1442" y="1146" width="445" height="187" as="geometry" />
        </mxCell>
        <mxCell id="ypzSK29wUqCk7zwSj95s-171" value="" style="endArrow=none;html=1;entryX=-0.001;entryY=0.539;entryDx=0;entryDy=0;entryPerimeter=0;dashed=1;dashPattern=1 4;exitX=1.001;exitY=0.557;exitDx=0;exitDy=0;exitPerimeter=0;" parent="1" source="ypzSK29wUqCk7zwSj95s-170" edge="1">
          <mxGeometry width="50" height="50" relative="1" as="geometry">
            <mxPoint x="1883" y="1250" as="sourcePoint" />
            <mxPoint x="1441.4989999999998" y="1250.463" as="targetPoint" />
          </mxGeometry>
        </mxCell>
        <mxCell id="ypzSK29wUqCk7zwSj95s-173" value="Statistics" style="swimlane;childLayout=stackLayout;horizontal=1;startSize=30;horizontalStack=0;rounded=1;fontSize=14;fontStyle=0;strokeWidth=2;resizeParent=0;resizeLast=1;shadow=0;dashed=0;align=center;fillColor=none;" parent="1" vertex="1">
          <mxGeometry x="1108" y="118" width="160" height="120" as="geometry" />
        </mxCell>
        <mxCell id="ypzSK29wUqCk7zwSj95s-174" value="Id&#xa;GameState&#xa;MovesCount&#xa;CardReboundsCount&#xa;CardsPackId" style="align=left;strokeColor=none;fillColor=none;spacingLeft=4;fontSize=12;verticalAlign=top;resizable=0;rotatable=0;part=1;" parent="ypzSK29wUqCk7zwSj95s-173" vertex="1">
          <mxGeometry y="30" width="160" height="90" as="geometry" />
        </mxCell>
        <mxCell id="ypzSK29wUqCk7zwSj95s-180" value="History" style="swimlane;childLayout=stackLayout;horizontal=1;startSize=30;horizontalStack=0;rounded=1;fontSize=14;fontStyle=0;strokeWidth=2;resizeParent=0;resizeLast=1;shadow=0;dashed=0;align=center;fillColor=none;" parent="1" vertex="1">
          <mxGeometry x="1108" y="256" width="160" height="120" as="geometry" />
        </mxCell>
        <mxCell id="ypzSK29wUqCk7zwSj95s-181" value="Id&#xa;Date&#xa;GameState&#xa;CardsPackId" style="align=left;strokeColor=none;fillColor=none;spacingLeft=4;fontSize=12;verticalAlign=top;resizable=0;rotatable=0;part=1;" parent="ypzSK29wUqCk7zwSj95s-180" vertex="1">
          <mxGeometry y="30" width="160" height="90" as="geometry" />
        </mxCell>
        <mxCell id="ypzSK29wUqCk7zwSj95s-184" value="CardsPackPictures" style="swimlane;childLayout=stackLayout;horizontal=1;startSize=30;horizontalStack=0;rounded=1;fontSize=14;fontStyle=0;strokeWidth=2;resizeParent=0;resizeLast=1;shadow=0;dashed=0;align=center;fillColor=none;" parent="1" vertex="1">
          <mxGeometry x="1589" y="259" width="160" height="120" as="geometry" />
        </mxCell>
        <mxCell id="ypzSK29wUqCk7zwSj95s-185" value="Id&#xa;CardsPackId&#xa;PictureId" style="align=left;strokeColor=none;fillColor=none;spacingLeft=4;fontSize=12;verticalAlign=top;resizable=0;rotatable=0;part=1;" parent="ypzSK29wUqCk7zwSj95s-184" vertex="1">
          <mxGeometry y="30" width="160" height="90" as="geometry" />
        </mxCell>
        <mxCell id="ypzSK29wUqCk7zwSj95s-186" value="CardsPackPictures" style="swimlane;childLayout=stackLayout;horizontal=1;startSize=30;horizontalStack=0;rounded=1;fontSize=14;fontStyle=0;strokeWidth=2;resizeParent=0;resizeLast=1;shadow=0;dashed=0;align=center;fillColor=none;" parent="1" vertex="1">
          <mxGeometry x="1795" y="259" width="160" height="120" as="geometry" />
        </mxCell>
        <mxCell id="ypzSK29wUqCk7zwSj95s-187" value="Id&#xa;Type&#xa;Genre&#xa;Style" style="align=left;strokeColor=none;fillColor=none;spacingLeft=4;fontSize=12;verticalAlign=top;resizable=0;rotatable=0;part=1;" parent="ypzSK29wUqCk7zwSj95s-186" vertex="1">
          <mxGeometry y="30" width="160" height="90" as="geometry" />
        </mxCell>
        <mxCell id="ypzSK29wUqCk7zwSj95s-188" value="CardsPacks" style="swimlane;childLayout=stackLayout;horizontal=1;startSize=30;horizontalStack=0;rounded=1;fontSize=14;fontStyle=0;strokeWidth=2;resizeParent=0;resizeLast=1;shadow=0;dashed=0;align=center;fillColor=none;" parent="1" vertex="1">
          <mxGeometry x="1384" y="259" width="160" height="120" as="geometry" />
        </mxCell>
        <mxCell id="ypzSK29wUqCk7zwSj95s-189" value="Id&#xa;Name" style="align=left;strokeColor=none;fillColor=none;spacingLeft=4;fontSize=12;verticalAlign=top;resizable=0;rotatable=0;part=1;" parent="ypzSK29wUqCk7zwSj95s-188" vertex="1">
          <mxGeometry y="30" width="160" height="90" as="geometry" />
        </mxCell>
        <mxCell id="ypzSK29wUqCk7zwSj95s-190" value="QuestionСardsPackPictures" style="swimlane;childLayout=stackLayout;horizontal=1;startSize=30;horizontalStack=0;rounded=1;fontSize=14;fontStyle=0;strokeWidth=2;resizeParent=0;resizeLast=1;shadow=0;dashed=0;align=center;fillColor=none;" parent="1" vertex="1">
          <mxGeometry x="1384" y="98" width="191" height="120" as="geometry" />
        </mxCell>
        <mxCell id="ypzSK29wUqCk7zwSj95s-191" value="Id&#xa;Type&#xa;Genre&#xa;Style" style="align=left;strokeColor=none;fillColor=none;spacingLeft=4;fontSize=12;verticalAlign=top;resizable=0;rotatable=0;part=1;" parent="ypzSK29wUqCk7zwSj95s-190" vertex="1">
          <mxGeometry y="30" width="191" height="90" as="geometry" />
        </mxCell>
        <mxCell id="ypzSK29wUqCk7zwSj95s-195" value="" style="edgeStyle=entityRelationEdgeStyle;fontSize=12;html=1;endArrow=ERoneToMany;startArrow=ERmandOne;exitX=1.006;exitY=0.109;exitDx=0;exitDy=0;exitPerimeter=0;entryX=-0.004;entryY=0.314;entryDx=0;entryDy=0;entryPerimeter=0;" parent="1" source="ypzSK29wUqCk7zwSj95s-189" target="ypzSK29wUqCk7zwSj95s-185" edge="1">
          <mxGeometry width="100" height="100" relative="1" as="geometry">
            <mxPoint x="1590" y="379" as="sourcePoint" />
            <mxPoint x="1701" y="473" as="targetPoint" />
          </mxGeometry>
        </mxCell>
        <mxCell id="ypzSK29wUqCk7zwSj95s-196" value="" style="edgeStyle=entityRelationEdgeStyle;fontSize=12;html=1;endArrow=ERoneToMany;startArrow=ERoneToMany;entryX=1.012;entryY=0.553;entryDx=0;entryDy=0;entryPerimeter=0;exitX=-0.004;exitY=0.326;exitDx=0;exitDy=0;exitPerimeter=0;" parent="1" source="ypzSK29wUqCk7zwSj95s-189" target="ypzSK29wUqCk7zwSj95s-181" edge="1">
          <mxGeometry width="100" height="100" relative="1" as="geometry">
            <mxPoint x="1215" y="438" as="sourcePoint" />
            <mxPoint x="1315" y="338" as="targetPoint" />
          </mxGeometry>
        </mxCell>
        <mxCell id="ypzSK29wUqCk7zwSj95s-197" value="" style="edgeStyle=entityRelationEdgeStyle;fontSize=12;html=1;endArrow=ERoneToMany;startArrow=ERoneToMany;entryX=1;entryY=0.75;entryDx=0;entryDy=0;exitX=-0.013;exitY=0.126;exitDx=0;exitDy=0;exitPerimeter=0;" parent="1" source="ypzSK29wUqCk7zwSj95s-189" target="ypzSK29wUqCk7zwSj95s-174" edge="1">
          <mxGeometry width="100" height="100" relative="1" as="geometry">
            <mxPoint x="1393.3599999999997" y="312.77" as="sourcePoint" />
            <mxPoint x="1278.9599999999998" y="311.29999999999995" as="targetPoint" />
          </mxGeometry>
        </mxCell>
        <mxCell id="ypzSK29wUqCk7zwSj95s-198" value="" style="edgeStyle=entityRelationEdgeStyle;fontSize=12;html=1;endArrow=ERoneToMany;startArrow=ERoneToMany;exitX=0.003;exitY=0.148;exitDx=0;exitDy=0;exitPerimeter=0;entryX=1;entryY=0.5;entryDx=0;entryDy=0;" parent="1" source="ypzSK29wUqCk7zwSj95s-187" target="ypzSK29wUqCk7zwSj95s-185" edge="1">
          <mxGeometry width="100" height="100" relative="1" as="geometry">
            <mxPoint x="1805.4399999999996" y="405.9999999999999" as="sourcePoint" />
            <mxPoint x="1770" y="331" as="targetPoint" />
          </mxGeometry>
        </mxCell>
        <mxCell id="CY7CNvu7F5HaNLHxp8Ah-41" value="" style="shape=image;verticalLabelPosition=bottom;labelBackgroundColor=#ffffff;verticalAlign=top;aspect=fixed;imageAspect=0;image=data:image/png,iVBORw0KGgoAAAANSUhEUgAABS4AAAKZCAYAAAC2vrWRAAAgAElEQVR4AeydB7hU1bmwjTflJtHk5t6bmFxTFGOvUaOxxBgRUWOniBEb2EUF5IJdMCCiIuq1I2IvaFABsWEhWLGBiqjYsKK/ImLFtv7nXcnG4TjnnDmcPXP27P3u59mcw8yetdd6vz1zZt751reWCG4SkIAEJCABCUhAAhKQgAQkIAEJSEACEpCABDJGYImM9cfuSEACEpCABCQgAQlIQAISkIAEJCABCUhAAhIIiksvAglIQAISkIAEJCABCUhAAhKQgAQkIAEJSCBzBBSXmQuJHZKABCQgAQlIQAISkIAEJCABCUhAAhKQgAQUl14DEpCABCQgAQlIQAISkIAEJCABCUhAAhKQQOYIKC4zFxI7JAEJSEACEpCABCQgAQlIQAISkIAEJCABCSguvQYkIAEJSEACEpCABCQgAQlIQAISkIAEJCCBzBFQXGYuJHZIAhKQgAQkIAEJSEACEpCABCQgAQlIQAISUFx6DUhAAhKQgAQkIAEJSEACEpCABCQgAQlIQAKZI6C4zFxI7JAEJCABCUhAAhKQgAQkIAEJSEACEpCABCSguPQakIAEJCABCUhAAhKQgAQkIAEJSEACEpCABDJHQHGZuZDYIQlIQAISkIAEJCABCUhAAhKQgAQkIAEJSEBx6TUgAQlIQAISkIAEJCABCUhAAhKQgAQkIAEJZI6A4jJzIbFDEpCABCQgAQlIQAISkIAEJCABCUhAAhKQgOLSa0ACEpCABCQgAQlIQAISkIAEJCABCUhAAhLIHAHFZeZCYockIAEJSEACEpCABCQgAQlIQAISkIAEJCABxaXXgAQkIAEJSEACEpCABCQgAQlIQAISkIAEJJA5AorLzIXEDklAAhKQgAQkIAEJSEACEpCABCQgAQlIQAKKS68BCUhAAhKQgAQkIAEJSEACEpCABCQgAQlIIHMEFJeZC4kdkoAEJCABCUhAAhKQgAQkIAEJSEACEpCABBSXXgMSkIAEJCABCUhAAhKQgAQkIAEJSEACEpBA5ggoLjMXEjskAQlIQAISkIAEJCABCUhAAhKQgAQkIAEJKC69BiQgAQlIQAISkIAEJCABCUhAAhKQgAQkIIHMEVBcZi4kdkgCEpCABCQgAQlIQAISkIAEJCABCUhAAhJQXHoNSEACEpCABCQgAQlIQAISkIAEJCABCUhAApkjoLjMXEjskAQkIAEJSEACEpCABCQgAQlIQAISkIAEJKC49BqQgAQkIAEJSEACEpCABCQgAQlIQAISkIAEMkdAcZm5kNghCUhAAhKQgAQkIAEJSEACEpCABCQgAQlIQHHpNSABCUhAAhKQgAQkIAEJSEACEpCABCQgAQlkjoDiMnMhsUMSkIAEJCABCUhAAhKQgAQkIAEJSEACEpCA4tJrQAISkIAEJCABCUhAAhKQgAQkIAEJSEACEsgcAcVl5kJihyQgAQlIQAISkIAEJCABCUhAAhKQgAQkIAHFpdeABCQgAQlIQAISkIAEJCABCUhAAhKQgAQkkDkCisvMhcQOSUACEpCABCQgAQlIQAISkIAEJCABCUhAAopLrwEJSEACEpCABCQgAQlIQAISkIAEJCABCUggcwQUl5kLiR2SgAQkIAEJSEACEpCABCQgAQlIQAISkIAEFJdeAxKQgAQkIAEJSEACEpCABCQgAQlIQAISkEDmCCguMxcSOyQBCUhAAhKQgAQkIAEJSEACEpCABCQgAQkoLr0GJCABCUhAAhKQgAQkIAEJSEACEpCABCQggcwRUFxmLiR2SAISkIAEJCABCUhAAhKQgAQkIAEJSEACElBceg1IQAISkIAEJCABCUhAAhKQgAQkIAEJSEACmSOguMxcSOyQBCQgAQlIQAISkIAEJCABCUhAAhKQgAQkoLj0GpCABCQgAQlIQAISkIAEJCABCUhAAhKQgAQyR0BxmbmQ2CEJSEACEpCABCQgAQlIQAISkIAEJCABCUhAcek1IAEJSEACEpCABCQgAQlIQAISkIAEJCABCWSOgOIycyGxQxKQgAQkIAEJSEACEpCABCQgAQlIQAISkIDi0mtAAhKQgAQkIAEJSEACEpCABCQgAQlIQAISyBwBxWXmQmKHJCABCUhAAhKQgAQkIAEJSEACEpCABCQgAcWl14AEJCABCUhAAhKQgAQkIAEJSEACEpCABCSQOQKKy8yFxA5JQAISkIAEJCABCUhAAhKQgAQkIAEJSEACikuvAQlIQAISkIAEJCABCUhAAhKQgAQkIAEJSCBzBBSXmQuJHZKABCQgAQlIQAISkIAEJCABCUhAAhKQgAQUl14DEpCABCQgAQlIQAISkIAEJCABCUhAAhKQQOYIKC4zFxI7JAEJSEACEpCABCQgAQlIQAISkIAEJCABCSguvQYkIAEJSEACEpCABCQgAQlIQAISkIAEJCCBzBFQXGYuJHZIAhKQgAQkIAEJSEACEpCABCQgAQlIQAISUFx6DUhAAhKQgAQkIAEJSEACEpCABCQgAQlIQAKZI6C4zFxI7JAEJCABCUhAAhKQgAQkIAEJSEACEpCABCSguPQakIAEJCABCUhAAjUk8NFHH4VHHnkkjBgxIhxyyCGhR48e7jLwGvAa8BrwGvAa8BrwGqjyNdC7d+8wefLkGr7r81RpEFBcpkHRNiQgAQlIQAISkEAFBObPnx/+8Y9/hH322Sf069cvDBgwwF0GXgNeA14DXgNeA14DXgNVugb69u0bOnfuHJZeeunwwx/+MJx99tkVvGPzkCwRUFxmKRr2RQISkIAEJCCB3BL44IMPwj333BN69eoV2rdvH3/nNjcJSEACEpCABCQggfQJfPrpp+GZZ54JxxxzTNhyyy3DT37ykzB8+PD0T2SLVSWguKwqXhuXgAQkIAEJSEACIXz88ccx05Kp4VtssUW47777woIFC0QjAQlIQAISkIAEJFAFArzPmjlzZhg8eHBYYYUVwjXXXBM23nhjxWUVWFe7ScVltQnbvgQkIAEJSEAChSbwxRdfhIceeijsvvvuoUOHDlFaFhqIg5eABCQgAQlIQAJVJPDll1+GWbNmhYEDB4Zf//rXYfz48YFZLttvv73isorcq9W04rJaZG1XAhKQgAQkIAEJhBCmTp0adtppp9CtW7dw9913B6YtuUlAAhKQgAQkIAEJVIfAs88+G/r37x822mijcP311wcWRkRmKi6rw7varSouq03Y9iUgAQlIQAISKCSBzz77LEpL3iTvv//+4bbbbovf9hcShoOWgAQkIAEJSEACNSDA9HBWD99ll13CZZddFubOnRu++uqreGbFZQ0CUIVTKC6rANUmJSABCUhAAhIoNgG+2X/ggQdipuW+++4bbrnlljBv3rxiQ3H0EpCABCQgAQlIoIoEWIjn8MMPD927dw+jRo0Kb7311iJnU1wugqNu/qO4rJtQ2VEJSEACEpCABOqBwPz588PkyZPDXnvtFTp37hxuv/12pWU9BM4+SkACEpCABCRQlwSY5fL888+HI444Iuy6667hoosuCm+++eY3xqK4/AaSurhBcVkXYbKTEpCABCQgAQnUAwGkJXUse/XqFbbccssoMCkG7yYBCUhAAhKQgAQkkD4BaoeTaXnMMcfE916XXnppmDNnTtkTKS7LYsn8jYrLzIfIDkpAAhKQgAQkUA8EPv744/CPf/wjHHzwwWGLLbaIq4eTAeAmAQlIQAISkIAEJJA+gQULFgRqWg4ePDi0a9cuXHPNNeGdd95p9ESKy0bRZPoOxWWmw2PnJFB9AqyuxgfrTz75JPCh210GXgOLXgOff/559Z+IniEXBB5++OE4PemPf/xjmDRpkq+n/k3xGvAa8BrwGvAa8BrwGqjiNYC0HDhwYPj1r38dJkyY0OwiiIrL+nzLrbisz7jZawmkRuCFF14I5513Xth6663D//zP/7jLwGug5BpYZ511wrhx41J7vtlQvgkcddRRYZlllgnf/e53w3//93/7XCp5Lvn3xb+vXgNeA14DXgNeA14DaV8DK6ywQthxxx3D3//+98DCiCTlNLUpLpuik937FJfZjY09k0DVCTz33HPh6KOPDp06dQqjR4+OddmozeYugyJfA3xbyze3Sy+9dBRQl1xySdWfi54gHwRYjKdnz56+hvp3xGvAa8BrwGvAa8BrwGugBtdAnz59QseOHcPcuXPDV1991ewbSsVls4gyeYDiMpNhsVMSqD6BWbNmhQEDBoS//vWvMeOy3Kpr1e+FZ5BAtgi89957YeLEiTEDmTqFfCs8atSobHXS3mSWAK+nJ5xwQmb7Z8ckIAEJSEACEpBAngj83//9X9hqq60qHpLismJUmTpQcZmpcNgZCVSfwBdffBFefPHFmGnZrVu3cM4554TXX3+9+if2DBLIOAG+qWVa+B577BF22223MHXq1LDeeuspLjMetyx1T3GZpWjYFwlIQAISkIAE8k5AcZn3CP9zfIrLYsTZUUogEmDVNaTloEGDYko9tS2Vll4cEghh3rx5UVruu+++oUuXLuGxxx6Li1ZtuummiksvkIoJKC4rRuWBEpCABCQgAQlIoNUEFJetRlgXDSgu6yJMdlICrSfAyuHPP/98OOWUU8Iqq6wSLr744vDWW2+1vmFbkECdE/jwww/DLbfcErp37x66du0aHn300YUjUlwuROEvFRBQXFYAyUMkIAEJSEACEpBASgQUlymBzHgzisuMB8juSSANAqyu9tJLL4WTTz45/Nd//VcYM2ZMoJafmwSKTIAC3pROuOeee0KHDh1ivVcyLUs3xWUpDX9vjoDisjlC3i8BCUhAAhKQgATSI6C4TI9llltSXGY5OvZNAikReOGFF8Lxxx8f1l133XDVVVfFabHITDcJFJnA559/HiZPnhw22WSTwEI8Dz30UKCcQummuCyl4e/NEVBcNkfI+yUgAQlIQAISkEB6BBSX6bHMckuKyyxHx75JIAUCzz33XDjqqKMCK6ixOvK7774blJYpgLWJuibwwQcfhLvuuitsvPHGoU+fPuG+++4LH3300TfGpLj8BhJvaIJAQ3H56aefhmuuuSbcfPPN4Y033oiPpDTBAw88EA488MAwfvz4hdnv1FmdNGlSLOfx6quvxmzgcqciS/jpp5+Or+ePP/54QMC7SUACEpCABCQggSISUFwWI+qKy2LE2VEWlADScsCAAXEKLAvxvPnmmwUl4bAl8DUByiQgkrbeeutw0EEHRWmJyCy3KS7LUfG2xgg0FJeffPJJrCd8xhlnRNnI4/jyaOzYseHPf/5zXCiNMh7ISBZKu+KKK0L//v3D//t//6/RL5g4luzgY489Ntx9991xEanG+uPtEpCABCQgAQlIIM8EFJd5ju7XY1Ncfs3C3ySQGwJ8sGX18KOPPjp069YtnHPOOa4enpvoOpDWEJg7d25cPXzPPfeMQn/q1KllMy2TcyguExL+rIRAQ3HJomjUUD3hhBPCvffeGyUjonLkyJHhf//3f2PW5cMPPxw+/vjjwBdNiMsLL7wwlixAcN54443hzDPPDBdccEF8PCK0VFxy7OWXXx7OPvvscOutt8Z2qN1aupFhz3U/ceLEcPrpp4dhw4bFxajmzJkTD6OPL7/8cuCNP/ddeeWVYebMmfE8ZCHTbzJDuf+GG26Imcr3339/oC+ci58c89RTTwWySen3HXfcEduiPcafZPrz5RkLYTEu+sLzr7EvDUrH4O8SkIAEJCABCUigHAHFZTkq+btNcZm/mDoiCUQRc9ppp4Vll1027LjjjvFD7d///vfgLoOiXwMIoEMOOSTsuuuugYV4kDZNbYrLpuh4X0MCDcUlkpFp38cdd1zM8mU6ONO7TznllCjwevXqFW677bbwzjvvxOnjiEimiyMAkXuHH354XOm+S5cuMcPykUceiVKTjMuePXsGHs/13Llz53DYYYeF5P7SfiEGmZrO/RxH2RCkKUIRYUr/zj///LDDDjuE7bbbLuyxxx6BDH0E61tvvRUGDhwY9t5777DLLruEoUOHxkXeBg8eHF577bUoLl955ZUoZq+77rowe/bsWDe2b9++sb2tttoqnpeyDIwdSbv//vuHfffdN/blpptuilK1tL/+LgEJlCdAVjavD0X/O57l8fMlD6/DbhKQQO0IKC5rx7otz6S4bEv6nlsCVSJAdssqq6wS9zXWWCO4y8Br4J/XwAorrBAFzKOPPlrRs09xWREmD/oXgYbiMslI5E0108ORgdRTRVw+88wz8UslbidDnmxGMhSnTZsWZs2aFcXe9ddfH6eNk5k4aNCgKBHff//98OCDD4YNN9wwIAhnzJgRszX5sgrJSCmE0qxLZCL1jU866aTAYxGZtDthwoQoH8mA3GmnnQLPCeTimDFjYl1kMi/JyuS8SM8nnngiZleS2fm3v/0tTJkyJU5nR4AiMpm2zgf24cOHR8FJJibnphzDySefHKfKIy4RrYyTfrpJQAKVE+DLARZZ9O95dt/Trb322nGmU+VR9UgJSKC1BBSXrSVYH49XXNZHnOylBFpEgPpoP/7xj+M0vBY90IMlkHMCCJeuXbtWPErFZcWoPDCEWH6AaeENt4svvjhmMZItRX1Val4iEBGQ/M5Ua4QhU77JZOQ4suWRgchEbrv66qvDEUccEbMgyaDcb7/9YuYV07nnz58fMygpgfDCCy8skkmMPLzkkkuiuHz77bejfCTTGLnJfWRbslAQUpVMT6Z8U16EDwLcf+KJJ8YducrGuXkecQwLA40YMSJOfedxTEenrjJiFHHJzthpi8chLnv37h2no9NnNwlIoHIC5557bmjfvn3lD/DImhMgGxSx7CYBCdSOgOKydqzb8kyKy7ak77klUCUCissqgbXZuieguKz7EGZ6AA0zLpPOIuwoU0AWIxmL48aNi9KPrMtTTz01TgunVuXo0aNjhiXHLLPMMuGnP/1pLPnxi1/8Iiy33HIxC5PHkLVJDeM777wzTh1vSlwiF5GSTFdfaaWVYntkXzLFGzFJNuQPf/jDwDkoL/Lzn/88rLnmmvF46m4iLi+66KKFq6JTD5O+Hn/88bGNQw89NNbApH4l4pLp5v/1X/8V26K9n/zkJ7HfZHbCoV+/fnE6OdPU3SQggcoJKC4rZ9VWRyou24q85y0yAcVlMaKvuCxGnB1lwQgoLgsWcIdbMQHFZcWoPHAxCDQmLplyzcI7Q4YMiYvvUKOSRXOYLk09ycsuuyxcc8014fbbb4/Tucm4JDOYbEUWuqFG5D/+8Y84XRtJSabmwQcfHKgRiQCkRia/U4fy+eefXyTjkmEsWLAgZmJOnjw5SkZk6VVXXRWnh5NxSc1JarNxHnYW3yFzk5p6iEsyNhGTbEw3R6wy5Zv+kmHJFHH6hbhETCJpk7b4OX369JgpirikviYZpmRjuklAApUTUFxWzqqtjlRcthV5z1tkAorLYkRfcVmMODvKghFQXBYs4A63YgKKy4pReeBiEGhMXDIFm2xLpnrzBpsFcZiqTTYk2YtMF6d+Hat5I/SYdr3XXnvFhXuSqeJMMefYpMYlU0ZZmRspyjTus846K07DZkEdpGiyvfHGG3EhIOpkIjBpD1lK3ctnn302Cs8ePXrEmpuffvpplIxM9UY4MkW9obikz9TDRJx27NgxZmyS0cntCFmkKG1zLsbNuFhoCKGquEyi4k8JtJyA4rLlzGr9CMVlrYl7PgmE+L6KxQAr3VikkHrcbvVFQHFZX/GytxKoiIDisiJMHlRAAorLAga9hkNuTFwi9choPPLII6M0pL5lspG1yLRrsi557WYl8rlz50YRycI4ZGkee+yxMbORDMwk45LsSrIbqYuJXORY2mqYyUjWJNmcRx11VFw0h+NYHIj6mUhQZCl1OcmEZJEd2qQ97i+XcUm/mWLOAjtML6f2JgvCsSFNmQbfv3//2BbtsjjPpZdeGqerKy6TqPtTAi0noLhsObNaP0JxWWvink8CisuiXAOKy6JE2nEWioDislDhdrAtIFBv4pLMOUQUwgdZVCqlWGCFOoXUPERmcT8rPLNKdcOd25muS9Zdw/v4P/UHn3zyyZghh8hixenS4/g/fSAjL1mxmmw6MgfJ9mOqMnUXee1B0iUbx9A/+sbCMExVLm239HfOy2rajR2DSONctMO0aVbhLn08GYKcJ9ng8/TTT8dpzRyHOCQjkKnVpRmJyfFp/GxMXNI24yOT8bbbbltkKjfZikzFZvp1UveR/pEpSfZi9+7dw9577x2FJ2IQsUntSTI4qT1JrcsDDjggXHvttTHLMYlPMh44MO0bidilS5e4gjiSlLbYuKa4NsjwZHVxalYSb/qSrDIOW2RqsnG9EW8ySGFcel2SpTly5MjYFu2deeaZMa70m/gyVliQkekmAQlUTkBxWTmrtjpScdlW5D1vkQk4VbwY0VdcFiPOjrJgBMqJSz4Is/osCyuQ7cOHyGTjAyQfShEC1fpAn5yr3E/6w3RHPiQv7vkZD5IEkVMqV8qdz9uKS6DexCUSkOfG7rvvHjPykFnJxvOFqcMstIIIItON41ZdddWw/PLLh6WWWir+5P/ILxZhIatu9dVXD6usskr4j//4j7iAysorrxy23HLLcNppp8WsOLLtWMRlxRVXjMdy/IYbbhhXnkZCJsKJc1InkWw6JNbWW28dxWlpNiHCjP7RT1aV3mOPPWKbK6ywQvjZz34WF4KhfXY+lNMWK2OvttpqoV27dnEMLErDGHbbbbeYOYhEY5o0bXB78vhtt9021o/kdQ5u9I9Mxs033zwe8/vf/z4wJRp5SR8X97Um4V/uZ0NxST8Qe0hh928y4O9O6d+icky9TQIS+CcBxWX2rwTFZfZjZA/zR0Bxmb+YlhuR4rIcFW+TQJ0TKCcukXmIAzJgWOyBjJlkI4uJzB2mD/Khv9ZbMlVyzJgxUTouzvkZz5QpU8I+++wTs3rIMnKTQEMCeRWX1A9MNqQcWYvUH2QRFIR+6YYoIkMSQUj2G9OBk40pv4hLdrL6kg1hyrFMM+YLDrL6yBCkliEisBJxiWhNNhZz4RzUdizN0Ezu53WIBWj+8pe/xFqLyesVmX08zzt37hynMidj4/lORiYrZ7OwDNmE+++/f5Sm1Itko9/0lzbJPOU1Me2tobiE5//8z/+E733ve+5lGCQ1O9OOg+1JII8EFJfZj6riMvsxsof5I6C4zF9My41IcVmOirdJoM4JFFFckj2FiEDIIDEaTpes85Da/ZQIKC5DzHBrqbhEwDF9mAVZyNpGIDJVGxFIRmFbi0ue78hQskqZjk22JdmViLFkSjSvDzNmzAg77LBD7DsM0t4aikskMVOnyQR3/yYDxHM1Ml/TjqvtSSALBBSXWYhC031QXDbNx3slUA0CistqUM1em4rL7MXEHkmg1QRaKy6ZCoqkoG4a0yyZokk2UzJFlLp21F7jPjI4+YPBlD/EACvfDh06NBxyyCFxWiiioGH2I5lX1NTbYostYu02Fo3o3bt3IOOSump80Cf7k6mnnOOCCy4Ib775ZhQmTE298847F9ZUQ5ogUDgvddpYyIL+kcWFbGFRim7dugVWkBsxYkSswccHZc5B7TXa32677eJ9bTVVvtUBt4GKCSguF09cIit5/hxzzDFx6jrT15GCLMzC720tLhGpvGYddthhcbo6r4G8rjClHJnJawLPe15fnnjiiSgzk9ezii+eCg5sKC4reIiHSEACEqiIgOKyIkxtepDisk3xe/KCElBcFiPwistixNlRFoxAa8UlApA/AnzgP+ecc6JEpE4dmUvIPaaMssot9yMwycJiYQimnDLlHGlJbTmkIVKjtIYZ01gRj7169Yqr5FLTjsUlWHkWccm0dRadYPVdzk07yIgrrrgi1ohjUQmmmJIthXhAWp511llx2ioLdlDLjymurJaLyEC28Gaf8dAm0+STczAGJCu1/ZC0SNEkO6tgl0xhhlvP4hLBTg3L/fbbL+4spoL8R9ClPVX8T3/6U+jatevCcx144IELp2Ej/x599NFYc5PnMs81pm9vvPHGYeedd45fRiR95EuDP//5z7F2ZZpTxZkGz5cRlIbgXPzkdej888+Pz2G+LKGPPP9Z2CYZC1+Q8GVK6WIyaV78iss0adqWBPJN4L333gvDhw+P75mS18ymfvJFDHV9mzqm9D4W5KKUh1vtCCgua8faM0kgIaC4TEjk+6fiMt/xdXQFJdBacUk25Omnnx6zLMlcREjeeOONMauS6ZgIP1aNRR5yH3JgwIABUQhwO1lZEydOLEufzEnkY8+ePaNsQYIgLHk84pDafH369InZXEwjJFOKunqI08ceeywKSuQki4QgRZGS7GRelopL5CT18+gPmZcIU6QlKyMjWQYOHBjFKKyQlRyLAKIdpy6WDV0ubqxncUldRwR/v3794o7Qp14j4j9tcdmhQ4f4HE3ONXjw4Pic5ssCpmXzpQBfMJC9yPOU59Qmm2wSvzg4/PDDF/aRD9FIRr6gSFNcko2NFC09F68Dzz777CLXKc9tskIZB9KSupd84cJxtahxuUhn/I8EJCCBEgKzZ8+Oi6DxxVDyWtvUT95b8X6oqWNK79t0003jjJWSU/prlQkoLqsM2OYlUIaA4rIMlBzepLjMYVAdkgRaKy4RhGQunXfeeWHs2LFR+CH/EHosyMGb7P79+0fhiGxEBpHVxDf7PG7YsGGNfsvPKsMXX3xxfPONtESCID+YGo7cQJDusssuMRMSoUkmJ9mZvGFn0Q0WGELgIEpYYINsSQQKgqJUXHIsggJp0VBQTJo0KbaJIKV9jmGKOVlbjKEaU0i9KrNBoJ7FJcK/sVXF0xaXDRfnKY0ez4/Ro0fH5z9fLCAu23qqeGn/eJ3i9WrWrFkxGzS5jyxLVvbedddd4+sY2U5pb2Zcpk3U9iSQXwK8H1pyySXjF7HVGCWlfHg/5lY7ArBkaYoAACAASURBVIrL2rH2TBJICCguExL5/qm4zHd8HV1BCTQmLhF9Xbp0+caq4kgPhGPpquLIPRa3WG211cKWW24Za0iysi+ZlNtuu21Ybrnlwuqrrx73tdZaa6H0S6ZlkxFZbiOjkT8wZA2UE5c33XRTnP664oorLmyf8zANFKn40ksvhSOOOCIKTqaP0xZZmvStVFyyUjnnaExc8ob+N7/5zcJzrLHGGnGVZc7RUHSWG4e31ScBxeXi1bgsjTaZzmRZU1eW1b+zJi4Rq0wTpwwEGdZJjV1+8vqx7777hnHjxsV6t6XjSuN3xWUaFG1DAsUgoLjMX5wVl/mLqSPKPgHFZfZjlEYPFZdpULQNCWSMQDlxyZRvpCHTS5F61KUj25GdmpZMnaZeJSKCmpTsZC4h8ZAAZFSSiUlGJDWZqG2XPJ62kQKISGpc8gekMXFJhhYZkpwP4cE5pk2bFrMCyLhEjDKlk1WBaZNz0D47x5IlhbBEQNEGGZPIiIbikr4yHjJCGUNpO0hZxAvZow3HwDm4zS2fBBSXrReXlIug/uyDDz4YL5KsiUuew2Rc8mUHC3shB3gNoD4vwpJanDz3eQ1Me1Ncpk3U9iSQXwKKy/zFVnGZv5g6ouwTUFxmP0Zp9FBxmQZF25BAxgiUE5fIuFdeeSUusNG3b9+4gA1ykg/4CEOmX99zzz1xmjSL6rBiMItY8IH/8ccfD4ceemhc1AaheNxxx8UFcci8YqceJnX2mPKNKGhKXFJrcvz48TGbk2wohCOre7OgDxISKUJBeWpOch81NMmcRDgx9RM5ikilxh0708k5rqG45Fgeh7xkei31OGmTnXHSHtPMuQ8GiEymoz/11FNRkmYspHYnJQKKy9aLSzItmbbO6wNb1sQlr3W8tvGFBl9ubLjhhuGXv/xlrCXHAkd86cIXIAjOtDfFZdpEbU8C+SWguMxfbBWX+YupI8o+AcVl9mOURg8Vl2lQtA0JZIxAOXFJF6nxhnhE6PEBfvPNNw8Ub2elYmpZsngGH+ZZlZv6kEyn5phOnTrFTEukI+KQqdlkbrIYB4t4sFjO3XffHetMshhOU+ISocCbdWTneuutFzbbbLO4KA7SkBXCEYz33ntvrEG51VZbxewoVvxmwSAECZmX1LOkziayk2Nps6G45P/ch6QlwwrJSSYnshRRyX1MOec+psJT945M1Llz55pxmbHrOc3u1Ju4RMIx9RmhzsJWfJGQbDwXuA1Bx/My2Xg+IOb4woGf/L90o02ymRGPiPvSNrmdha3Yyb4ut/H6wnl5PrLRPq8dnI/nD/1KNvpF/zi+9HayHTkHX6bQn4Zb0ibZ2KVt8vrEmPiShNsbjq20Hc7Haw31N5GVfGHBlx68NlRDWnJuxWVpBPxdAhJoioDisik69Xmf4rI+42av65uA4rK+41dp7xWXlZLyOAnUEYHGxCVD4MM8MoCMSupasrNCMMIw2RAZfMBnmjX3k4FJZmUiCRAHSADuY6GdZNol0gMxygIYHNPYhkBlKnlyfhbS4XwIDvqHBKF9pp1zDL8zJrZE5DBNlXqUTP9kQ+4gYRAUPD4RHyziQxssJkINTGQL0oJjkJfcx3nIImtOhMQT+U9dE6g3cVnXsAvYecVlAYPukCWwmAQUl4sJLsMPU1xmODh2LbcEFJe5De0iA1NcLoLD/0ggHwTKiUsytlh8x71pBmSTIjDd8klAcZnPuGZlVIrLrETCfkgg+wQUl9mPUUt7qLhsKTGPl0DrCSguW8+wHlpQXNZDlOyjBFpIoJy4ZCr3jjvu6N4MAzJRqavplk8Cist8xjUro1JcZiUS9kMC2SeguMx+jFraQ8VlS4l5vARaT0Bx2XqG9dCC4rIeomQfJdBCAuXEZQub8HAJ5JKA4jKXYc3MoBSXmQmFHZFA5gkoLjMfohZ3UHHZYmQ+QAKtJqC4bDXCumgg1+KSWnjUuaPuHvXvqNtXunM79fSod1ducYC6iKCdlEAZAorLMlC8SQIhxNXku3btWjELFq8aNWpUxcd7YLEJKC6LHX9HL4GWEEBcfvvb346LjZV+Pknrd2bZUB7IrXYEFJe1Y+2ZJJAQUFwmJPL9M9fi8tVXX40rJbNycMeOHcNqq60WfvOb34QVV1wxriS85557hjPPPDOuhJosOpLvcDu6ohBQXBYl0o6zpQTMuGwpMY9vCQHFZUtoeawEik3gtddei59Hll9++fCrX/2q2X3VVVcN6667brPHJW2ts846cSHGYlOu7egVl7Xl7dkkAAHFZTGug1yKy1deeSVceOGFoWfPnmGfffYJQ4YMCZdddllcOfn2228Pt9xySxgzZky8yJGanTp1CgMGDAisUvzBBx8UI/KOMtcEFJe5Dq+DawUBxWUr4PnQZgkoLptF5AESkMC/CJBZ+eijj4a77rorTJo0qdm9b9++YcMNN2z2uKStBx54ILz55pt1y3vOnDnhyiuvDHx2++ijj+piHM2JS2I+c+bM+Bn1iSeeqIsx2UkJZJ2A4jLrEUqnf7kSl0wHf+ihh8JBBx0U9xEjRoSJEyeGJ598Mrz11ltxmjjTwpkePm/evPDiiy+Ge++9N34bibjkA8fo0aMDmZpuEqhnAorLeo6efa8mAcVlNenatuLSa0ACEqgWgXPPPTe0b9++Ws1nrt2XX355YfLJ/PnzM9e/ch1qTFy+//774c4774yfT3feeefwk5/8JLBoppsEJNB6AorL1jOshxZyIy4//PDDmDF54IEHht133z0KSDIvK9kQnvfdd1847LDDwt577x3rmTF9w00C9UpAcVmvkbPf1SaguKw24WK3r7gsdvwdvQSomU8W5bXXXhszI+fOnZtaHf16FpeU5Hr22Wdjgsnbb78dmXz88cdh8uTJ4ZlnngnvvvtumDFjRrjuuusW7syEO/HEE+OsOcQfx5CQcvrpp4dTTz01ZmLSVpa2huKS+E+YMCGOg5qj3/nOd8ISSywRfvCDH4R77rknS123LxKoWwKKy7oNXYs6ngtxiXicPn16OOSQQ8JOO+0Up1wszjdzL730Ujj++OPDXnvtFcWn08ZbdC15cIYIKC4zFAy7kikCistMhSN3nVFc5i6kDkgCLSLAzK6LL744bLXVVmG77bYLF110UXjkkUfCO++8E2d8taixBgfXs7jks9r1118fhg0bFj+zwQkR2b9//ygqkZeXXHJJ2HrrrWMiyQknnBDF76BBg6K4fOONN2KSyaGHHhrIWPzLX/4SH8vMOWbSZWVDXFKLlHjfdttt4bzzzgt//OMf4yJMCEv2JZdcMpYpY0YgQpf+V7KzqGxzO5wrWdzpk08+Cc3tiOXmdqbwN7eTXFTJzufu0p3+uUmgEgKKy0oo1f8xuRCXZEeeddZZcfEdvp3jRXZxN6Yl9OnTJ/5BYdq5mwTqkYDish6jZp9rQUBxWQvKxT2H4rK4sXfkEkgIINN4Lfjud78bfvzjHwcy7ajV+PTTT4f33ntvsUVb3sXlyJEj4+evhx9+ODIqnSpOPUgkMKukI8pIULnmmmtiBiZSLCsb4pLFkS699NKw7LLLRkmZCMvkJ1mXN998c8zMJTuX8U6dOrXJnc+k999/f7M7196UKVOa3P/xj3/ETFeyXRvbyQZlantz+x133BEzX6lD2tiOwGV9ieZ2mJTu1gDNylWd/X4oLrMfozR6WPfikikZt956a5wePmrUqPhNVGvBUMyampcUweYbQc7hJoF6IqC4rKdo2ddaElBc1pL2P8/F31CyRMgEyfverVu3cOyxx+Z+nHmPYz2Or7lMrHq+v5JstCwdw/Vz9tlnx+nA3/rWt8L3vve9KDG33HLLmFVIwgX9bemWd3HJQqr7779/mDVrVsxELBWXZCeSyYq4RP7CGIZZ+4yGuERQfvvb344/E1nZ8Cfy0r1xBmSl7rvvvi19inh8QQkoLosR+LoXlyykM3z48CguSS9P4w8YKfZ8i8c3pI8//vhivbkoxuXjKLNKQHGZ1cjYr7YmoLisfQSoQUb20corrxwzUchGyetO3bIf/ehHuR1fHuLGtM0//elP4de//nXcf/Ob34Tlllsu7ssvv3xo165dWGGFFcJvf/vbuK+44ophpZVWitcv1/Aqq6wSd6aDrrbaanFfffXVwxprrBHWXHPNuK+11lph7bXXjvs666wTfve734V11103rLfeegv39ddfP/z+97+P+wYbbBBXi/7DH/4QNtpoo7hvvPHGYZNNNon7pptuGqeb0vfNNtss7oxh8803D3/+85/jvsUWW8SFW5Bj7B06dIjTlTt27Bin3zIFl32bbbYJ2267bdyZbst05u233z7uO+ywQ3zvS9kldqbk7rLLLnHv1KlTzIbr3Llz6NKlS+jatWvcd91114Cw32233eLOc51a8927d1+477HHHmHPPfeMO+WYqCe/zz77hB49esS9Z8+eUVLst99+gR15dcABB8Sd2vXsLLx58MEHx53SUL169QpMG2anRv3hhx8eevfuHWdNMXOKnQSEI444Iu79+vUL//u//xunF5OcwH7kkUeGo446Ku5HH310OOaYY+IXD3z5wH7cccfFElJMW2YfOHBgYOoydRfZ+XsyePDguIDMSSedFJJ96NChcRxcH2RdJtJq6aWXDj//+c9jzHlcS7e8i0s+ezF1nPewJI6UiktqRT7//POBOPGc5LXotNNOC1lbkwBxyevJjTfeGPuIgEvin/xEWJI9OXv2bPdGGPD8V1y29BWiuMcrLosR+7oXl3fddVd8o0Gh5jQ3si55A8TK5NbYSJOsbdWCgOKyFpQ9Rz0SUFzWPmoslPezn/0sZhpNmjQp1i3L60/kEYImr+PLw7hYjJG94RRHpjOyM4sn2RtObWRhEPZkOiOLbrCPHz9+4T5u3LhQut90000h2ZEZ7DfccEPcx44dG9iRHQ136gGyly5WMmbMmLjoCwu/sCN6Sverr746sF911VULd6Yos19xxRVxv/zyy0PpTpZbsjO9lZ1ag8k+evToWPedbLfSnVlO7EzfTXam+rJfeOGFC/cLLrggJPv5558fkp3af+zIuGQ/55xzAjvZiqU7H0rZKQuV7GeeeWZgP+OMM+LO+/Vk5zNB6U6CAzuii52FXZKdDD52ai+W7ieffHJIdkQkeyImhwwZEmUlPxGQpTt/Y9gRsIjs0sw7fkdaId0QqS3d8iQuqe3I2gJIaa5XalxyTSOTqX3ZUFwyNZzEErIx+ezHc4p48ZygnmRWNp7HCOt58+YFpm3z3OLvQul1gMzkSwOySN3KE+BLBsVleTbe+k0CistvMsnjLXUvLnlDhWC8++67U40Pf0x588Q3xy7SkypaG6sBAcVlDSB7irokoLisfdjImuHDOivG5n3jPQOZWW7ZJsDsnGRHkCQ7MqXhYhkNp1iXTiMvXQSjdKGLhgtalC5eUbpIRelCFIiZ0p1VlJMdCcLOFNlkJwOtdEf2JDsiJ9l5P5DsZD+X7m+99VZI9jlz5oRkf/PNN0OysyhKsr/++uuhdCfbjZ3ZT8nOFxXJ3jCjjNeCZOd9drK/+OKLIdlfeOGFULqTZZfsSKtkf+6550Kys1p1siPASveZM2cGdupLJjuvRcn+1FNPhWRHJJXu1NhLdhYBTfZp06aFZGdmVun+2GOPxZWzWezzpz/9aWCqONIKWUVWLkITYUvGXUu3PIhLMiYR+zyPqJ9IRi+f5ZoTl9zPFwosdMRzkucDsgLRznWflQ1xSZyTjX7yJQnCnCxl/haSefn9738/9c+uyTnz8FNxmYco1m4MisvasW7LM9W9uOTbNr6t401SmhtvFvlWnGk9/O7WOgK8qeANSvINNz+RzbwBd0ufgOIyfaa2mA8Cisvax1FxWXvmnlECEmg7AohQprUjLKlvSakAMrERj0jOxU2IqGdxST1KFlDlbzClABB5ZN9SgoAM4ObEJfKZzEym85MhSzt8lmBxGb5AyMrWUFwm/eJLCRbFQchRSuG///u/FZcJnDI/FZdloHhTowQUl42iydUddS8uqUFDKnna07n5A4tYYzqHcq111zzSkm8bqTXE1AhqKFF7ibpD3M4fc7d0CSgu0+Vpa/khoLisfSwVl7Vn7hklIIG2I8C0fOqMMmWYOqFMeydrtKFg47ML04kpNZCUEWjqJ7U9qYva1DGl95EwQCZsVjYSQciapH4h2YdM80Y4wIDMXVbDJoOSzwVkQZMNzDFMDeexZNXyuY8sTT5LwJkM4ixtjYnLpI9kmpIpTG3WIsxCSMbd0p+Ky5YSK/bxistixL/uxSW1UCjuzR+4NDemEPEHlLpcisvFJwtH3pBQ/JxaQLxJI1ZMQaLIOTLz0UcfjSfgWCQn04D4Y86bLY5nSgjTlPg/b1p4LG/+mIrFbcl0H2Qdx7JxDqZjMd2IqUH8JI7czjQwvu3msUmbtMsUqeTxiz/ibDxScZmNONiL7BFQXNY+JorL2jP3jBKQQNsRoM4okhFhiXzj/W25DVm34YYbBhZ3YrGn5nYWdGKBpuaOS+4n0xMR6FY7As2Jy9r1pL7PpLis7/jVuveKy1oTb5vz1b24pIYM9WIWd9pFY9j5Rowi9KwwqbhsjFLzt8OR4vaISwrQIw2TN3DcTkFzCstzG1muFF1nxU5qwPBtLDWE+NDLt7PUDiMDlkxNppQ8/PDD8TZWbGQ6DmUDKBlAW3xbS8Ysb/KWWmqp+JM3b3xjS00oiuuzEiarYLKiaFIonXPlYVNc5iGKjqEaBBSX1aDadJuKy6b5eK8EJFBMAnypTu1L3tNWY2NleN4bu9WOgOIyHdaKy3Q4FqUVxWUxIl334pLVBPlWM+0/+ogfvjHdbLPNrHHZiucCEpHC5sjGlVdeOYpJClWzkTGJFCYzEtGI2GQFR1b7pPg2xcupY0OhdMQl8pMsWLIykZZJvUyKuzPNZu+99471csiiJMuTEgJMmeHaoI4O2bmszsm336zUufTSS8fVLymkzkJMZH8yJSUPm+IyD1F0DNUgoLisBtWm21RcNs3HeyUggWISUFzmL+6Ky3RiqrhMh2NRWlFcFiPSdS8uEU39+vWL0ivNkFEEGonWq1evKNbSbLtobSEmmc7NqoFkUW611Vahffv2scA2ApIsTFapHDBgQBSHiEUyNbmNaeO8sUNc8qJERiXC84YbboiryZMVixxF1J144olRdtImWZwUv0ZqMv0b+Uk8EZi0cdNNN4UNNtggSlL6R8FsCoVTIDwPm+IyD1F0DNUgoLisBtWm21RcNs3HeyUggWISUFzmL+6Ky3RiqrhMh2NRWlFcFiPSdS8uqY9IrUSkV5obQmyvvfYK1157bZRoabZdxLaQk++8807MjBw5cmSUkCeccEIUjay+SFZk586dw4QJE+JU7oQRj5s9e3YUl2RLUoQb0XjllVeGbbbZJhboRmqSXbnxxhvH1fpuu+22mEG54oorxhiyemH37t3DtttuGwYNGhTPxVRxxCa1LRGbZHiyWqPiMiHvTwnkk4DisvZxVVzWnrlnlIAEsk9AcZn9GLW0h4rLlhIrf7zisjwXby1PQHFZnkvebq17ccm04VGjRkUJxZRkRFdrNzL9mDq8xx57RGmWRput7VO9Pp7MSbImEYOlK79TzxJJyVRwsicRiGRjNiUukY3Up0RcklHZqVOn0LNnzzjFm2ne7AjNhx56KFx44YUxo5JV+/r06RPvQ1qOGzcuZmGyquGBBx4Yfye+ist6vcLstwRaRkBx2TJeaRytuEyDom1IQAJ5I6C4zFtEQ1BcphNTxWU6HIvSiuKyGJGue3FJmB588MFw+OGHRznFitNIscXdWOTnqquuCgcddFDMClzcdnzcPwkgK1mEh3qUTNdONrIcuZ2i4WRSsrIiMaSuKKt7s2o407xZnIdp+2RVJuKSNm+++eZw3HHHhfvvvz9OFUdmUqsSAcqHZGpb0h4SmuuBqdOcH4lK1qbiMomEPyVQLAKKy9rHW3FZe+aeUQISyD4BxWX2Y9TSHiouW0qs/PGKy/JcvLU8AcVleS55uzUX4pIFXpjSzWrUV1xxRVhceYkQY1EXFnlh58OWW+sJIB9ZROn000+PtS6pd0lWJCuKsyo8vxPDs88+O077Z5o+NSeHDx8e70dOlopLejR9+vTYHuKTqeZMDyf7kvMgJ3kMGZXUQEVokolJLVQyMVm8pylxSQYmcpM+IVjrcbPGZT1GzT7XgoDishaUFz2H4nJRHv5PAhKQAAQUl/m7DhSX6cRUcZkOx6K0orgsRqRzIS4JFVl6TO9u165drFPIAi9ffvllRVFkcRdkFYKrS5cuYZ999okCs6IHe1BFBMiE7N27d/j2t7+9cO/Ro0ecok0DxIqsSbIol19++XhMt27dYpYkNS7JgCVDk6nibGRREi/qVH7nO9+Jx/fv3z9mZ3I/bSE/119//bDUUksF6l2OGDEiXicISUQnq9GT1UnsqZXKwj2Ib+4/6aSTwsUXXxwX8oknrLN/FJd1FjC7WzMCisuaoV54IsXlQhT+IgEJSGAhAcXlQhS5+UVxmU4oFZfpcCxKK4rLYkQ6N+IS+YSsJGtv7bXXjnUNycqrZGOVahZlWW+99QILuUyZMmWReoyVtOExTRMgc5HFeRCFyY5cY0o4G/IYeYmYZNVvjklWF0dS8tiPPvpoYQ1TjuexZEYm7VHvNMmQpC0yaJkqzodmsiznzZsXH899xJw2aTtp6/333w+UCqBdpOj48ePDG2+80fTAMnqv4jKjgbFbbU5AcVn7ECgua8/cM0pAAtknoLjMfoxa2kPFZUuJlT9ecVmei7eWJ6C4LM8lb7fmRlwSGOQl08Spk0h235577hmOPvrouPgLq1YjpTgGMUVNRQQlopPVw1mI57TTTgsPP/xwmD9/ft7i7HhaQACpyXT1qVOnxuzLFjw0M4cqLjMTCjuSMQKKy9oHRHFZe+aeUQISyD4BxWX2Y9TSHiouW0qs/PGKy/JcvLU8AcVleS55uzVX4jIJDlN9H3jggVjPkBqKvPgddthh4eCDD451D5l23KtXr7iYD2Jz6NChcbVpPlwlGYBJW/4sHgGyMMniJCOTVdHrcatncUlZAZ6T1Ch1zyaDPn36xNIK9fj8UFzW/hVNcVl75p5RAhLIPgFmGFGfn0SLSt7vkJRBWaRKjuWYjTfeOH4Wyj6J/PRQcZlOLBWX6XAsSiuKy2JEOpfiMgkdU4cfeeSRmIFJNiWScplllgk77bRTXBhm5MiR4fbbbw/UUGT6sJsE8kKgnsUlq8f/7ne/i18s9O3b158ZZECW+oYbbhiz2OvtOaO4rH3EFJe1Z+4ZJSCB7BOghNG5554bBgwYUNF7nW233TasvvrqFR3L+6dTTjkllj7KPon89FBxmU4sFZfpcCxKK4rLYkQ61+KyXAjXWWeduAJ5ufu8TQJ5IVDP4vK6664La621Vl5CkctxsPAVXwLVY1kNxWXtL0nFZe2Ze0YJSCB/BJCc7du3z9/AcjQixWU6wVRcpsOxKK0oLosRacVlMeJck1GyyA1TR1nQJqknmsaJk8VzqF/KAj1tkR3L9HG+Gac2arKgTxpjq1YbistqkbVdCCguvQ5aQkBx2RJaHisBCUigPAHFZXkuWbpVcZlONBSX6XAsSiuKy2JEWnFZjDjXZJQsfERtSOrq3HrrraktbIMMZXElapROnjw5rghekwGVnARpysrzu+22W1wACnmZ5U1xmeXo1H/fFJf1H8NajkBxWUvanksCEsgrAcVl9iOruEwnRorLdDgWpRXFZTEirbgsRpxrMkrFZU0wV3QSxWVFmDxoMQkoLhcTXEEfprgsaOAdtgQkkCoBxWWqOKvSmOIyHayKy3Q4FqUVxWUxIq24LEacazLKcuLy9ddfj5mKLI7E75988kkYNWpUzFzccsstA/Xm+FD7/vvvx+Nuu+22uJo3HWa1xUmTJoV77rlnYcblGWecEQ4//PDQqVOnMGzYsDgtnankbLRDe7RLZiTn4XxMLWeKOW8mevbsGe9ngabLLrssTv9G8l199dWxOPqRRx4ZV7SeO3dunBY+fPjw0Llz57DvvvuGE044wYzLGlxJ1risAeRWnkJx2UqABXu44rJgAXe4EpBAVQgoLquCNdVGFZfp4FRcpsOxKK0oLosR6cyJyw8//DA8+uijVdtXXnnlcPLJJ1etfaZKF3VrKC5nzJgRZeF5550XV29HXN54443h+OOPDwjBE088MfTu3TsgI1988cVwzTXXhCFDhoSZM2fGWpkPPvhguOCCC8J9990XxWWXLl3iSoojRoyIcvG4446LspOp5G+//XZsh/YQjLTD75wPCcnU9VNPPTU+jvMdc8wxgZWRp0+fHp5//vn4mO7du8fzsdI87Z199tkBkXnSSSeF008/PZ7bqeLVv7oVl9Vn3NozKC5bS7BYj1dcFivejlYCEqgOAcVldbim2ariMh2aist0OBalFcVlMSKdOXE5Z86ccM4554TBgwdXZf/FL34Rdt1116q0jdwiQ7CoW6m4JINx5MiR4aKLLgoPPfRQ+PTTT2NGJPUvEZkscvPWW2+FCy+8MGZQPv744+Gpp54K/KGaOnVqzLqcOHFivBZeffXVKC7JkkQ6P/vsszF7k3P07ds3cM088cQTsR3aox4lMvKUU06J9TZnzZoV7r777nDnnXeG2bNnxxqZjz32WKA9amZSP3PgwIHx3M8991xcfIdzHnDAAWH06NGxr7Rx5plnhr333tsal1W+wBWXVQacQvOKyxQgFqgJxWWBgu1QJSCBqhFQXFYNbWoNKy7TQam4TIdjUVpRXBYj0pkTl++8806cwougGjp0aOo74pKsuWq0zRuK+++/vxhXTplRJuIS4UfG4yGHHBKQUO+++27MoEQuduzYMUrCq666KowdOzb+ftBBB8VVilm1G4HI1HCOHTNmTLjyblBZQQAAIABJREFUyivjCuXIRTIkJ0yYEKd3f/zxx/ExPJYMzbvuuitmTd5yyy3xXLTFtPPtt98+tsV19cgjj4Rx48bF85LJyX2JuERyck2wIjoZnJwfyYqI5lzvvfdeoG1uQ4y6OE+ZCyClmxSXKYGsYjOKyyrCzWHTisscBtUhSUACNSeguKw58hafUHHZYmRlH6C4LIvFGxshoLhsBEzObs6cuKw233XWWSdce+211T5NIdsvFZf9+vWLEpKMxSeffDLWmkQGbrPNNoHp+uyrrLJK3HfeeeeYDUmtSjI0EVdkU7KK97333htFIuISaYigpF4lO1mU+++/fxSXN9xwQzj66KOjXEQ8fvDBB2HKlCmha9eucTo4MhTxucIKKyw8/+9///t4Xtomm5Kp4dTaJDuUaep77rlnlJ+Ky9pezorL2vJenLMpLheHWnEfo7gsbuwduQQkkB4BxWV6LKvVkuIyHbKKy3Q4FqUVxWUxIq24LEacazLKRFwiGKkpiaikliXZjSyAQ83Lv/71r7FmJWIRUcnCOTyO39nJiiT7EfGJ9GTKNiISuchjeUNABic7GZvcRsblAw88EAYNGhSYXs7x3E92JaIUgcmUchYIYgp50h6Zt9zXUFx+9tlncTr6oYceGsUmkpQ6mTfffLMZl4txJRFXYkyWaiU7tU7XWmutio5N2uM6cqsdAcVl7Vjn4UyKyzxE0TFIQAJtTSARl8l7H39W9r6ylpyYLbbmmmu29aVS9+dXXNZ9CGs6AMVlTXG32ckUl22GPn8nbigukZUsjnPWWWdFWUktymOPPTaKSRYx4n4yLFklnKxMBBeL4rAgDgvlXHHFFTGzMhGNSEhKCFCHkpqTvIHr379/zJKk7iUrf7PS+AsvvBCl6RFHHBGzMBGTAwYMWCgu6cfFF18cNthgg7IZl0iw+fPnx75yDtqeNm1aXNBn9913d6p4Cy9dMlaR2cjI5ZZbrtn9N7/5TfjlL3/Z7HFJW1tssUW8VlrYLQ9vBQHFZSvgFfChissCBt0hS0ACqRPgy/vf/e53Fb8/St4n+bP5955pMWI2GUkVbq0joLhsHb+iPVpxWYyIKy6LEeeajLKhuKQuJBmTTPlmJXA+vJJ1yYreO+64Y9hss83iH3fuZ4o24pJsx/PPPz/WyGR6NxIxEZcsjMOK4UwPZ2EdVhVnUR/OS1YkGZH77LNP2HjjjcN2220XF9vhfKxUz/Rj3khssskmUYryAtetW7c4tRxpWjpVPMkQZJo6UhVhmpz7sMMOU1y28GpCAlMaAMas2N7cziJK1B5t7rjk/s6dO8droYXd8vBWEFBctgJeAR+quCxg0B2yBCSQOgEWtaSWfvL+x5/Nv6esNSPKWLHYqFvrCCguW8evaI9WXBYj4orLYsS5JqNEMiIgEY6s3k2tSEQk2ZGsLM6COfyfad2XXnppXDF8/PjxcdVuOogwRECeccYZMROTad1siEmmaiOzaIcp4jz+vvvui+fgcWxMD2eKOqvScz/n4XzczyrmnIv7WBiIaez0kw/ULNwzffr0eBuSNNkYCzU1yc7kW+6HH344vmGkj1mfmkw2649//OO4Qnsynrb6ibhcZpll4mJK1ejDfvvtF0sLVKNt2yxPQHFZnou3lieguCzPxVslIAEJSEACEvgmAcXlN5l4S+MEFJeNs8nTPYrLPEWzjseCnEQgMj38xBNPjIviILzcFo+A4nLxuPmoyggoLivj5FH/JKC49EqQgAQkIAEJSKBSAorLSkl5HAQUl8W4DhSXxYhz5kdJZuQrr7wSp/yyOAtTzN0Wn4DicvHZ+cjmCSgum2fkEV8TUFx+zcLfJCABCUhAAhJomoDismk+3rsoAcXlojzy+j/FZV4j67gKTUBxWejwV33wisuqI87VCRSXuQqng5GABCQgAQlUlYDisqp4c9e44jJ3IS07IMVlWSzeKIH6JqC4rO/4Zb33isusRyhb/VNcZise9kYCEpCABCSQZQKKyyxHJ3t9U1xmLybV6JHishpUbVMCbUxAcdnGAcj56RWXOQ9wysNTXKYM1OYkIAEJSEACOSaguMxxcKswNMVlFaBmsEnFZQaDYpck0FoCisvWEvTxTRFQXDZFx/saElBcNiTi/yUgAQlIQAISaIyA4rIxMt5ejoDishyV/N2muMxfTB2RBILi0ougmgQUl9Wkm7+2FZf5i6kjkoAEJCABCVSLgOKyWmTz2a7iMp9xbTgqxWVDIv5fAjkgoLjMQRAzPATFZYaDk8GuKS4zGBS7JAEJSEACEsgoAcVlRgOT0W4pLjMamJS7pbhMGajNSSALBLImLldZZZVw2mmnhfHjxze7T5w4Mdxxxx3NHpe0tcsuu4Tjjz8+C9gL0wfFZWFCncpAFZepYLQRCUig4ATefPPNMHny5IrfHyXvk/zZ/HvPtBjddtttYdq0aQW/Uls/fMVl6xkWqQXFZTGirbjMSZy/+uqr8OWXX4Z58+aFTz/9NCejchjlCBBf4ky8iXu5LUvi8uOPPw69evUK66+/flh55ZWb3VdYYYXwq1/9qtnjkra23nrrcPXVV5fDEG+D04cffhiQJzNnzly4z5o1K7z99tvhs88+a/Sx3lGeQHPiMsuvR3/7299C165dyw+szK2bbrppGDVqVJl7vKlSAorLSkl5nAQkIIHGCVx//fVh3XXXrfj9UfI+yZ/Nv/dMi9Eaa6wRdtttt8aD6D0VEVBcVoTJg/5FQHFZjEtBcVnncUYQsH/xxRdRZl122WXhiSeeqPNR2f2mCDz55JPh0ksvjfEm7sk1UPqYLInL0n5V8vt1110X1lprrUoOregYxCnfgG+yySZhySWXXLgjR48++ujwyiuvNCqAKzpBAQ9qTFwm1yLX5XvvvRcuvvji8PTTT2eKkOKy9uFQXNaeuWeUgATyR+Dcc88N7du3z9/AcjSiv//97wF56dY6AorL1vEr2qMVl8WIuOKyzuP8+eefh5deeikMGTIkyp5f/vKX4aqrrqrzUdn9pghcc801gTivueaaAQnz4osvBq6D0k1x+TWNRFzuuuuuYcyYMVGkvfDCC2HcuHHhpJNOitl0Zil/zauS3xoTl2SvPvfcc2HgwIFh1VVXDcsuu2y48cYbK2myZscoLmuGeuGJFJcLUfiLBCQggcUmoLhcbHQ1e6DiMh3Uist0OBalFcVlMSKtuKzTOC9YsCBMnTo1CoLNN988ML32Bz/4QejUqVO4//7763RUdrsSAg888ECM8/e///0Yd+J/wgknxOuB64JNcfk1yURc7r777uG+++4Ln3zySbwT4X/++eeHk08+ObzzzjtxKjki88gjj4z72LFj4+2PP/54OOCAA8K2224bDj744HDXXXeF999/P0yfPj3wh5KMTcQxx11++eXhzjvvjOUa3nrrrXDGGWfEuDz11FNRMnfo0CF07tw5DBs2bGHGLLKPx/Tp0ydwf7du3WLbyFTiyDT4pE/0de7cuTHDOhnhu+++G+grj2VHzDEl/rXXXouZpmSwcl2QDfnggw8G/j9jxozYBtKbNpluz2OvvPLKOH0+abuxnw3FJX3lujz22GPDn/70p9CuXbvA9cmU7IcffrixZtrkdsVl7bErLmvP3DNKQAL5I6C4zH5MFZfpxEhxmQ7HorSiuCxGpBWXdRRnxAOCgMLcgwcPDjvttFP47W9/u3Dq69JLLx2YKo7IcMsvAeKLICPe//Zv/xbjz3Ww4447Rml1zz33RGn14x//OEqzeiNRraniDcUl8u6CCy6I+/z586PM23777cOAAQMiX4TbI488Er8cOOKII8KIESMCb6SGDh0aEHfcz6JAHIMMnTBhQjjmmGMWTuN//vnno/Dk+XrhhRfGdnjs8OHDY6Ynt3/00UfhoYceioLzxBNPDKecckoUmIceemjsD20gpbt37x4l6+233x4fQ91ONvrNQkacl+NOP/30wGM532OPPRZfKxgjfeVYSgzQT6QmMonr6KijjooCFjl62GGHRQmKmG1qS8QlNUKRrmRY7rDDDlFYMh2f65Lr89prr41Txptqq9b3KS5rTTzEa+073/lOvKZrf/banvGvf/1rfC7W9qyeTQISKAIBxWX2o6y4TCdGist0OBalFcVlMSKtuKyjOJOZxap3e+yxR5wqnEirJZZYIrCT4XT44YdHwYJkcc8vg969e8d4J7FPZBFTc5Fc1BYkA5es3HrbqiUukZKIuVNPPTU+NxBYZ511VsxC5AsBRCbHXHHFFTHrENF3yy23hL333jtMmTIlkLl59913R9F33nnnxQzLs88+O2ZEUs+RKdFkbPJ4pksjCxGeZGYiFS+55JIwZ86cmGnJfewsskQfeByZ0iwixM9tttkmZkvSJx7LGzjabLghNukDtTpZbZTMSuQkQpXM0DfeeCO2c+aZZ8YvNUaPHh14DOPlftql9AAZo4jM/v37RzazZ89ueKpF/o+4/I//+I8oPilC/4tf/GKhRE+uSV6P+vXrl7nXIdius846FfeL7FGyYH09XfzX00GDBoVf//rX4dlnn13kOsrjfxSXeYyqY5JANggoLrMRh6Z6obhsik7l9ykuK2flkSEmYGy11VYVo+DzHokkbvVFQHFZR/FCNvAkY5VbpMG3vvWtuCeigIwWFiD5y1/+4p5zBsSZeCexT64Fsiy5j6zB733ve4rLEKJwZHGeLbfcMmy88cZRCvIc6dGjR5SGCETEI5KQLwVuvvnmOBWcadqs4Mn0cKaSs+AMcpBp3kyvfvTRR+O0ayQhK5TzZhVhzLRtMiP5kuG0006LU8kRhghGpCwZkkzlRhYy7ZtYser6yJEjw0033RQ4FrmGUCRrkvORqYmEbLiR7cn5GQvn55xMTz/kkENiP8joRFRSA3fnnXeO50aWIkip90ndT7I0OS/9PvDAA2M2N1Pbm9oQl0sttVTM9PzDH/4QfvSjH5V9PfrjH/+YudeilVZaKYrWSl8n//M//zPWD670eI/75t8frj2uc8R93jfFZd4j7Pgk0HYEFJdtx77SMysuKyXV9HGKy6b5eO+iBMy4XJRHXv+nuKyjyDJVHOFARhfTgpdffvmAqCqVVggaBKdbfgkQX+RXw9hzPTBdl+m/ZM85Vfyf10BjNS6Z5owsJCsQacnq14g7siuZ+o0oJHsRKZiISwQnfxz5AoHsMeQlQobsRY4l6xLxicBkR1SSuYnwRGIi8hDLTK1+9dVXY2YnU7XXXXfdWK8UqZbsF110UZyGTrYk0rPc9G3E5UEHHRR+/vOfL3wcj6eMBCKS1wtqbfJGmmxsVqTn+uF2+kY9Sq6b5Jz8JJuXep1NbYjLn/3sZ3FcZJIi65ZbbrmFApMMYL5cYTp8Une1qfZqeZ9TxWtJu3jnUlwWL+aOWAK1IqC4rBXpxT+P4nLx2ZU+UnFZSsPfmyOguGyOUD7uV1zWaRyRMUxjZTGef//3fw/f/e5340+mwjaXLVWnQ7bb/yJAfJFQpXHfZZddwsSJE2N2IYe5OM/Xl0tj4hKhBjNEFgvLNBSX1BJl5XGeU/Ak45KFeDieDEbkMLUiqU1JdiSL6CDqyHokC5LbyazkPNSk5IsH9tdffz1mVXI/mZrUqyXLErmZHJMcj9xsTlzyQYbatslj+Zk8nrFTQ5MMTGQr52EaOOKSLEvqWtKH5Hh+Jr9/TfCbvyU1LpGybJyHcSPOuS7J9uUnUviZZ575ZgNteIvisg3hF+DUissCBNkhSqCNCCgu2wh8C06ruGwBrCYOVVw2Ace7vkFAcfkNJLm8QXFZp2FFLjANFHFCtte+++4bM+x++tOfRoFSp8Oy2xUQYMET4sziJz179oyLoyC4uB64LtgUl1+DbExcknHJIjaNZVzCkwxm6hvyRhTZx9RxjifLkPvJxKRmJgv/cBvTspGXiEvqVpIlieBkOjaSlMcgLsmKRSIyVRzpiAidNGlSvJ+6pNttt138YgJJ3ZS4pC2yRqmliZBEWpKRjRTldYGp5oyRtskgpR8spsN5EZpkfrJ4D/VzuYaolUktR1Zcb2prKC657uBDGzDba6+9Yo1VrlOyULO0KS6zFI389UVxmb+YOiIJZIWA4jIrkWi8H4rLxtm05B7FZUtoeazishjXgOKyzuOcCAMyu1gtmAyqe++9t85HZfebIsDiLcSZDDeyBBFGibBMHqe4TEgsWuNygw02iLUuKeC8+eabx6nh1KNkCnjDjEsyLBFxTAGnNEPHjh0Dma0szPPiiy9G5h988EF83nXt2jX+pH4k2ZvUpLzyyitjHUtkJcKTKeft27cPnTt3jlKTNhCGCEfkI/U1uZ9anIjHF154IZ6nVFxyvquuuirKQcQr2ZxPPPFEbI9p6IyL9pGXrC6PIB01alRcBIjx0DdqYDJmRCYlB6jhufXWW8dp7NTaRHJyTTW1NRSXybFch/SRqfdkq/LGM2sLRCkuk2j5sxoEFJfVoGqbEpAABBSX2b8OFJfpxEhxmQ7HorSiuCxGpBWXOYkzmVZIEKZlkgXmll8CxJc4I62Ie7ktS+KSfiaZjUxZbm5nujErOTd3XHI/KxZTl7KxjUVwkIPIQ/6wle633nprYEo4Uo+frBpOFiOPYUsyEZkGfs455wSyXaltye1sHMfxtIPk5P8sQEKmI+IxiQ/3MTWbc5NpiUCkDe7n3LSZ9I/alnwRQS1KJOC0adOinIQjt7GYEJKV+9iQjByTjIt2GC9iEqlJW8lGBiiZlqxQTltcS0hMxsbjEZKVvH40Ji6T8zAu+su5ye7M0qa4zFI08tcXxWX+YuqIJFAtAnzZyZeTffr0qeg9D19OrrbaahUdy3skStHwnsGtdgQUl+mwVlymw7EorfAZxlXF8x9txWX+Y+wIC0ggS+ISwcbK02QUUpuzuZ03K0y1bu645P4tttgirvJdwDC32ZCbE5dt1rEKTqy4rACShyw2AcXlYqPzgRIoHAG+ZGRRPMr+JO9pmvrZv3//cOyxx1Z0LO2wGCDlYNxqR0BxmQ5rxWU6HIvSiuKyGJFWXBYjzo6yYASyJC5ZwGWZZZaJ2XzVCMN+++0X605Wo23bLE9AcVmei7dKQHHpNSABCVRKgJkZSy65ZNUWsdtpp53CsGHDKu2Ox6VAQHGZAsQQYqkh1m9wk0AlBBSXlVCq/2MKIy6Zusi+3nrrhTFjxiycwln/IXQEEvgmAcXlN5l4S3oEFJfpsbSlfBFQXOYrno5GAtUkoLisJt22aVtxmQ53My7T4ViUVhSXxYh0ocQlteQ6dOgQV7ltuJhJMcLtKItCQHFZlEi3zTgVl23D3bNmn4DiMvsxsocSyAoBxWVWIpFePxSX6bBUXKbDsSitKC6LEenCiEumqw4cODCwqjC19liEw00CeSWguMxrZLMxLsVlNuJgL7JHQHGZvZjYIwlklYDiMquRWfx+KS4Xn13pIxWXpTT8vTkCisvmCOXj/kKIS1YLZjVgVptimnivXr1icWtW4nWTQB4JKC7zGNXsjElxmZ1Y2JNsEVBcZise9kYCWSaguMxydBavb4rLxePW8FGKy4ZE/H9TBBSXTdHJz325F5esaHz77beHjh07hqFDh4Y5c+aEcePGBQr+sjLfm2++mZ9oOhIJ/IuA4tJLoZoEFJfVpGvb9UxAcVnP0bPvEqgtAcVlbXnX4myKy3QoKy7T4ViUVhSXxYh0rsUli/FMnz49DBgwIOy8887h2WefDQsWLAhInREjRsQp45dffnlcqIdj3SSQFwKKy7xEMpvjUFxmMy72qu0JKC7bPgb2QAL1QkBxWS+RqryfisvKWTV1pOKyKTre15CA4rIhkXz+P9fi8o033ggXXHBBFJR33nln+PzzzxdGEYl5yimnhB49eoQZM2YEFu5xk0BeCCgu8xLJbI5DcZnNuNirtieguGz7GNgDCdQLAcVlvUSq8n4qLitn1dSRisum6HhfQwKKy4ZE8vn/3IrLDz/8MFx22WXhoIMOCiNHjiwbvcceeyzwwnjwwQfHKeOlYrPsA7xRAnVCQHFZJ4Gq024qLus0cHa76gQUl1VH7AkkkBsCisvchHLhQBSXC1G06hfFZavwFe7BistihDyX4pJp37fddlvMphw0aFCTkXz88cfDpptuGs4888zw1ltvxWnjTT7AOyVQBwSyKC4nT568sCwDz9G09v322y/069evDqKSny4qLvMTS0eSLgHFZbo8bU0CeSaQiMuZM2em9p6o9L3VTjvtFIYNG5ZnhJkbm+IynZAoLtPhWJRWFJfFiHQuxeVzzz0XOnXqFDMpn3jiiSYjOXfu3HDNNdeEX/3qV+H6668P7733XpPHe6cE6oFAlsQl2c/bbLNNWHnllUO7du2a3VdfffWw0UYbNXtc0tbaa68dzjrrrHoIS276qLjMTSgdSMoEFJcpA7U5CeSYwGuvvRbf76y44ooVvedZa621woYbbljRsbxHWmeddeLssxwjzNzQFJfphERxmQ7HorSiuCxGpHMlLpNvGY855phw4IEHxtXDP/744yYjyfRw3jjwArn33nuH+++/36zLJol5Zz0QyJK4pH4sZRnuuOOOcMsttzS7H3/88WGVVVZp9rikLSTa7Nmz6yEsuemj4jI3oXQgKRNQXKYM1OYkUKcEmGXyt7/9LSSzTcoN45NPPgkPPfRQuP322yt6z3P44YdHcZm8/2nu55QpUwL1/rOyzZs3L/K4+OKLw/z583P5eas5ccm4b7755rhwLOstuJUnoLgsz8VbyxNQXJbnkrdbcyUuP/roozBmzJgoIK+++urw9ttvVxQv5CUL9FDr8uSTTw5PPfVURY/zIAlklUCWxGVLGV133XWBrAK37BJQXGY3NvasbQkoLtuWv2eXQFYI8DmE7MjtttsukFCBnGSWV2u2c889N7Rv3741TbTpY0kmYVbcfffdF5C2JJzkbWtMXJIkM3bs2NC3b9+w5ZZbhvXXXz9MnTo1b8NPbTyKy9RQFqIhxWUhwhxyIy6Zjsofwi5duoTzzjsvvPLKKy2OIHUxDzvssMDF/+qrr7b48T5AAlkhoLjMSiTy2Q/FZT7j6qhaT0Bx2XqGtiCBPBC45557wo477hi+//3vhx/96EeBepMkRzD75PXXX1+sIdaDuOTzE7NsXn755YVjfOmll8Kjjz4aZs2aFcgyvPfeexeKS5JMEHpnnHFGuOSSS6LM+/TTT6PgfPjhhwPvZz/77LNAPVDk75tvvhm+/PLLmJzC/bTJGgV33nlnbIN2Jk2aFB+3sAM1/KWhuHzxxRfDTTfdFJhNhHReeumlww9/+MOYZPPMM8/UsGf1dSrFZX3Fq617q7hs6wjU5vy5EJcLFiwI06ZNC4ccckjYa6+9Fvlj2VKMvCnYf//9w6hRo8IHH3zQ0od7vAQyQUBxmYkw5LYTisvchtaBtZJAlsTlu+++G7/E5Ytcdxl4DdT2GkDeDRkyJPzkJz8JSyyxRPjOd74TBWbHjh2jYCPZgjI3Lck6rAdx+eCDD4azzz47zoCjVBA72afcxtT2a6+9Nhx55JHhnXfeiZ+zbrzxxijxtthii7DLLrtEwTd9+vQ4nZqFhVhE9f333w833HBD6NmzZ+D9ByKTKfZISm5HEjONHrbsffr0CfSDz4e13hCXK620UhSq9ItyAWTeLrXUUuHb3/52+Ld/+7fw85//PIwePTo8/fTTvjY38veJkm/77rtvrcPn+eqUgOKyTgPXwm7nQlzyZmzEiBFh1VVXDXz71lxdy6YY0RZ/8HbeeedY77KpY71PAlkloLjMamTy0S/FZT7i6CjSJ5AlcTlx4sRw+umnh3POOcddBl4DbXAN9OvXLyy77LLhW9/6VpSXCEzkFVl36623XjjzzDNj9mClr0T1IC6RsZdeemkUdghH9oEDB0Z5SZJJIi7JkmQBVZJFWCSV/z/wwAOhf//+YfDgweHJJ58MJ510UqBOJ1mcLKDKNGtEJaXByGK86qqrogy9/PLL42P4/McUdM5/1113Bb68qfWGuPzZz34WjjvuuLD88stHYYmsJPbs3/3ud8MKK6wQhg4d6nOyieck0+kVl7W+euv3fIrL+o1dS3pe9+KSbyr5I/aXv/wl8IeLb+Fau1Fz5Igjjgj77LNP/Ca0Jd+GtvbcPl4CaRBQXKZB0TYaI6C4bIyMtxedQJbEZa9evcIGG2wQ38vwfsZdBl4Dtb0Gtt9++7DMMstEWZXIS8Tl9773vSg0DzrooJiRWOnrZj2IS6Z+Iw4POOCAMHPmzLiTEEI5LqRmIi5ZNAhhyect3lOQHTlnzpw4bbx3794xY5HpwqxdwDRzpn8jKsnCRGTypcyECRPitPREXCI0mUbO57a2+uyGuKQ0AGUC+ImoXHLJJaO05OcPfvCDGPtu3br5mtzE36U11lhDcVnpC4PHxTJ/W221VcUkeG0ePnx4xcd7YDYI1L24vPXWWwN/4E488cTUVqjj2zrqqOy3337x277WZHBmI8z2omgEFJdFi3htx6u4rC1vz1Y/BLIkLplWSd1uZIC7DLwGansNUMuRjMp///d/j9KKqeJIrHXWWSdm4zFVnCzDlgi2ehCX1KekjudRRx0Va1mSKcmUebItGW9DcbnmmmtGkUcW4nLLLRenWe+6666BuphkUfF4amAiOWk3WUR10KBB8bPae++9F6dc8zmwXbt2MZsR7syga4sNcbnKKqsEFuMh65MvkH7729/G2COtkZcITabIM0afl+Wfl5R/M+OyLa7g+jynGZf1GbeW9rquxSXfwFEnhT+OFG1Oc2Plv3HjxsVMTv5gzps3L83mbUsCVSWguKwq3sI3rrgs/CUggEYIZElc9ujRIwwYMKCRnnqzBCRQTQJMe+7evXvMrkRabrLJJjHJgsxDhNXiJEXUg7gk4/Gpp54KZ511Vqxredppp0VZicjjvWlDcYmgYlyUtmAncYTPd/Bf+JkBAAAgAElEQVShRiTHU+6CbEvkJ+0hMZlOTnkwamiSackiPTfffHMUgtzHZzhEaa03xCXZgghpFo5lFXUkJWUDfve738Vap2RdUpMz7c+utR5rNc/n4jzVpJu/thWX+YtpuRHVrbhkigEvahTvpdhzNTb+yPLHr0OHDmHy5MnxD1A1zmObEkibgOIybaK2V0pAcVlKw98l8DUBxeXXLPxNAkUlQF3HkSNHht///vfhz3/+c1xwhpqMrDDNrK7F3epBXDI2Vv5GLnbq1Ckumsp7hvnz5y8iLsk0ZHVxpooze44FUfncNX78+ID84/+suo2QoO7lFVdcEaeI0y5fyFx00UVRALNCO3Uw77///igLEZ7Izeuuuy7wWbHWWyIuS8+LwGQhHhYpok4nJTy4NpDYSFe3bxJQXH6Tibc0TkBx2TibPN1Tt+KS1dh22223+C1dtYovM92Bbw2pn3nMMcfEPzp5Cr5jyS8BxWV+Y5uFkSkusxAF+5BFAorLLEbFPkmgtgQQl2T8HX300bFGIyLv888/b3Un6kVcIuPIltxmm23CnnvuGT8/Mf7SjEt+R16SmclnLBbiYbo3mYlkVyIuyZikDh1yE/HL7Ddk59577x2lH9PEqXdJHUzaYIo40pI6mEzFp41ab+XEZdIHpDWZoXyGpe4nWbmKy4TOoj8Vl4vy8H9NE1BcNs0nL/fWnbhk8Z0ZM2aE3XffPZxxxhnh+eefr2oskJdMW0CSXnLJJW0y7aCqA7TxXBKoZ3HJm1NqQCXThvz5z+lTWeIwYsSIWMOJDIp62/72t7+Frl27VtztTTfdNIwaNari4z2w2AQUl8WOv6OXQEKAv48sVNPUhsh66KGHooSr5G8804vJ1qvkWI7hS0YyEmu9MX375ZdfjtmSZEomCSaIR2awIe7gw3RqpktT8mvrrbeOn+2YFs59TDlnwR7GQZYln/34P5/7WJiHKdj8HyFKkgnSkzbYWawHWdwWW1PiMukP4yYurcm+TdrK60/FZV4jW51xKS6rwzVrrdaVuOSPE38IKdbLtAH+UNVq41tOpqXzx9Nvx2pF3fMsLoF6Fpe8id95551jMXMKmrtnjwF1mg4++ODFqtG1uNd0Wo9TXKZF0nbKEVBclqPibRKQQDkCTI3+wx/+EFZeeeWK3uusvfba8fhK3xfxt/qyyy4rd2pvqxKBSsRllU6dq2YVl7kKZ9UHo7isOuJMnKCuxCXfTvEtG9828k1brTe+Edx///3jKnG1Prfnk0BLCNSzuGzJOD1WAi0loLhsKTGPbwkBxWVLaHmsBIpNgGxDVpmmlmM1tp122ilOm65G27ZZnoDisjyXlt6quGwpsWIfr7gsRvzrRlwyzYDU/5VWWimuzkb9mFpvjz/+eMz25INJtaeo13psni9fBBSX+Yqno0mPgOIyPZa29E0CistvMvEWCUigPAHFZXku9Xyr4jKd6Cku0+FYlFYUl8WIdN2Iy7vvvjv06NEjFl9GylA/pdYbU8T5g3TAAQeEQYMG1fr0nk8CFRNQXFaMygMLRkBxWbCA13i4issaA/d0EqhjAorLOg5eI11XXDYCpoU3Ky5bCKzghysui3EB1IW4JNNxyJAhoXfv3mHmzJmxYHNbhYcV8Mj87NmzZxg7dmwsDN1WffG8EmiMgOKyMTLeXnQCisuiXwHVHb/isrp8bV0CeSKguMxTNP85FsVlOjFVXKbDsSitKC6LEenMi8vZs2eH0047LfTt2zfceeedmYjKSy+9FM4+++zAB5SpU6e6WE8momInSgkoLktp+LsEviaguPyahb+lT0BxmT5TW5RAXgkoLvMXWcVlOjFVXKbDsSitKC6LEelMi8v58+eH8847L+y3335h1KhRmYrIrFmzwl577RV69eoVVzdfsGBBpvpnZ4pNQHFZ7Pg7+sYJKC4bZ+M9rSeguGw9Q1uQQFEIKC7zF2nFZToxVVymw7EorSguixHpTIvLKVOmhK233jrWtXzttdcyFRHqXd57772hXbt2MfuSFc/dJJAVAorLrETCfmSNgOIyaxHJV38Ul/mKp6ORQDUJKC6rSbdt2lZcpsNdcZkOx6K0orgsRqQzLS67du0ajjzyyECNyyxun3zySRg9enSUqxMnTsxiF+1TQQkoLgsaeIfdLAHFZbOIPKAVBBSXrYDnQyVQMAKKy/wFXHGZTkwVl+lwLEoristiRDqT4nLevHlh4MCBcQGcyZMnh08//TST0fjyyy/D+++/H4477rjQp0+fzNTgzCQsO1VTAorLmuL2ZHVEQHFZR8Gqw64qLuswaHZZAm1EQHHZRuCreFrFZTpwFZfpcCxKK4rLYkQ6c+LyvffeC9dee23o0KFDuO222wISM+vb888/H3iBPfbYY8O0adOy3l37VwACissCBNkhLhYBxeViYfNBFRJQXFYIysMkIIGguMzfRaC4TCemist0OBalFcVlMSKdOXH5xhtvhGHDhoVTTjklvP3223UThfHjx8c+T5gwoW76bEfzS0Bxmd/YOrLWEahUXH7xxRfhmWeeCTvssEO47rrrWndSH10YAorLwoTagUqg1QRmz54dVlpppdCjR49w6KGHNrv369cvHH300c0el7S1ySabhAsvvLDV/bSBygkoLitn1dSRisum6HhfQwKKy4ZE8vn/zIlLMi5vv/328PLLL4d6Wqn7nXfeCQ8//HBm63Hm8/J1VI0RUFw2Rsbbi06gEnFJeZJnn3029O3bNxx22GHhwQcfLDo2x18hAcVlhaA8TAISiLPKzjrrrPi3plevXqG5vWPHjmG11VZr9riknSFDhoRHHnlE0jUkoLhMB7biMh2ORWlFcVmMSGdOXBYDu6OUQHUJKC6ry9fW65dAc+KSRddmzJgRaxdvtNFG4corr6yr7P/6jUw+eq64zEccHYUEskjg3HPPDe3bt89i1+zTvwgoLtO5FBSX6XAsSiuKy2JEWnFZjDg7yoIRUFwWLOAOt2ICTYlLsvyffvrpMGjQoLDccsuFsWPHBmYBuEmgUgKKy0pJeZwEJNBSAorLlhKr/fGKy3SYKy7T4ViUVhSXxYi04rIYcXaUBSOguCxYwB1uxQSaEpfPPfdcGDBgQGjXrl2YOHFiIPvyq6++qrhtD5SA4tJrQAISqBYBxWW1yKbXruIyHZaKy3Q4FqUVxWUxIq24LEacHWXBCCguCxZwh1sxgcbE5cyZM0Pv3r1Dhw4dwpgxY8KHH34Yvvzyy4rb9UAJQEBx6XUgAQlUi4Dislpk02tXcZkOS8VlOhyL0orishiRVlwWI86OsmAEFJcFC7jDrZhAOXHJ9HAWM+jWrVu4/PLLw7vvvltxex4ogVICistSGv4uAQmkSUBxmSbN6rSluEyHq+IyHY5FaUVxWYxIKy6LEWdHWTACisuCBdzhVkygVFx+8cUX4ZlnngmHHnpo6N69exg9enR46623Km7LAyXQkIDisiER/y8BCaRFQHGZFsnqtaO4TIet4jIdjkVpRXFZjEgrLosRZ0dZMAKKy4IF3OFWTCARl59++mmUln379g277LJLuOSSS8KcOXMqbscDJVCOgOKyHBVvk4AE0iCguEyDYnXbUFymw1dxmQ7HorSiuCxGpBWXxYizoywYAcVlwQLucCsmgLjccccdw4wZM8Kxxx4bNtpoo3DllVeGt99+u+I2PFACjRFQXDZGxtslIIHWElBctpZg9R+vuEyHseIyHY5FaUVxWYxI1624/Oyzz8I777wT5s2bFz7//PNFovX+++/H2xcsWLDI7f5HAkUhoLgsSqQdZ0sJIC7XX3/9MGjQoLD88suHG264Ibz33nstbcbjJVCWgOKyLBZvlIAEUiBw3nnnhT/96U/hzTffdM8og4svvjisvfbaKUS72E0oLosd/5aOXnHZUmL1eXzdisuXXnop9O/fP5x99tnxj3cp/gsvvDBccMEF4amnniq92d8lUBgCisvChNqBtpAA4nKJJZYIv/3tb8Mtt9wSPvnkk/DVV1+1sBUPl0B5AorL8ly8VQISaD0B6jCvtNJKoXPnzu4ZZbD55puHzTbbrPXBLngLisuCXwAtHL7isoXA6vTwuhaXvKhxofLNY+mGtDz//PPDk08+WXqzv0ugMATIINtiiy3CqquuGlZccUV3GXgN/OsaWG655cJWW20VrrvuuvDhhx+GL7/8sjCvCw60+gQUl9Vn7BkkUFQCfK4h65KsPvdsMhg5cmS4+uqri3qJpjZuxWVqKAvRkOKyEGEOuReXfDC9//77w4EHHhi22267sN9++4U77rgjMJ2cjbpm/PGn5tm2224bqB9DNierzc6ePTucddZZ4eSTTw677rqrddCK8ZzIxSgppTB16tRw6623hgkTJrjLwGvgX9cAz4lHHnkkvPvuu7l4rjuIbBFQXGYrHvZGAnkiwGeaN954wz3jDKyZ3fpnneKy9QyL1ILishjRzrW4nD59epwujnwcPHhwGDFiRBgyZEjg2zCmkTOdduLEiaFfv35h2LBh4bjjjgsHH3xwuPTSS+ObAhZvOOCAA8Jhhx0W73/ggQfC/Pnzi3FlOEoJSEACEpCABFpEQHHZIlweLAEJSEACEvgGAcXlN5B4QxMEFJdNwMnRXbkWl48//ni4++67o5B86KGHYhblq6++GqZMmRKee+65MG3atDB06NBw6qmnhg8++CCKTMQm+6OPPhpXnUVkDh8+PMyZMydHYXcoEpCABCQgAQmkTUBxmTZR25OABCQggaIRUFwWLeKtG6/isnX86uXRuRaXiMnHHnssnHHGGeHyyy+PCzE8+OCDcXo4CzLcc889McPy2GOPjdMomULI72ReTpo0KYrLXr16hWuuuSbMnTu3XmJqPyUgAQlIQAISaAMCiss2gO4pJSABCUggVwQUl7kKZ9UHo7isOuJMnKBuxSX1JwcMGLDIquKsDMtCC9SppHg1Raw//fTTWM+MDxMsUrL99tuHsWPHxgV9yMbs0qVLWHbZZUO7du0W7t27d4+Sk6niTBO/6667YkZmJiJmJyQgAQlIQAISyCQBxWUmw2KnJCABCUigjggoLusoWBnoquIyA0GoQRfqVlyyajLTvKlXmawqjrj8+OOPw6BBg2I9S8QltyVCE6lJBuZJJ50U/v73v4fbb789HHPMMYHalQsWLIjSk2P+P3vnAW1Fdf1/RY3GFo1JjCkmJhZUVIwNRUjgxRoLamLiCqggFiwRRbErFhSwuxRBbNiNvRfQYC+IiBVFOnYERBELuv/re/4Ov/ce896993HOvTNzPnetyePOndlz9mfPfVl+3j5ntOnhJojLKtyBXAICEIAABCBQEAKIy4IUkjQgAAEIQKBmBBCXNUOfywsjLnNZtooHnVtxKUGpm1TiUQJSL8lHrU2511572VVXXWVTpkxx3ZJaw1L/lpDUupeXXXaZW/vyrbfesosvvtj69etnc+bMcZse5KPj9URmxGXF9xMnQAACEIAABKIlgLiMtvQkDgEIQAACngggLj2BjCQM4jKOQudWXC5YsMAmTJhgV1xxhe2///6288472y677GL77LOPDRkyxN5++23XfTl+/Hg777zz7C9/+Ys75sADD7Tbb7/dPTX8iy++sNGjR5t+Oer87bbbzrp37+4+//jjjxGXcXwHyBICEIAABCDghQDi0gtGgkAAAhCAQMQEEJcRF78FqSMuWwAth6fkVlyKteSlBOVtt93mpoare1IP4VF3pbov9Zo3b557eviFF17ojtGDdiZNmuSmguvzuXPnuqeMq9NSx9x///02Y8YM1505c+ZM15k5bdq0hfFcUP4HAhCAAAQgAAEINCKAuGwEhLcQgAAEIACBCgkgLisEFvnhiMs4boBci8s4SkSWEIAABCAAAQjkgQDiMg9VYowQgAAEIJBlAojLLFcne2NDXGavJiFGhLgMQZWYEIAABCAAAQhERwBxmV7yyZMn25NPPmkPP/wwW4QMRowYYS+99NLC2U7pdwl7SxH46KOP7JlnnuE7lOHv0GOPPWZ6OCyvxSOAuFw8frGdjbiMo+KIyzjqTJYQgAAEIAABCAQmgLhMBzxo0CDbaKONbK211mKLkME666zj1prXEky8Wk7gjjvusE033ZTvUIa/Q61btzb9/wCvxSOAuFw8frGdjbiMo+KIyzjqTJYQgAAEIAABCAQmgLhMB9yrVy878sgj3drkWp+cLS4GehDmiiuuaB988EH6DcLesggMHjzY6urq+P5k+HeInrugP9LwWjwCiMvF4xfb2YjLOCqOuIyjzmQJAQhAAAIQgEBgAojLdMASl717907/kL2FJ/Dyyy/bCiusgLhczEon4nIxw3B6QALqim3Tpk3AK8QRGnEZR519ZYm49EUy23EQl9muD6ODAAQgAAEIQCAnBBCX6YVCXKZziWUv4tJPpRGXfjiGjIK49EMXcemHYyxREJdxVBpxGUedyRICEIAABCAAgcAEEJfpgBGX6Vxi2Yu49FNpxKUfjiGjIC790EVc+uEYSxTEZRyVRlzGUWeyhAAEIAABCEAgMAHEZTpgxGU6l1j2Ii79VBpx6YdjyCiISz90EZd+OMYSBXEZR6URl3HUmSwhAAEIQAACEAhMAHGZDhhxmc4llr2ISz+VRlz64RgyCuLSD13EpR+OsURBXMZRacRlHHUmSwhAAAIQgAAEAhNAXKYDRlymc4llL+LST6URl344hoyCuPRDF3Hph2MsURCXcVQacRlHnckSAhCAAAQgAIHABBCX6YARl+lcYtmLuPRTacSlH44hoyAu/dBFXPrhGEsUxGUclUZcxlFnsoQABCAAAQhAIDABxGU6YMRlOpdY9iIu/VQacemHY8goiEs/dBGXfjjGEgVxGUelEZdx1JksIQABCEAAAhAITABxmQ4YcZnOJZa9iEs/lUZc+uEYMgri0g9dxKUfjrFEQVzGUWnEZRx1JksIQAACEIAABAITiEVcTpo0yS644ALr3bt3WdvWW29t7du3L+tYxbzwwgttypQpgatF+GoRQFymk54zZ45ddtll1rdv37K+GzvttJNtsMEGZR2r79GAAQNszJgx6RdnbxACiEs/WBGXfjjGEgVxGUelEZdx1JksIQABCEAAAhAITKAI4nLatGmm7ZtvvmmS1ogRI6xt27amTspytmOOOcb69OlT1rGKt8kmm9ioUaOavD4f5IsA4jK9XlOnTrX11lvP9ttvv7K+G0cddZQdd9xxZR2r79E222xjV1xxRfrF2RuEAOLSD1bEpR+OsURBXMZRacRlHHUmSwhAAAIQgAAEAhMogri84YYbXKfWyJEjbfLkyU5gfv/99w3I3X333bb++us32Ofrja71xz/+0R588EFfIYlTYwKIy/QCTJw40Vq1amXjx49PP2Ax93bp0sUGDhy4mFE4vRICiMtKaDV9LOKyaTZ8sigBxOWiTIq4B3FZxKqSEwQgAAEIQAACVSdQBHGp/2BcZZVVnDw8/vjj7dVXX7WPPvrIvv76a0sEJuKy6rdWri+IuEwvH+IynUue9yIu/VQPcemHYyxREJdxVBpxGUedyRICEIAABCAAgcAEiiAuNQ18zz33tOWWW85tK664oh122GE2btw4Jy+FEHEZ+EYqWHjEZXpBEZfpXPK8F3Hpp3qISz8cY4mCuIyj0ojLOOpMlhCAAAQgAAEIBCaQNXGptSXVKdl40/qVyfbtt99asi1YsMDmzp1r55xzjklYLrHEErbkkkvaz372M1t33XXtwAMPNInNW265hanige+lIoVHXKZXE3GZziXPexGXfqqHuPTDMZYoiMs4Ko24jKPOZAkBCEAAAhCAQGACWRKXp512mnXs2NF23333RbbddtvNmts22mgjW3rppZ24TOSlBOYvf/lL22OPPUx5ssZl4JupQOERl+nFRFymc8nzXsSln+ohLv1wjCUK4jKOSiMu46gzWUIAAhCAAAQgEJhAlsTl6NGj7eqrr7aLLrpoke3CCy+0prYLLrjATRVfdtllF4rLZZZZxrRtvPHGpv+g7Nu3L+Iy8L1UpPCIy/RqIi7TueR5L+LST/UQl344xhIFcRlHpRGXcdSZLCEAAQhAAAIQCEwgS+KypalOnz7djjvuOFthhRVc16WE5RZbbGHdunWzwYMHu4f1/Pe//0VcthRwhOchLtOLjrhM55LnvYhLP9VDXPrhGEsUxGUclUZcxlFnsoQABCAAAQhAIDCBIojLG2+80Tp06GCrrbaatW3b1nbeeWcbMmSITZ482a2FKYQ8nCfwjVSw8IjL9IIiLtO55Hkv4tJP9RCXfjjGEgVxGUelEZdx1JksIQABCEAAAhAITKAI4lIP9FlzzTVthx12sOHDh9sXX3xh3333XQNyiMsGOHhTggDiMh0Q4jKdS573Ii79VA9x6YdjLFEQl3FUGnEZR53JEgIQgAAEIACBwASKIC4fffRR05YIy++//9601X8hLuvT4N+lCCAu0wkhLtO55Hkv4tJP9RCXfjjGEgVxGUelEZdx1JksIQABCEAAAhAITKAI4lLCMpGWTeEaNWqUbbbZZta6deuytnbt2tlWW21V1rGKqdjPPPNMU5dnf84IxCguZ86caVOmTGm2UjNmzHDfiw022KCs74a+F9tuu21Zx+p7tOmmm9p1113X7Bia+/CTTz5xf8QYNGiQffbZZ4t0Xjd3bjU+++abb2zkyJF2xRVX2FtvvVWNS5a8RjniUh3sb775pn3++ecl48V6AOIy1sq3LG/EZcu45e0sxGXeKsZ4IQABCEAAAhDIJIEiiMtywH766af2xBNP2D333FPWtvvuu9tee+1V1rGK+eSTT9qsWbNSh6L/2L/22mvdOpsffPBBg2NeeOEFu+uuu+yNN96wsWPH2umnn2677rrrItuhhx5qt9xyi73yyivWu3dv05PU33nnHVuwYIGLJ7Eg8XT55Zebps7/73//M0mcp59+2i677DJ3bOPp8w0GYubk7+233+7ET1O5ND7H1/s5c+bYc889Z1deeaXNnTu3WeEkSS1mDz30kKmuIV6lxKVYvv3223bnnXc6tiHGUM2Y4n/DDTfYv//9bzv//PNtwoQJ9vXXXy8yhPnz5ztBf//995f13Tj88MNtyy23LOtYfY8ef/xxkxxt6Uvje//99+311183ScLGndctjevrPN03Gp++u2KehVdz4lK/u/Q76uSTTzb9TlR95s2bl4VhZ24MiMvMlSTTA0JcZro83gaHuPSGkkAQgAAEIAABCMRMIBZxWWmNe/Xq5QRhpeelHS8J2LdvXyeE3n333QaHSNacd9559uyzz7puN4kwdYvpKenqVttvv/3szDPPdOJT4lVbx44d7V//+peNGDFiYQfUV1995eRn9+7drVOnTnbzzTfbtGnTTE9TP/jgg+3FF19sVgZqULNnz7ZzzjnHycPGgrXBoAO8+eijj5yMPProo52AbU6ySvhIrknSvvfeewFGY9aUuPzyyy9dp5w65sRaD4J68MEHg4yhmkElo66//nonGTfccEN331166aWOg0RyS1+DBw+2urq6lp5e8Xka67hx4+zee+811Wr69OlO3B911FHWr18/J5qVq4SmxKa6pHUv6XN976ZOneq+JxLiWn7ipptuWnj+iSee6Gqv71pzL93L+oOBvtO6hu7ljz/+2Mnb1157zcaMGeO6LiVo9Zn+wKA/bJx00kl21lln2cMPP+z+iKDv46233uoEuXKR8NT3X+NSXG2PPfaY+24vjsBPE5fJH3oGDBhgf//73+0Pf/iDtW/f3v2BplT+zbEp8meIyyJX139uiEv/TLMYEXGZxaowJghAAAIQgAAEckcAcZlesmqLy+eff37hQNTpNn78eOvataupAzKREuo0lAzp0qWLHXLIIa4DU2JGL0kOCY8jjzzS9txzT3deueJSEufbb791UqRbt2520EEHORmnqbaSPE899ZRdffXVJgmlKfcShzpeMkbTXl966SUnWCRf9Lm6ybSmqMSiRIvGL/GiLj51go4ePdqGDh1qehq8pp+qS66xuNTxOk5dgLquHrqkjlQdKynUo0cPt0lQaZxJJ+A111zjjpfQERO9NFadqynIiqWxaa3G5l6NxaXGow5Ldb3+5z//sTZt2thKK61kf/3rX508ai5WXj5TN686e5daailbZpll3PTuAw880K666ipX45Z0CFZbXH744YcmEaeuY/1bAv+II46w/fff3+WmPwK8+uqrrlNZglOiXjnqvtf37cILL3Tn6Q8Mxx9/vPXs2dP9EUGfd+jQwd3TkvrNiXV9JyW2L774YteFLcGobmJ1LeqPDfpjgq6re0z3roSx/rCh3zkHHHCAO07fG41feeh7re+Qjh84cKDrytZ52hRH8XRsS1+JuNTvAUlUfd8vueQS++c//2m///3v3b2w7LLLOqma/L5p6bWKfB7issjV9Z8b4tI/0yxGRFxmsSqMCQIQgAAEIACB3BFAXKaXLKviUoJTNVOXpjri1L2l6eLqFJMo1FRryQ/JuUrEpbqoJCe1HqG2iy66yCZPnuzkobogd9llF9tmm23ssMMOc6JOIkVdnJpOf/bZZ7sOPUk8SSCdK36KIwkqaaPOSElIjV1dZTvuuKOLqRwkNCWDNP1bnW8SopJKOk4S9i9/+Yttt912po43xZGcVFfp1ltvbeeee64bp8Sk5I+m2Wuc6jJVZ5qmukrqKNZuu+1mnTt3dmNVJ51kZFOvRFyKoTioq1Ii609/+pMTe0sssYStssoqC6fsS+pJlKq7VlP2JYCUh66t3NQtp7FL/Cim6qW4kyZNchJVDCR8JUclrSV0tXyApjyLhSSuxKL+HWqTFFctJamUn7all17a/vjHP7ruUklAjauS6de1Epd9+vRxbHXvSsypJuIv0a5lHfTHAYmDU0891d3PiThXB62kodhLeEoc6l5Q/ZL7WgwjdkAAACAASURBVPWRDG/qpT8wSMpLkqp+kv/Dhg1z15M01X0u4ajvj9a51HdI31d9p/R9Vg1OO+00915jVNel1h7Vd1/nSV7q/tGmf+uPARL3LX2Jz9prr+3y1O8PTQn/1a9+tfA+X3LJJZ2kl2DVmHUfLs6m72o1NtXNx6aalLPtu+++TnS3tA6cFxcBxGUc9UZcxlFnsoQABCAAAQhAIDABxGU64BDiUjJCUkTCKtkkNPr37++kRDKS5jouE3EpMXLKKae4KbHJ9FhJGE19VddcJeIyua7Em8SI5IVEjbrO1CUmOSKxI7mm6aySQRJYGovkof4DTDJO3ZbipuntOlciTiJTklCyR11o22+/vet6lChVV6RyUFepJEwiLiWY1PGlcUjsqLNMElISUwJBIjCZKq7ptjpX49I49V7dlForVOJJkk/r8qlLUjJKslLjlIRprntMwmP55Zd33Z1isM466ziJJ5EnoSeZI7mj9UM1Nq23ed9997kclI86M1UjdYqqY1G5S+KJlbr6JJ41DVdCVWMVhxNOOMHJV/FV56wksQSseO6www6uK1DT00NuEtQ///nPF4rLJFd1YKr7TuurJuuqJvdNcz9rKS4l+/SdkzDXfaB7Q4JZ45dM1GfqwtW9KxGpe1rc1Tms+0z10H2o+033oKSn1uwsJS71/VUnsOJrKQjJa8XV/aF7OxGX6hxWB+ZOO+3kprBLWuu+GzJkiOOcHKsp7JLK2tSprHx0D2vT/aTcFuclcSkJr+UnVlttNXefJ+JaP9WBu8Yaa9jee+9tknNNbepKTdvUydp401qqlWz6/6m0bZ999rHmNuVU7qYO07RNeadt//jHP6z+tt566yEuF+dGjOxcfXf1/4flvvRHOf3/Hq98EUBc5qtejBYCEIAABCAAgYwSQFymFyaEuJT4kfiqv0kK6D/qJQGTVzniUtM5JUbUJSmRIjknASYhKkmyuOJScXQNrW8nwajORclGdX9JEOqBHeq+kuiSfJHYUReVRJVEneSQutzUsXbbbbe5MUriqQNTgkafqztRUkYyRh1cibjUeZpeq2PU3aduMnUcarqvxE59calxaiyaPq8ptRqHxqm1QtW5JjlUX1xKUGmabxI7Yd74p66jOkmW/uY3v1nYfVZf6EhsSlZoLVI9hV4dpuoEVXeoOveSBzxJnKjGEo7KX2JZIlVdgerilBhV7TRe8ZDY1H/USmCJpX6qpuo0lQQOueme+uUvf9lAXC633HK2+uqru25VSb3mpkk35lgrcan7TveXZLuWVZBk1tqd4itpqXtMUlj3nsSl7jMJcIlk3acSl+qYlODWHwYqEZeKpftZHdDqKNb3QrXX90Vx6otLCe9VV13V3V/J7wXJwz322MN9ZyTu1VUsuajvtPjr+yh5qU3ja7xubuMalHqv2OKjqe3qKP7Zz37mpocn97rGpd9dug/1/U82TVFP2/R9T9sk9NM2Xb/xpu9v2iZ2aZvYlLtJJqdtks1pm4Rz400Pp2q8qXNWSwvwgkA5BBCX5VDK/zGIy/zXkAwgAAEIQAACEMgAAcRlehFCiEt1BT7yyCOus0vdXdrUsSdZUqm4lBhRR6K6+tQJJqGhLj51d6krzpe41NTqtdZaywk6Sbpf//rXTsrpP9olE9U1pTUuJRclaCRrJNgktzT1Veu+SVZIrmqqsaZzawq1PleHp6RMfXGpbkNJJXVHasp769at3bXXX399N2Vc10oTl5qmrgeIrLvuuu54yUYJRMlMddlJRkkqKp46GRWnuVfScSkpqie468nYK664YgOhI+mssauOmvItiaouP22SYBJi6upUp582ddCpk1Xj16ZaqZNVPLRperlyFzdtEm/J9HMdq39LfIXaJMnU/bvCCis4camf6rSTdJVYUl5imYep4hKX4iWJLeaS5ZpSnchgfaYO5aTjUiJb+dfvuNT3siXiUveV6qv7XUsfJN2Xuj80nvriUt9dddRKjOnBPbqX9F3RfaNjVWvdY7p/JQkVS13Vktzq0tX5umcW56Xa6vule073sZjoDxKS1ZLWrVq1cp2Y+l7rvm7p/ScBnOVNf5xZnE2/dxGXi3MnxnUu4jKOeiMu46gzWUIAAhCAAAQgEJgA4jIdcAhxqWlejbujkqeKVyouJTm0Vp/kpWSTpnhrHUYJMF/iUlNTNQ1T/4El+Zh0KamLURJL8k/TRiUsJVlKiUtJIE211bkSRZJ5kkeajlu/41KfKx99pvx0ba0vqGmZaR2XEqia4qlj1OmVjFN8JPwkSSUNJXkkaXQ9CSxJmqZeuo7Enc6TRJIsEgd1Uf70pz9108jViabOSa1jWISXZLS6RiVoJSyTB0BpXUZJ1Ja8atVxmSxnIOmX3J/67kkASsxJtKue6jCV0NT3RvfN3/72NzcFWzVdHHGprk51IqvbtmPHjq5LVmJQ3dSJuJQUl6iUGNZ3V4x176ujUX/QkORTh7A6K9WdK4Gue12CVR26+iOAvjeLs76laqrvhB42lbzEQt9tdXPrDxPqwNV3QdNaF3daenKNIv7k4TxFrGq4nBCX4dhmKTLiMkvVYCwQgAAEIAABCOSWAOIyvXR5EJcSGFonUdNKjzvuOCdF1bXnQ1xK1kneqHNNU5MlVdRtpw5GyUFJoErFpaY9a604rc2nqeCStXrgjmSSpvRK6GjsyfRedW+qw0tdiVozUlKp8RqX6mpUN51ElQSP8ldHmKSRztE6m5I9eq8uO4kjCTpNx1ZnW1OvRFyqcy55aRyadq5zJWzXXHNNN/1Y19UDWfL+Eq8///nPbgq1hLFYS54tzqtW4jJ5OI+maqvrUYJZ0/L1Xt28EufKT9JfU/c1hV/TuTWVXDXX/b044lLxJXw1Di0loO+K1letLy51j+k7JUGo74HuYXUDS4BJXup4dbfqnpPw1x8+JPv13TzjjDPce30/Kpm6n1bLxuIyOUaiNRH26grVQ6803Z1XOgHEZToX9qYTQFymcynaXsRl0SpKPhCAAAQgAAEI1IQA4jIdex7EpabAanq41neUgJFk0rTRxuJS6zRKbKqLSyJJmx4SJGlS/6XzJUckUdQBpqmtkpR6SIm6GTU9VQJInV+Si5WKS0011Vg1PVxjkXxR96PiKBeJS0kmyUh1XOrfyktdc8pT3Y4SKRKIOk8iSlNnJW8kXzQVX1JR52rKrySU5K5EqabVJmtHKpYkXXNTbNPEZcJKklLdqOKhjjpduwjiUp2JqpG6+CqZDp5wSftZK3GZTBVXh6DkvrpH1V2ppRokzZWffup7oHtMn2tNS93zko66N/QdUFekOhq16V7SfZN08ablW3+fJLrWo9T9q3iKqw5K8dUfACQgJR11P+vhTRKX6qLUHwrq35uSlVrvUWPVOPS91diee+65xRbLGm9T4jLJRQJVwlJdyvpu8kongLhM58LedAKIy3QuRduLuCxaRckHAhCAAAQgAIGaEIhFXKrbThJCnXflbJJ9mn5czrE6RrEbi8CkoBKCEhOSgJp6XP8lAaa16zRlNHlJbiTyTtOdk643SQsdJ2EmwSKhoG4sdSZqDJIg6jaULNJ0bk35lLRTR1ldXV2DTQ/ikBCp/1I3mKbLSlQqhjrP1HWl/8BSV6diSO6oY01Tw9XpKCmk7jRJIP2USJSUScYiaaMc9Jmkj9atVCebnpKtp34rf8VSfTRm5aIc1I0pSaprqgtN08XVLZd0qT3wwANOsCoPSU+do3P1MCGdo2nmmk6vcYhf/c8kMdUN19yrOXFZ/zx1pUpkxfJSrSSaJeTK+W5IPm+11VZlHat4uh/qd7lWwlX3qqZ9S4xrU91Vf98vxVW3ZlP5S5a2dGq977GWE6+UuCwnBseY65RljUvuhHIJIC7LJZXv4xCX+a4fo4cABCAAAQhAICMEiiAuJfC0NScp1K20+eabu+m9muJbattkk01s4403LnlcEkexJV14pROQRJW4lBSVYGquVukRqru3XHFZ3VHV/mqS3ZoyrAchJfd+cz832GADN1W6uWPqf9a2bVv3QJyWZCrxLXG04447uq5GdTiGeEnca+3H+uOu/291b9ZfszbEGHzGRFz6oUnHpR+OsURBXMZRacRlHHUmSwhAAAIQgAAEAhMogrhMOp+am66rp2zrybnqDPS9qVNx7bXXdtM3A5crt+ERl7ktXYOBT5w40fQ0dXWz+v4eKZ6WAxg4cGCDa5b7RjJc3cqKo3/7mu7e+PqKm1wnjYE+y7qYr58T4rI+jZb/G3HZcnYxnom4jKPqiMs46kyWEIAABCAAAQgEJlAEcam1Dv/4xz/aTjvtZHoATNoU0URchsApkaHra905XukEJHM0lV7r+akTLpRUSr965XvpuExnJnHZqlWrZh9slH5meXu1BmpLxWV5V+CoxgQQl42JtOw94rJl3GI9C3EZR+URl3HUmSwhAAEIQAACEAhMoAji8vrrr7f27dvbqquu6qZ3S35ojUatAylhphfiMvCNVLDwiMv0giIu07nkeS/i0k/1EJd+OMYSBXEZR6URl3HUmSwhAAEIQAACEAhMIEviUp14mnop2Zi26fPGm6ZkSlDqPxqXX3551w229NJL26abbmrdu3d3T8LVg1j0YBxNFQ/xouMyBNXaxkRcpvNHXKZzyfNexKWf6iEu/XCMJQriMo5KIy7jqDNZQgACEIAABCAQmECWxOXo0aNt+PDhrlvysssucz/VOVnOpieAL7vssrbEEku4Tevwadtoo41MU8lPPPFExGXge6lI4RGX6dVEXKZzyfNexKWf6iEu/XCMJQriMo5KIy7jqDNZQgACEIAABCAQmECWxOUpp5xiW2+9te2www6LbNtvv73V37bbbjurv6233npOVCbiUuvwaVt99dVt1113tb333htxGfheKlJ4xGV6NRGX6VzyvBdx6ad6iEs/HGOJgriMo9KIyzjqTJYQgAAEIAABCAQmkCVx2aNHDzvuuOMqzvjLL7+0QYMG2QorrGBLLrmk2yQs//CHP1jPnj1t5MiRdssttyAuKyYb7wmIy/TaIy7TueR5L+LST/UQl344xhIFcRlHpRGXcdSZLCEAAQhAAAIQCEygCOLyscces7322st+/OMfu3UuJTB79+5tY8eOtXnz5pnWweThPIFvpIKFR1ymFxRxmc4lz3sRl36qh7j0wzGWKIjLOCqNuIyjzmQJAQhAAAIQgEBgAkUQl+rS/NnPfmatW7c2TTd/6aWX7P3337f58+ebHpyjF+Iy8I1UsPCIy/SCIi7TueR5L+LST/UQl344xhIFcRlHpRGXcdSZLCEAAQhAAAIQCEygCOLyuuuus/79+9sjjzxikyZNck8kT4Rlgg9xmZDgZzkEEJfplBCX6VzyvBdx6ad6iEs/HGOJgriMo9KIyzjqTJYQgAAEIAABCAQmUARxOWXKFJs6daoTlk3hGjFihLVt29b69OlT1qbOTW3lHr/xxhvbqFGjmro8+3NGAHGZXjB9z9ZZZx07+OCDy/punHjiidavX7+yjtV3bdttt7WhQ4emX5y9QQggLv1gRVz64RhLFMRlHJVGXMZRZ7KEAAQgAAEIQCAwgSKIy3IQTZgwwc455xwnXCRdSm1bbLGFtWvXruRxSZwBAwa4bs9yxsIx2SeAuEyv0ezZs+2CCy6wI444oqzvxl//+lf3UKzke1Lq5+mnn24vvvhi+sXZG4QA4tIPVsSlH46xREFcxlFpxGUcdSZLCEAAAhCAAAQCE4hFXFaKsVevXu4BP5Wex/HFIIC49FPHwYMHW11dnZ9gRAlCAHHpByvi0g/HWKIgLuOoNOIyjjqTJQQgAAEIQAACgQkgLtMBIy7TucSyF3Hpp9KISz8cQ0ZBXPqhi7j0wzGWKIjLOCqNuIyjzmQJAQhAAAIQgEBgAojLdMCIy3QusexFXPqpNOLSD8eQURCXfugiLv1wjCUK4jKOSiMu46gzWUIAAhCAAAQgEJgA4jIdMOIynUssexGXfiqNuPTDMWQUxKUfuohLPxxjiYK4jKPSiMs46kyWEIAABCAAAQgEJoC4TAeMuEznEstexKWfSiMu/XAMGQVx6Ycu4tIPx1iiIC7jqDTiMo46kyUEIAABCEAAAoEJIC7TASMu07nEshdx6afSiEs/HENGQVz6oYu49MMxliiIyzgqjbiMo85kCQEIQAACEIBAYAKIy3TAiMt0LrHsRVz6qTTi0g/HkFEQl37oIi79cIwlCuIyjkojLuOoM1lCAAIQgAAEIBCYAOIyHTDiMp1LLHsRl34qLXHZoUMH+/DDD9kyyuCqq66yNm3a+Cl4xFEQlxEXvwWpIy5bAC2HpyAuc1g0hgwBCEAAAhCAQPYIIC7Ta4K4TOcSy17EpZ9KDxs2zDbbbDO7+uqr2TLK4Mgjj7StttrKT8EjjoK4jLj4LUgdcdkCaDk8BXGZw6IxZAhAAAIQgAAEskcAcZleE8RlOpdY9iIu/VT6iSeesAMOOMD22Wcftowy6Natm51xxhl+Ch5xFMRlxMVvQeqIyxZAy+EpiMscFo0hQwACEIAABCCQPQKIy/SaDBgwwNq2bWsbbrghW4QMNtpoI+vYsaN98skn6TcIe8si8MUXX9iMGTNs2rRpbBllMH36dPv444/LqicHNU0Acdk0Gz5ZlADiclEmRdyDuCxiVckJAhCAAAQgAIGqE0BcpiN/99137dFHH7W77rqLLUIG9913nz377LP29ddfp98g7IUABCBQjwDish4M/lmSAOKyJKJCHIC4LEQZSQICEIAABCAAgVoTQFzWugJcHwIQgAAE8k4AcZn3ClZ3/IjL6vKu1dUQl7Uiz3UhAAEIQAACECgUAcRlocpJMhCAAAQgUAMCiMsaQM/xJRGXOS5eBUNHXFYAi0MhAAEIQAACEIBAUwQQl02RYT8EIAABCECgPAKIy/I4cdT/J4C4jONOQFzGUWeyhAAEIAABCEAgMAHEZWDAhIcABCAAgcITQFwWvsReE0RcesWZ2WCIy8yWhoFBAAIQgAAEIJAnAojLPFWLsUIAAhCAQBYJIC6zWJXsjglxmd3a+BwZ4tInTWJBAAIQgAAEIBAtAcRltKUncQhAAAIQ8EQAcekJZCRhEJdxFBpxGUedyRICEIAABCAAgcAEEJeBARMeAhCAAAQKTwBxWfgSe00QcekVZ2aDIS4zWxoGBgEIQAACEIBAngggLvNULcYKAQhAAAJZJIC4zGJVsjsmxGV2a+NzZIhLnzSJBQEIQAACEIBAtAQQl9GWnsQhAAEIQMATAcSlJ5CRhEFcxlFoxGUcdSZLCEAAAhCAAAQCE0BcBgZMeAhETOCTTz6xF1980R5//HE2GNT8Hhg9erTNmTMnyDcScRkEa2GDIi4LW9oGiSEuG+DgDQQgAAEIQAACEGgZAcRly7hxFgQgUJrAHXfcYZtuuqn95je/YYNBze+BzTff3J566qnSN24LjkBctgBaxKcgLuMoPuIyjjqTJQQgAAEIQAACgQkgLgMDJjwEIiZw+eWXW+fOnW3+/PlsMKj5PdC6dWu79957g3wjEZdBsBY2KOKysKVtkBjisgEO3kAAAhCAAAQgAIGWEUBctowbZ0EAAqUJDB482Orq6kofyBEQqAKB9dZbD3FZBc5cojQBxGVpRkU4AnFZhCqSAwQgAAEIQAACNSeAuKx5CRgABApLAHFZ2NLmMjHEZS7LVshBIy4LWdZFkkJcLoKEHRCAAAQgAAEIQKByAojLyplxBgQgUB4BxGV5nDiqOgQQl9XhzFVKE0BclmZUhCMQl0WoIjlAAAIQgAAEIFBzAojLmpeAAUCgsAQQl4UtbS4TQ1zmsmyFHDTispBlXSQpxOUiSNgBAQhAAAIQgAAEKieAuKycGWdAAALlEUBclseJo6pDAHFZHc5cpTQBxGVpRkU4AnFZhCqSAwQgAAEIQAACNSeAuKx5CRgABApLAHFZ2NLmMjHEZS7LVshBIy4LWdZFkkJcLoKEHRCAAAQgAAEIQKByAojLyplxBgQgUB4BxGV5nDiqOgQQl9XhzFVKE0BclmZUhCMQl0WoIjlAAAIQgAAEIFBzAojLmpeAAUCgsAQQl4UtbS4TQ1zmsmyFHDTispBlXSQpxOUiSNgBAQhAAAIQgAAEKieAuKycGWdAAALlEUBclseJo6pDAHFZHc5cpTQBxGVpRkU4AnFZhCqSAwQgAAEIQAACNSeAuKx5CRgABHJD4LPPPrOhQ4faSSedZH379i257bLLLrbhhhuWPC6Jdf7559vYsWNzw4OB5osA4jJf9SryaBGXRa7u/+WGuPw/FvwLAhCAAAQgAAEItJgA4rLF6DgRAtERmDZtmq2//vr273//23r27FlyO/zww+3oo48ueVwSa5tttrFhw4ZFx5WEq0MAcVkdzlylNAHEZWlGRTgCcVmEKpIDBCAAAQhAAAI1J4C4rHkJGAAEckNg4sSJ1qpVKxs/fnyQMXfp0sUGDhwYJDZBIYC45B7ICgHEZVYqEXYciMuwfIkOAQhAAAIQgEAkBBCXkRSaNCHggQDi0gNEQtSMAOKyZui5cCMCiMtGQAr6FnFZ0MKSFgQgAAEIQAAC1SWAuKwub64GgTwTQFzmuXqMHXHJPZAVAojLrFQi7DgQl2H5Eh0CEIAABCAAgUgIIC4jKTRpQsADAcSlB4iEqBkBxGXN0HPhRgQQl42AFPQt4rKghSUtCEAAAhCAAASqSwBxWV3eXA0CeSaAuMxz9Rg74pJ7ICsEEJdZqUTYcSAuw/IlOgQgAAEIQAACkRBAXEZSaNKEgAcCiEsPEAlRMwKIy5qh58KNCCAuGwEp6FvEZUELS1oQgAAEIAABCFSXAOKyury5GgTyTABxmefqMXbEJfdAVgggLrNSibDjQFyG5Ut0CEAAAhCAAAQiIYC4jKTQpAkBDwQQlx4gEqJmBBCXNUPPhRsRQFw2AlLQt4jLghaWtCAAAQhAAAIQqC4BxGV1eXM1COSZAOIyz9Vj7IhL7oGsEEBcZqUSYceBuAzLl+gQgAAEIAABCERCAHEZSaFJEwIeCCAuPUAkRM0IIC5rhp4LNyKAuGwEpKBvEZcFLSxpQQACEIAABCBQXQKIy+ry5moQyCqBN9980x5++GGbN2+eff/996nDnD59um255Za28cYb20YbbVRya9eunXXq1KnkcUmsP/3pTzZ8+PDUa8e2c8GCBfbqq6+aBMfo0aPt22+/zT2COXPm2P/+9z8bMGCAzZ4925RjNV+lxKXGd+ONN9ott9xS8bCOPfZY69mzZ8XncUKcBBCXcdQdcRlHnckSAhCAAAQgAIHABBCXgQETHgI5IXDzzTdb+/btrVu3bnb99dfbRx99tIhY+vLLL+2JJ56wu+66y26//faSW69evWyLLbYoeVwS69FHH7Vp06blhFjYYUpUvvDCC3byySfbqFGj7Jtvvgl7wSpE//rrr+3999+3V155xb766qsmBXmooaSJS8nTWbNm2bnnnmv/+te/bJNNNrG+fftWPATEZcXIoj4BcRlH+RGXcdSZLCEAAQhAAAIQCEwAcRkYMOEhkBMC999/vxOXK620kvt5+OGHO4E5YcKEFkuzwYMHW11dXRAC3333nesOveOOO+zMM8904kndfPPnz3fC9ZNPPnHdm6eddpr77PHHH3efSQhOnTrVHnroIZsyZYo7dubMmfbiiy86KSs5+9hjj7muu/PPP9+uuuoqmzx5sr311lt26qmn2nHHHWcXXnihk4qSbxrHF198Yffdd5+dccYZ7vPbbrvNPv7447Lzlji755577KyzzrJBgwa562sczz//vBOXl112mWnT53feeafLW9dVLhr3pZde6q4r+abcku7MuXPnOumpDkeN/dprrzVxkazTpi7bK6+80p174okn2jPPPGM6Ry91H4qZ8j3++ONNYlvSUddt7qXrP/nkky52cpzuoaefftoJS13z3nvvdcwU68MPP3T3ma5zzjnn2COPPGISnK+//rqrh0S2pK1i3HTTTa4Weq/znnrqKXv55ZcX5ptcr6mf9cWlrjF+/Hi76KKLTPe6Plt22WVt9dVXt9NPP72pEE3uR1w2iYYPUgggLlOgFHAX4rKARSUlCEAAAhCAAASqTwBxWX3mXBECWSQgQSRptvzyy9tSSy1lSy+9tJsWLiEjESdxJ2HU1DTytJxCiUuNQbJQHZqSloceeqgdfPDBJtE4duxY10GnrlF1fHbv3t32339/69evnz333HMmIfjss8/aCSec4ESdcnr33XedwJP40xRmxVS8Aw880M477zx3vOSgOvIU65BDDnFCU+Lz888/d6JO4u2ggw6yv//973bYYYeZhGoiAdPYaJ/ykPyURJWUVB6K3b9/fyfuJBLVAdunTx+TWPz3v//tctJ+ibc33njDSdkDDjjA9tlnHze+Cy64wN577z0nN9Udq7z33Xdf69Gjh2Mh8SmpOmPGDCcjjzjiCPeZrnP22Wc7Fhq3riHZuffee7uclZs6bSUMm3tpervqLuErgartv//9rxOvDz74oJOW//nPf5xAFWt12+q9xq9a6X6TsFVtVU+N47PPPnPLGHTt2tVGjhzpcnvppZfs8ssvd/ESUdvcuPSZ5KTuZd0jWpLgyCOPtN/+9re2xBJLLNz23HNPN529VKzGnyMuGxPhfXMEEJfN0SnOZ4jL4tSSTCAAAQhAAAIQqCGBLIlLdb3oP641LZINBtwD1b8HJL1WXHHFhRInEZjrr7++E2fjxo3LhLiUbFQXpCSfBJc6Ft955x27++67XeeiJKsElOSUugQlwtRFJ4knaVeOuJS0kzSTWNQak/rdpCnOEp+Sc7queEh6Slqpc++DDz5wXZwSgEcffbT7rLlf7+o4lECURJVQVB6TJk1y6ywqvjoKt9lmG9eJKLGscaj7UR2UknlDhw51HZlam1R5qWtWHa7qGJVUXyH3TgAAIABJREFUVQfjKaecYmPGjHGiUPJV6zAqjqSm3ksqqvvy008/dSJQ7N5++227+OKL7aSTTjKtaypJLIGr92LZXNeleGuNSDFRPto0XtVC3NRtmYhLCcTevXu7zzR+dVlqvLqOxqxrSuoq9wceeMCOOeYYu+GGG9xYlas6MFWDcl8Sl4ovKf3LX/5y4X1eX1xKHrfkd4+kNmtcllsJjkNcxnEPIC7jqDNZQgACEIAABCAQmECWxKWmQuphHmussQYbDLgHanAPrLbaarbkkksuInQ0hVbSR12FklzlvkJ1XEqkSaCpAzFZLzEZkz7T2pDqzpMYk3jU9OjrrrvOdStqqrKEZKmOS4k7iTSdrzjqTJTQklhUPAlMTUtXF+duu+3mZJ2En4Sqpl9Lkkq+NfdSp6DGom5KiUQJ2eSlz5RH0umohyZJRqqTUUJSok+dmddcc83CKe+SqPoD0NVXX+3O1XEaizoolYfy+ec//+kEp+TmkCFDnDRUh6Y25SQpKbbqOlUXqPKVvFS3pOovoapuz6ZeEpWSsPvtt5/rCH3ttdecXNVUeEna+uJSXakSlxKQyk0dpBKTEoCSnJp6r7pJtI4YMcJ1Z2qfJLX+/0Lnay3Wcl+6h9daay0nLSXl6wvL5N8rr7xyi373rLDCCojLcgvBce6hW9tvv33ZJHbddVfXgVz2CRyYCQKIy0yUgUFAAAIQgAAEIJB3AlkSl/qPdv2Hs/4DnQ0G3APVvwfU1faTn/xkodCR3PnRj35km2++uevOk5TKwlRxrb+oTrxddtnFyUFJueSlz9SBqP/QlzjUZ5KZEmbqAixXXGqqudZrTKalSzD++c9/tp/+9Ke28847u3gSghKXnTt3NomrH//4x24Tsw4dOrgxJuNK+ykBqKnS6iRsSlyq+1Brd+r3Y31xqS5EdS6qa1L7NU51fErsaS1LTamWaNTnGqdEqOSkRKj4qMNSa1FK/mrcq6yyiutWFT+JS/1/wzLLLLMwJ8nrrbbaynVoimdTL41TwlU5aV3LW2+91S1BoH26ZmNx2bZtW7e2ZMJu1VVXtR133NFJVglYra0pEaqOTY1X+WmauLo4FUtT9ct9SVwOGzbMSeXf/e53C+/zRFrqp2RvS373SMDScVluJTiOjss47gHEZRx1JksIQAACEIAABAITyJK4DJwq4SEAgWYI6EEl6kKUQNL6lpJWO+ywgxM96prTA2zUbZkFcSlxpuneWhcxreNSMlG/25KOS41dnXyaBpwmLtXdp+nd9de41PGSg3qpC1EyS51+mpos2aj1FdWFqIfjSP5J0EnOaTzadKymczf3kuTTdPDmOi7rP1W8vrhUp6G6IiX3tF+1mThxopOZ2if5qJwk6pKOS3U0akqzpllrfUlx1LkSvOrATASquhsHDhzohGOSj36qo1TnNTdVXPeHujTFR0sPSDBqOrokcJq41D134403LuSmWigPdbOKrc6VfJWM1fVVI/1bcSVGK+kAlrhM1ulUzurabN26dQOB2bFjR3fN5uqW9pmkOOIyjQz70gggLtOoFG8f4rJ4NSUjCEAAAhCAAARqQABxWQPoXBICGSSgdQkldtR5p/UhNY1YXYYSZJXIofqphZoqri5KSTiNU92DkmmSZZqOLNElubjXXnu5Kch6mIw69DStWusb6r2kp373JU//1pOs9YCbNHEpYal4yiWRt5KNkoMSfHratTobJQg1fVtdqRKbOl7Txpt7iavy0DR0naNuR8lSjUvv1YWZJi4l7XSs5KCmpKu7UmMTC8lm5SP5p+5Bfa7xSxpqjMpTUlPSTx22ur66MdWtedRRRzmRKnkoWShmSf0lOzVNXZ/p+OZeiaBUZ6pEqThJ4ib7kzUuNQVc7FQz5ZOsj6m1OzUdX1PflaPGpbFrLOqy7Nu3r3sv9pW8dH/rfL2SnMVKsbVMibpmNVVcY6r0hbislFjcxyMu46g/4jKOOpMlBCAAAQhAAAKBCSAuAwMmPARyQuC+++5z60JK3mlqskRSc5115aQVSlxK+ElsSWqpW1EiS92C6hJ8/PHHnZyUeJUgk/TSuo+nnXaay0vSU2stSjTpKdaSmRJ0Oi5NXOp4rQ2ph/XoKdQ6T7HUYaluRQk5yS89NEfj0BPF9TRzjU2irbmX+Ep0ap1KPcxH41UMTYdWDSRImxKXmiL98ssvu85D5afr6gFC6sJUd6M+17g0bn2mJ5PrKenqbpSkVBetGImbclJukikSwKq9ri82egCSxqRuwiuuuMKJ2lIiW92SGpum62tM6nyVKGwsLpNOWI1B8lY10E+tXSkZreMlMTV2iVx1iCquxqT7VewqedUXl8l5qoFYqRNTHaoas+pb6QtxWSmxuI9HXMZRf8RlHHUmSwhAAAIQgAAEAhNAXAYGTHgI5ISAJJymOkvUVTIdvLn0QolLXVPyTN2Tl1xyiRNzmnKsDkKtk1v/M0k9faaOQXVPJi91M0rMSTiqe1JrZqpjUcdIimm6ucSZXppqLSEqYSYRJ8GpqcaScRJf+lxrMUr+6XN1K2qqeLkvdVlqWrXO1Xh0fck/dU1qfUdN409krWSmpqjrc00117qPkpU6V3mqSzHpiJSA1LGSapomrwcOiZli6Xx1XaojU+dq7UvllDCSFBQzfaYuTXV5aqq2rlnqJSYSy1qXUk96VyeqXhKPkph6GI9koY6TRNaUbV1H/NTVmXymPFQHddJqir/eS7pq/VExae4hQWljTBOX9Y/T+NQdqlpX+kJcVkos7uMRl3HUH3EZR53JEgIQgAAEIACBwAQQl4EBEx4CBSIgqam1DiXL9ITtUps66TQFt9RxyeeaOlyqSzEvOCXZ1FGodRolSZMck5+ahq+pzpJvvkRxaDYSjRKH6npM8qj/U5JRHZu6T7L4KiUuF2fMiMvFoRffuYjLOGqOuIyjzmQJAQhAAAIQgEBgAojLwIAJD4ECEVB3XPv27W3NNde0NdZYo+S2zjrr2CabbFLyuCSWjlU3XRFe6sJU995f/vIX+81vfrMIgzZt2rhp3JKb6oDMw0tCUutR6mnuSc3q//zTn/7k1tXUWpVZfCEus1iVOMeEuIyj7ojLOOpMlhCAAAQgAAEIBCaAuAwMmPAQKBABTV3W08Y13VfTasvZNPW4nON0zG677eaeZF0EZOqiVNdlc/kn0/Lz0nGpcWqquKbjp9VUuaqDVJ2ZWXwhLrNYlTjHhLiMo+6IyzjqTJYQgAAEIAABCAQmgLgMDJjwECgQAYnLVq1aufUFQ6TVpUsX94CdELGJCQHEJfdAVgggLrNSibDjQFyG5Ut0CEAAAhCAAAQiIYC4jKTQpAkBDwQQlx4gEqJmBBCXNUPPhRsRQFw2AlLQt4jLghaWtCAAAQhAAAIQqC4BxGV1eXM1COSZAOIyz9Vj7IhL7oGsEEBcZqUSYceBuAzLl+gQgAAEIAABCERCAHEZSaFJEwIeCCAuPUAkRM0IIC5rhp4LNyKAuGwEpKBvEZcFLSxpQQACEIAABCBQXQKIy+ry5moQyDMBxGWeq8fYEZfcA1khgLjMSiXCjgNxGZYv0SEAAQhAAAIQiIQA4jKSQpMmBDwQQFx6gEiImhFAXNYMPRduRABx2QhIQd8iLgtaWNKCAAQgAAEIQKC6BBCX1eXN1SCQZwKIyzxXj7EjLrkHskIAcZmVSoQdB+IyLF+iQwACEIAABCAQCQHEZSSFJk0IeCCAuPQAkRA1I4C4rBl6LtyIAOKyEZCCvkVcFrSwpAUBCEAAAhCAQHUJIC6ry5urQSDPBBCXea4eY0dccg9khQDiMiuVCDsOxGVYvkSHAAQgAAEIQCASAojLSApNmhDwQGDq1Km29tpr22GHHWbHH398ye20006zs846q+RxSawOHTrYkCFDPIyUEBBYlADiclEm7KkNAcRlbbhX+6qIy2oT53oQgAAEIAABCBSSAOKykGUlKQgEITB79mwbNGiQHXzwwda9e/eSW6dOnax169Ylj0tinXzyyfb8888HGTtBIYC45B7ICgHEZVYqEXYciMuwfIkOAQhAAAIQgEAkBBCXkRSaNCFQAwKDBw+2urq6GlyZS0JgUQKIy0WZsKc2BBCXteFe7asiLqtNnOtBAAIQgAAEIFBIAojLQpaVpCCQCQKIy0yUgUH8QABxya2QFQKIy6xUIuw4EJdh+RIdAhCAAAQgAIFICCAuIyk0aUKgBgQQlzWAziWbJIC4bBINH1SZAOKyysBrdDnEZY3Ac1kIQAACEIAABIpFAHFZrHqSDQSyRABxmaVqMBbEJfdAVgggLrNSibDjQFyG5Ut0CEAAAhCAAAQiIYC4jKTQpAmBGhBAXNYAOpdskgDiskk0fFBlAojLKgOv0eUQlzUCz2UhAAEIQAACECgWAcRlsepJNhDIEgHEZZaqwVgQl9wDWSGAuMxKJcKOA3EZli/RIQABCEAAAhCIhADiMpJCkyYEakAgEZffffedscGg1vcA4rIGvwS4ZCoBxGUqlsLtRFwWrqQkBAEIQAACEIBALQggLmtBnWtCIA4CV155pXXs2NFGjRrFBoOa3wMbbrihPfjgg0G+fMcee6z17NkzSGyCFo8A4rJ4NU3LCHGZRoV9EIAABCAAAQhAoEICiMsKgXE4BCBQNoGHH37Y6urq7Fe/+hUbDGp+D+y00042evTosu/fSg5EXFZCi2MRl3HcA4jLOOpMlhCAAAQgAAEIBCaAuAwMmPAQiJjAt99+a/PmzbPPP/+cDQY1vwd0Ly5YsCDINxJxGQRrYYMiLgtb2gaJIS4b4OANBCAAAQhAAAIQaBkBxGXLuHEWBCAAAQhAICGAuExI8LMcAojLcijl/xjEZf5rSAYQgAAEIAABCGSAAOIyA0VgCBCAAAQgkGsCiMtcl6/qg0dcVh15TS6IuKwJdi4KAQhAAAIQgEDRCCAui1ZR8oEABCAAgWoTQFxWm3i+r4e4zHf9yh094rJcUhwHAQhAAAIQgAAEmiGAuGwGDh9BAAIQgAAEyiCAuCwDEocsJIC4XIii0P9AXBa6vCQHAQhAAAIQgEC1CCAuq0Wa60AAAhCAQFEJIC6LWtkweSEuw3DNWlTEZdYqwnggAAEIQAACEMglAcRlLsvGoCEAAQhAIEMEEJcZKkYOhoK4zEGRPAwRcekBIiEgAAEIQAACEIAA4pJ7AAIQgAAEILB4BBCXi8cvtrMRl3FUHHEZR53JEgIQgAAEIACBwAQQl4EBEx4CEIAABApPAHFZ+BJ7TRBx6RVnZoMhLjNbGgYGAQhAAAIQgECeCCAu81QtxgoBCEAAAlkkgLjMYlWyOybEZXZr43NkiEufNIkFAQhAAAIQgEC0BBCX0ZaexCEAAQhAwBMBxKUnkJGEQVzGUWjEZRx1JksIQAACEIAABAITQFwGBkx4CEAAAhAoPAHEZeFL7DVBxKVXnJkNhrjMbGkYGAQgAAEIQAACeSKAuMxTtRgrBPJFYObMmfbyyy/bU089xQaDmt8DY8eOtc8++yzIlwhxGQRrYYMiLgtb2gaJIS4b4OANBCAAAQhAAAIQaBkBxGXLuHEWBCBQmsCdd95pbdu2tV/84hdsMKj5PbD55ps7eVr6zq38CMRl5cxiPgNxGUf1EZdx1JksIQABCEAAAhAITABxGRgw4SEQMYHLL7/cOnfu7Lrc1OnGBoNa3gOtW7e2++67L8g3EnEZBGthgyIuC1vaBokhLhvg4A0EIAABCEAAAhBoGQHEZcu4cRYEIFCawODBg62urq70gRwBgSoQWG+99ezee+8NciXEZRCshQ2KuCxsaRskhrhsgIM3EIAABCAAAQhAoGUEEJct48ZZEIBAaQKIy9KMOKJ6BBCX1WPNlZongLhsnk9RPkVcFqWS5AEBCEAAAhCAQE0JIC5rip+LQ6DQBBCXhS5v7pJDXOauZIUdMOKysKVtkBjisgEO3kAAAhCAAAQgAIGWEUBctowbZ0EAAqUJIC5LM+KI6hFAXFaPNVdqngDisnk+RfkUcVmUSpIHBCAAAQhAAAI1JYC4rCl+Lg6BQhNAXBa6vLlLDnGZu5IVdsCIy8KWtkFiiMsGOHgDAQhAAAIQgAAEWkYAcdkybpwFAQiUJoC4LM2II6pHAHFZPdZcqXkCiMvm+RTlU8RlUSpJHhCAAAQgAAEI1JQA4rKm+Lk4BApNAHFZ6PLmLjnEZe5KVtgBIy4LW9oGiSEuG+DgDQQgAAEIQAACEGgZAcRly7hxFgQgUJoA4rI0I46oHgHEZfVYc6XmCSAum+dTlE8Rl0WpJHlAAAIQgAAEIFBTAojLmuLn4hAoNAHEZaHLm7vkEJe5K1lhB4y4LGxpGySGuGyAgzcQgAAEIAABCECgZQQQly3jxlkQiJHAZ599ZldddZX169fPTjrppJLb7rvvbm3atCl5XBLrkksusXHjxsWIlpyrQABxWQXIXKIsAojLsjDl/iDEZe5LSAIQgAAEIAABCGSBAOIyC1VgDBDIB4Fp06bZBhtsYHvvvbftu+++JbeDDjrIjjjiiJLHJbG23nprGzZsWD5gMMrcEUBc5q5khR0w4rKwpW2QGOKyAQ7eQAACEIAABCAAgZYRQFy2jBtnQSBGAhMnTrRWrVrZ+PHjg6TfpUsXGzhwYJDYBIUA4pJ7ICsEEJdZqUTYcSAuw/IlOgQgAAEIQAACkRBAXEZSaNKEgAcCiEsPEAlRMwKIy5qh58KNCCAuGwEp6FvEZUELS1oQgAAEIAABCFSXAOKyury5GgTyTABxmefqMXbEJfdAVgggLrNSibDjQFyG5Ut0CEAAAhCAAAQiIYC4jKTQpAkBDwQQlx4gEqJmBBCXNUPPhRsRQFw2AlLQt4jLghaWtCAAAQhAAAIQqC4BxGV1eXM1COSZAOIyz9Vj7IhL7oGsEEBcZqUSYceBuAzLl+gQgAAEIAABCERCAHEZSaFJEwIeCCAuPUAkRM0IIC5rhp4LNyKAuGwEpKBvEZcFLSxpQQACEIAABCBQXQKIy+ry5moQyDMBxGWeq8fYEZfcA1khgLjMSiXCjgNxGZYv0SEAAQhAAAIQiIQA4jKSQpMmBDwQQFx6gEiImhFAXNYMPRduRABx2QhIQd8iLgtaWNKCAAQgAAEIQKC6BBCX1eXN1SCQZwKIyzxXj7EjLrkHskIAcZmVSoQdB+IyLF+iQwACEIAABCAQCQHEZSSFJk0IeCCAuPQAkRA1I4C4rBl6LtyIAOKyEZCCvkVcFrSwpAUBCEAAAhCAQHUJIC6ry5urQSDPBKZPn25bbLGFbbbZZmVtHTt2tO23376sY5OY1157bZ4RBRn7J598YnfeeacNHz7c5s6dG+QajYPOmTPH/ve//9kFF1xg+vd3333X+BD3/vvvv7evvvrKrr/+ervnnntsxowZixz3+eef23//+1+76aab7KOPPlrk82rtKCUuX3rpJRs0aJDdcMMNFQ/p2GOPtZ49e1Z8HifESQBxGUfdEZdx1JksIQABCEAAAhAITABxGRgw4SFQIAJffvmlPf74405C3XzzzVZqO/jgg23zzTcveVwS58EHH7QpU6YUiJifVN5//3274oornFSbPXu2n6AlokhGSlS//PLLTkxKUKa9tH/+/Pl23nnn2VVXXWWTJk1a5LDPPvvMLrvsMrvoootczEUOqNKONHGpsT/99NN2yimn2K677urE/BlnnFHxiBCXFSOL+gTEZRzlR1zGUWeyhAAEIAABCEAgMAHEZWDAhIdAxAQGDx5sdXV1uSDwzTffOKk2dOhQO/300+2aa66xN99803Ub6udDDz1k8+bNc52HkqvPPfecvf766/bxxx/b3Xffbbfeeqv179/fHn30UfeZOiQV48wzz7S3337bvvjiCxs9erRdfvnldvLJJ9vFF19s06ZNswULFphk5BNPPGF33HGHO0efS56NHz/eXf/++++3fffd13bffXd3nWQcjcGqK1KSUOOZMGGCE4rqcHz22WedcFaO2p566iknJGfOnOnGIHGsa2pTXurq1DWUt2Rycr13333Xrr76ajvnnHPcOB955BEbNWqUG7/EpcTkddddZ+eff74NHDjQxo0b5/KW7Nb499hjD1NH7aefftp46FV5X19cqotV4xowYIDts88+9tvf/tZWXHFF69Spk2Nc6YAQl5USi/t4xGUc9UdcxlFnsoQABCAAAQhAIDABxGVgwISHQMQE8iIuJQ/fe+89N925d+/etv/++9uhhx5qN954o73yyit211132dFHH+2Em+SgxN8ll1xit99+u5N7Bx10kGnbb7/97JZbbrErr7zSvdfUYe1XDHUuSlaqC3Xvvfd2m+TFhx9+aFo7VB1/PXr0cNf5+9//bltuuaWTnPpMYlHSUlJNYlVTr9OmbisPychjjjnGiVb9W9fW9Od+/fo5ISkpKamocY4dO9ZNQT/iiCOsa9eutvPOO9tJJ51kzz//vOOhvI866igXU9PF1VF5wAEHOD5HHnmkHXLIIXbWWWfZBx984DouTzjhBHedXr16ufGeeOKJJtkpiStp2blzZyc3azVdXOJS96Rkq9irDj//+c9t+eWXtyWXXNKJS41dHZiTJ0+uaFOdmSoe8S+7ClNHXFYILKeHIy5zWjiGDQEIQAACEIBAtgggLrNVD0YDgSIRyIu4VDekZKTk01tvveWmRmt9x9tuu81GjhxZUlxKdqkLUVO6v/76ayfq+vTp47oPNZVaXY6SlmeffbbraJw1a5britxuu+1cN6Q6GyVMtb344otOZmptScnTN954w3WCljtVXNe/9NJL3XR+dYYqnq6rTR2e2iQu1RmqTk4JU63pKBGqDtLu3bs7uafrJuJSXaWSnJK3kqgSlU8++aQTrfXFpWSmztHxDzzwgG2zzTaOq7hkZaq4BO3f/vY3+8UvfmHLLbecLbHEEgu31VZbzXWGaqyVbn/9618Rl0X65RU4F8RlYMAZCY+4zEghGAYEIAABCEAAAvkmgLjMd/0YPQSyTCAv4lIiTt2Tko2axly/m1HdgaU6Lg877DD34Bx1OCbiUkJQU6kVSzF1jKZTq/NS19P0bXXo6ZhXX33VTdOWrJTkU0elpjH/5z//qVhcSpJqqri6LHUNdU+qS1MPz9F0dG2SJhK1msou6frYY4+5h+ZIap522mnueE1rT8SlGGgqvGLqATZ66VhNG68vLpXfmDFjHANJUP3/i6aeZ0lcaumCrbbayn7yk5/Y0ksvvVBaSmBq35///GfXVaraVLJtvPHGiMss/zLK2NgQlxkrSKDhIC4DgSUsBCAAAQhAAAJxEUBcxlVvsoVANQnkRVxqOrbWnmypuNRU6xEjRrip2Im4VAemJGV9cbnWWmvZyiuv7ATZSiutZKussooNGTLEyUB1REokao3KxRGXmi6utTElEbVm5r333uviqnNUT/XWpnUoNTZdTw9P0tqOknba1IWoztOk01RTxSUutX6l1t1sTlxqirxYikFWxaWebq6uWuXTrl07W3bZZRfKy6WWWsr69u3rHhClLtxKNnXLMlW8mr9d8n0txGW+61fu6BGX5ZLiOAhAAAIQgAAEINAMAcRlM3D4CAIQWCwCeRGX6ghUR2G54lIyUA/iSda4lLhU16LWj0zEpR76ovUlE3Gph7dIJkpwqptRm7oTJQW1DqREpx5coxiLIy41NV3yU1PLFU/T3dWB+cwzz7gH0aijUl2eWsNRa3hKuN1zzz0Lx6Rx6TN1VNbvuJTwVE7NicvkqeJZFpeqncan6ezKReJYa4dKIqsDU1O+lXelLx7OUymxuI9HXMZRf8RlHHUmSwhAAAIQgAAEAhNAXAYGTHgIREwgL+JSU7nvu+8+69atm3sCuMTWCy+84DoWtVZj8nAcdTLqCeDq1tM07nLEpUTiV1995c658MILXafjl19+6X5qOrnkpuL6FJfqupSUVPegrqlc1GWop6Vrn7otJUe1zqX2SWxqnHpQkISKRKbGlIhLST6tlalz1cWpJ3JrCrimv9efKp4XcZl8JTWtXjlrvU49bGmXXXaxTTbZxPSQoUqffI64TKjysxwCiMtyKOX/GMRl/mtIBhCAAAQgAAEIZIAA4jIDRWAIECgogbyIy/nz57upzWeeeaaTcRJXxx13nFvrUcJO60Hqd6XWg9Q6lHpatiReOeIyKa06GXXu8ccf787Vg3c0DVuC8J133mlWXKorc9iwYe4p3prqPG/evAbrcCbXqP9Ta2Qefvjhbl3K6dOn24wZM9xU73PPPdd1VKoTVA/vkeCUdDv55JPd8RqXuhI15TsRlxKV2iRbJGxPPfVUF1f/LkdcSnxq/Dp++PDhpocT1eKlp4ort7SXxqhOVD24SOuBqmu1khfishJaHIu4jOMeQFzGUWeyhAAEIAABCEAgMAHEZWDAhIdAxATyIi5VoqQLUusUqvNS06I1lfvbb7913XeaSt6jRw/XoagOTHVoSmq+9957TnTpKdwSoDpeU5D1+dSpUxdWX919elK5pJ/i6wndenCO9ksK6ngJUsXQpieNS6BJOEpUjho1yslCPRBH3ZISj829NNVbY9bUdOU2Z84c11mpa+jfeqkzU9PUJVE0Jm0So3p4kK6hPCQ2k+tp3Up1hmp6uYSl1rxU96keSvTggw+6B/9IAIqBZKnqP2HCBLdW5NNPP+26PyUwJWJr8WpOXCbjUael8qn0hbislFjcxyMu46g/4jKOOpMlBCAAAQhAAAKBCSAuAwMmPAQKRCBZu1DCTU+sLrWpa3HrrbcueVwSZ+zYsU7iFQiZ11QkBNWtqOnlmqqdcEt+SqROmjTJreGoqd++XooleTlu3Dh3TU2tltBUZ6q6FCVG8/AqR1y2NA/EZUvJxXke4jKOuiMu46gzWUIAAhCAAAQgEJgA4jIwYMJDoEAE1P3XoUMHW2ONNWy11VYruf3ud7+z9ddfv+RxSayNN94eiB+wAAAgAElEQVTYbrjhhgIR85uKHtyjp31vu+22tvrqqy/CdZ111nFT0dXRqG5KXy91d2pdzM6dOy+8pp7Ire7PPL0Ql3mqVrHHirgsdn2T7BCXCQl+QgACEIAABCAAgcUggLhcDHicCoHICGjdwx/96EfuCdR6SE05m6Yll3Ocjtltt91MazDySiegzkdNLdf6i2lMxTpZ/9J3x6W6PSVOk+tqDHroUJ5eiMs8VavYY0VcFru+SXaIy4QEPyEAAQhAAAIQgMBiEEBcLgY8ToVAZAQkLlu1auUeKBMi9S5duriHo4SITUwIIC65B7JCAHGZlUqEHQfiMixfokMAAhCAAAQgEAkBxGUkhSZNCHgggLj0AJEQNSOAuKwZei7ciADishGQgr5FXBa0sKQFAQhAAAIQgEB1CSAuq8ubq0EgzwQQl3muHmNHXHIPZIUA4jIrlQg7DsRlWL5EhwAEIAABCEAgEgKIy0gKTZoQ8EAAcekBIiFqRgBxWTP0XLgRAcRlIyAFfYu4LGhhSQsCEIAABCAAgeoSQFxWlzdXg0CeCSAu81w9xo645B7ICgHEZVYqEXYciMuwfIkOAQhAAAIQgEAkBBCXkRSaNCHggQDi0gNEQtSMAOKyZui5cCMCiMtGQAr6FnFZ0MKSFgQgAAEIQAAC1SWAuKwub64GgTwTQFzmuXqMHXHJPZAVAojLrFQi7DgQl2H5Eh0CEIAABCAAgUgIIC4jKTRpQsADAcSlB4iEqBkBxGXN0HPhRgQQl42AFPQt4rKghSUtCEAAAhCAAASqSwBxWV3eXA0CeSaAuMxz9Rg74pJ7ICsEEJdZqUTYcSAuw/IlOgQgAAEIQAACkRBAXEZSaNKEgAcCU6dOtT/84Q/Wu3dvO/XUU0tu/fv3t0GDBpU8LonVoUMHGzJkiIeREgICixJAXC7KhD21IYC4rA33al8VcVlt4lwPAhCAAAQgAIFCEkBcFrKsJAWBIARmzZplZ599tvXo0cO6du1acuvYsaNJFpVzrI45/vjj7dlnnw0ydoJCAHHJPZAVAojLrFQi7DgQl2H5Eh0CEIAABCAAgUgIIC4jKTRpQqAGBAYPHmx1dXU1uDKXhMCiBBCXizJhT20IIC5rw73aV0VcVps414MABCAAAQhAoJAEEJeFLCtJQSATBBCXmSgDg/iBAOKSWyErBBCXWalE2HEgLsPyJToEIAABCEAAApEQQFxGUmjShEANCCAuawCdSzZJAHHZJBo+qDIBxGWVgdfocojLGoHnshCAAAQgAAEIFIsA4rJY9SQbCGSJAOIyS9VgLIhL7oGsEEBcZqUSYceBuAzLl+gQgAAEIAABCERCAHEZSaFJEwI1IIC4rAF0LtkkAcRlk2j4oMoEEJdVBl6jyyEuawSey0IAAhCAAAQgUCwCiMti1ZNsIJAlAojLLFWDsSAuuQeyQgBxmZVKhB0H4jIsX6JDAAIQgAAEIBAJAcRlJIUmTQjUgMDQoUOtXbt29sQTT7DBoOb3wNprr233339/kG/Cscceaz179gwSm6DFI4C4LF5N0zJCXKZRYR8EIAABCEAAAhCokADiskJgHA4BCJRN4Pbbb7fOnTvbQQcdxAaDmt8DHTp0sCeffLLs+7eSAxGXldDiWMRlHPcA4jKOOpMlBCAAAQhAAAKBCSAuAwMmPAQiJjB58mS755572GCQmXvggw8+CPKNRFwGwVrYoIjLwpa2QWKIywY4eAMBCEAAAhCAAARaRgBx2TJunAUBCJQmsGDBAvv666/ZYJCZe+C7774rfeO24AjEZQugRXwK4jKO4iMu46gzWUIAAhCAAAQgEJgA4jIwYMJDAAIQgEDhCSAuC19irwkiLr3izGwwxGVmS8PAIAABCEAAAhDIEwHEZZ6qxVghAAEIQCCLBBCXWaxKdseEuMxubXyODHHpkyaxIAABCEAAAhCIlgDiMtrSkzgEIAABCHgigLj0BDKSMIjLOAqNuIyjzmQJAQhAAAIQgEBgAojLwIAJDwEIQAAChSeAuCx8ib0miLj0ijOzwRCXmS0NA4MABCAAAQhAIE8EEJd5qhZjhQAEIACBLBJAXGaxKtkdE+Iyu7XxOTLEpU+axIIABCAAAQhAIFoCiMtoS0/iEIAABCDgiQDi0hPISMIgLuMoNOIyjjqTJQQgAAEIQAACgQkgLgMDJjwEIAABCBSeAOKy8CX2miDi0ivOzAZDXGa2NAwMAhCAAAQgAIE8EUBc5qlajBUCEIAABLJIAHGZxapkd0yIy+zWxufIEJc+aRILAhCAAAQgAIFoCSAuoy09iUMAAhCAgCcCiEtPICMJg7iMo9CIyzjqTJYQgAAEIAABCAQmgLgMDJjwEIAABCBQeAKIy8KX2GuCiEuvODMbDHGZ2dIwMAhAAAIQgAAE8kQAcZmnajFWCEAAAhDIIgHEZRarkt0xIS6zWxufI0Nc+qRJLAhAAAIQgAAEoiWAuIy29CQOgeAEZs2aZa+99pq98MILbBllMGbMGJs4cWLwe6HoF0BcFr3CfvNDXPrlmdVoiMusVoZxQQACEIAABCCQKwKIy1yVi8FCIFcE7rzzTmvbtq2tuuqqbBll8Lvf/c66deuWq/sqi4NFXGaxKtkdE+Iyu7XxOTLEpU+axIIABCAAAQhAIFoCiMtoS0/iEAhOYMiQIdapUyebOXMmW0YZDB8+3Mnl4DdDwS+AuCx4gT2nh7j0DDSj4RCXGS0Mw4IABCAAAQhAIF8EEJf5qhejhUCeCAwePNjq6uryNOToxnrHHXdYmzZtosvbd8KIS99Eix0PcVns+ibZIS4TEvyEAAQgAAEIQAACi0EAcbkY8DgVAhBolgDislk8mfgQcemnDIhLPxxjiYK4jKPSiMs46kyWEIAABCAAAQgEJoC4DAyY8BCImADiMvvFR1z6qRHi0g/HWKIgLuOoNOIyjjqTJQQgAAEIQAACgQkgLgMDJjwEIiaAuMx+8RGXfmqEuPTDMZYoiMs4Ko24jKPOZAkBCEAAAhCAQGACiMvAgAkPgYgJIC6zX3zEpZ8aIS79cIwlCuIyjkojLuOoM1lCAAIQgAAEIBCYAOIyMGDCQyBiAojL7BcfcemnRohLPxxjiYK4jKPSiMs46kyWEIAABCAAAQgEJoC4DAyY8BCImADiMvvFR1z6qRHi0g/HWKIgLuOoNOIyjjqTJQQgAAEIQAACgQkgLgMDJjwEIiaAuMx+8RGXfmqEuPTDMZYoiMs4Ko24jKPOZAkBCEAAAhCAQGACiMvAgAkPgYgJIC6zX3zEpZ8aIS79cIwlCuIyjkojLuOoM1lCAAIQgAAEIBCYAOIyMGDCQ6BABObOnWvDhw+3/v37W79+/Upue+65p2200UYlj0tiSXS+9tprBSKW/VQQl35qhLj0wzGWKIjLOCqNuIyjzmQJAQhAAAIQgEBgAojLwIAJD4ECEZg2bZptuOGGJiG5zz77lNx69OhhhxxySMnjkljt2rWzK6+8skDEsp8K4tJPjRCXfjjGEgVxGUelEZdx1JksIQABCEAAAhAITABxGRgw4SFQIAITJ060Vq1a2fjx44Nk1aVLFxs4cGCQ2ARNJ4C4TOdS6V7EZaXE4j4ecRlH/RGXcdSZLCEAAQhAAAIQCEwAcRkYMOEhUCACiMsCFfOHVBCXfmqKuPTDMZYoiMs4Ko24jKPOZAkBCEAAAhCAQGACiMvAgAkPgQIRQFwWqJg/pIK49FNTxKUfjrFEQVzGUWnEZRx1JksIQAACEIAABAITQFwGBkx4CBSIAOKyQMX8IRXEpZ+aIi79cIwlCuIyjkojLuOoM1lCAAIQgAAEIBCYAOIyMGDCQ6BABBCXBSrmD6kgLv3UFHHph2MsURCXcVQacRlHnckSAhCAAAQgAIHABBCXgQETHgIFIoC4LFAxf0gFcemnpohLPxxjiYK4jKPSiMs46kyWEIAABCAAAQgEJoC4DAyY8BAoEAHEZYGK+UMqiEs/NUVc+uEYSxTEZRyVRlzGUWeyhAAEIAABCEAgMAHEZWDAhIdAgQggLgtUzB9SQVz6qSni0g/HWKIgLuOoNOIyjjqTJQQgAAEIQAACgQkgLgMDJjwECkQAcVmgYv6QCuLST00Rl344xhIFcRlHpRGXcdSZLCEAAQhAAAIQCEwAcRkYMOEhUCACiMsCFfOHVBCXfmqKuPTDMZYoiMs4Ko24jKPOZAkBCEAAAhCAQGACiMvAgAkPgQIRmD59um222Wa21VZbWbt27UpunTt3tr/97W8lj0tiKfa1115bIGLZTwVx6adGiEs/HGOJgriMo9KIyzjqTJYQgAAEIAABCAQmgLgMDJjwECgQgXnz5tkjjzxiN9xwgw0fPrzkdsABBzjRWc6xOuaee+6xSZMmFYhY9lNBXPqpEeLSD8dYoiAu46g04jKOOpMlBCAAAQhAAAKBCSAuAwMmPAQiJjB48GCrq6srBIHvv//evvzyS3vggQfspZdesjlz5lSUl45/+umn7ZVXXrGvvvqqonNDHlxKXH733XcmYf3iiy/a7NmzQw4l17ERl7kuX9UHj7isOvKaXBBxWRPsXBQCEIAABCAAgaIRQFwWraLkA4HsECiSuJTA+/TTT61Xr142ZMgQmzp1akWgP/nkE7v77rvtiSeecAK0opMDHtyUuFywYIFpzM8884xdccUVpu7Z119/PeBI8h0acZnv+lV79IjLahOvzfUQl7XhzlUhAAEIQAACECgYAcRlwQpKOhDIEIE8iEt1E06ZMsVGjx7tOikl59QdKXGnLsu5c+fahAkT3OfqlpTAk7jUg4okMidPnmzvvfeejRkzxl599VX78MMP7f3333eST8d/8MEHJumpLkvtlwzUv2fNmuViKM7YsWNt3LhxLs7XX39d1Qo2FpfKe+bMmW4811xzje266662zDLL2O9//3t79tlnqzq2PF0McZmnatV+rIjL2tegGiNAXFaDMteAAAQgAAEIQKDwBBCXhS8xCUKgZgSyLi4l6SQsDznkEFt55ZXtpz/9qW266aZ23333uWnRmho+cuRI22uvveznP/+5HXTQQe5hQ8rr5ZdftltuucV69Ohh/fv3t9VXX9023HBDO/fcc917PcBo7bXXtnPOOcc+//xzJ0fPPvts9/Ahycrbb7/dxe3WrZuTgjq2X79+FXdyLm5xE3EpuTp//nwnT9Vhue222zphueyyy9pKK63k8pgxY4aTuRK6sW5N8UZcNkWG/WkEEJdpVIq3D3FZvJqSEQQgAAEIQAACNSCAuKwBdC4JgUgIZF1cqpNy4MCBdsYZZ9i7777r5OLpp59uEoxvvvmmPfXUU3bqqae6z/XQoMcff9zJSR0jcTls2DDbeeed7eabbzZJvUsuucT22GMPO/PMM92akJKT//jHP9y6luPHj3dx9dR0icsrr7zSiVId8/bbb9vFF19skl96QFE1XxKX66+/vn388cc2aNAgJ24lcJdbbjlbYoklbKmllrI11ljD3nrrLdcp+s0331iyffvtt9bSTdJ4cTaJ1pZuiyNdm6oN4rIpMuxPI4C4TKNSvH2Iy+LVlIwgAAEIQAACEKgBAcRlDaBzSQhEQiDr4lIdldOnT3ebBJzeX3fdda67UNO3tSaluilHjRrlBJ2meR955JFOWEpcSkLut99+bqq3ztfxp512mt17771uuvnzzz9v6qjUsY3F5U033WSdOnVyU8rV6ThixAg777zzXCdmNW8PiUt1k/bt29cJTAnLJZdc0klLiUtt6rrccsstXRemOjEbb+3bt7dabNtss41Vc9t6662tqe1Xv/qV9ezZs5ql41o5JoC4zHHxKhg64rICWBwKAQhAAAIQgAAEmiKAuGyKDPshAIHFJZB1cSnZqKdlq8NSglG/Dzt27GjHHHOMvfDCC6Y1Hk8++WS33qO69CQ2zzrrLLv++uudjFSn5VFHHeXWrlT330MPPWQXXHCBE51ax1JPH+/evXuquLzzzjud6NL6mOo81ENwJDPUgVnNl8Sl1q98+OGH3Vgl4CQql156aSctJTF/8pOfuI5Q5Z22SfbmZRs+fLiF2NR5i7is5p2b72shLvNdv3JHj7gslxTHQQACEIAABCAAgWYIIC6bgcNHEIDAYhHIurjU9G89aOeII46wE044wY4//njbc8897bjjjnNCU4JLU8X14Jw0cXnrrbe6c/SQnkrFpboz1b2pKdq1Fpdam1OiVQ/fkXjt2rWrtW7d2q1x+aMf/chNadcUdj20iFc6AaaKp3NhbzoBxGU6l6LtRVwWraLkAwEIQAACEIBATQggLmuCnYtCIAoCWReXTz75pOug1HqT6qbUk761zqPWvNQTwdWFqPfqpNTTvvVUcHXVKS9N/y6KuGzTps3C+1HrV+qBRQMGDLDdd9/dNtpoI1thhRXcWp1vvPHGwuP4R0MCiMuGPHjXPAHEZfN8ivIp4rIolSQPCEAAAhCAAARqSgBxWVP8XBwCuSIgeae1GseMGePklgRXc9uJJ57o1iBs7pj6n73++uum7sVqvTSVW4JO61hqqrbWstRTwiWhJC71QBp1ZJ500kkmyam1K/W0cD0pvKjiMmGvafTvvPOOe0p6u3btbN1113Udmcnn/GxIAHHZkAfvmieAuGyeT1E+RVwWpZLkAQEIQAACEIBATQkgLmuKn4tDIFcEtB6j1oDUw1xWXnnlktuvf/1rW2eddUoel8RSd9+NN95YNSZz5851T/eWmFtzzTXdGpdae/KUU04xPVhHXZhPP/202/+LX/zCevXqZZKxWhdSYlPH9uvXz3Vqaqq4HrBz6aWXunM09VoP+Dn00EPdVHNJwPPPP9/0UJ7JkyfbAw884KaZ64E/miqu6w0dOrQmTxWv33HZGL7y+vzzz90alnpyOq90AojLdC7sTSeAuEznUrS9iMuiVZR8IAABCEAAAhCoCQHEZU2wc1EI5JLAxIkTTU+d1lqIH330UclN6zdKzJVzrI7ZddddXYdfteBIyklOzpw50601OXv2bNMTviXq1F2qdS31U/s1vs8++8wkO3WMplQnxyqOjpWsnDdv3sJzdYzO0U91MH7xxRfuehKVOlaxknN1jM5VzGq+JGGbE5fKK+GkcfNKJ4C4TOfC3nQCiMt0LkXbi7gsWkXJBwIQgAAEIACBmhBAXNYEOxeFQC4JSFy2atXKTRcPkUCXLl1s4MCBIUITswkCpcRlE6exuxEBxGUjILxtlgDislk8hfkQcVmYUpIIBCAAAQhAAAK1JIC4rCV9rg2BfBFAXOarXuWMFnFZDqXSxyAuSzPiiP8jgLj8PxZF/hfissjVJTcIQAACEIAABKpGAHFZNdRcCAK5J4C4zH0JF0kAcbkIkhbtQFy2CFu0JyEu4yg94jKOOpMlBCAAAQhAAAKBCSAuAwMmPAQKRABxWaBi/pAK4tJPTRGXfjjGEgVxGUelEZdx1JksIQABCEAAAhAITABxGRgw4SFQIAKIywIV84dUEJd+aoq49MMxliiIyzgqjbiMo85kCQEIQAACEIBAYAKIy8CACQ+BAhFAXBaomD+kgrj0U1PEpR+OsURBXMZRacRlHHUmSwhAAAIQgAAEAhNAXAYGTHgIFIgA4rJAxfwhFcSln5oiLv1wjCUK4jKOSiMu46gzWUIAAhCAAAQgEJgA4jIwYMJDoEAEEJcFKuYPqSAu/dQUcemHYyxREJdxVBpxGUedyRICEIAABCAAgcAEEJeBARMeAgUigLgsUDF/SAVx6aemiEs/HGOJgriMo9KIyzjqTJYQgAAEIAABCAQmgLgMDJjwECgQgalTp9paa61lxxxzjJ155pklt4EDB9oFF1xQ8rgkVseOHe3yyy8vELHsp4K49FMjxKUfjrFEQVzGUWnEZRx1JksIQAACEIAABAITQFwGBkx4CBSIwKxZs+yMM86wbt262d57711ya9++va277rolj0ti9enTx55++ukCEct+KohLPzVCXPrhGEsUxGUclUZcxlFnsoQABCAAAQhAIDABxGVgwISHQMQEBg8ebHV1dRETyH7qiEs/NUJc+uEYSxTEZRyVRlzGUWeyhAAEIAABCEAgMAHEZWDAhIdAxAQQl9kvPuLST40Ql344xhIFcRlHpRGXcdSZLCEAAQhAAAIQCEwAcRkYMOEhEDEBxGX2i4+49FMjxKUfjrFEQVzGUWnEZRx1JksIQAACEIAABAITQFwGBkx4CERMAHGZ/eIjLv3UCHHph2MsURCXcVQacRlHnckSAhCAAAQgAIHABBCXgQETHgIRE0BcZr/4iEs/NUJc+uEYSxTEZRyVRlzGUWeyhAAEIAABCEAgMAHEZWDAhIdAxAQQl9kvPuLST40Ql344xhIFcRlHpRGXcdSZLCEAAQhAAAIQCEwAcRkYMOEhEDEBxGX2i4+49FMjxKUfjrFEQVzGUWnEZRx1JksIQAACEIAABAITQFwGBkx4CERMAHGZ/eIjLv3UCHHph2MsURCXcVQacRlHnckSAhCAAAQgAIHABBCXgQETHgIRE0BcZr/4iEs/NUJc+uEYSxTEZRyVRlzGUWeyhAAEIAABCEAgMAHEZWDAhIdAxAQQl9kvPuLST40Ql344xhIFcRlHpRGXcdSZLCEAAQhAAAIQCEwAcRkYMOEhEDEBxGX2i4+49FMjxKUfjrFEQVzGUWnEZRx1JksIQAACEIAABAITQFwGBkx4CERMQOKyU6dO9tVXX7FllMGtt95qbdq0ifgu9ZM64tIPx1iiIC7jqDTiMo46kyUEIAABCEAAAoEJIC4DAyY8BCImcP3111v79u3trLPOYssog549e9qOO+4Y8V3qJ3XEpR+OsURBXMZRacRlHHUmSwhAAAIQgAAEAhNAXAYGTHgIREzgpZdeshNOOMG6du3KllEGhxxyiA0dOjTiu9RP6ohLPxxjiYK4jKPSiMs46kyWEIAABCAAAQgEJoC4DAyY8BCAAAQgUHgCiMvCl9hrgohLrzgzGwxxmdnSMDAIQAACEIAABPJEAHGZp2oxVghAAAIQyCIBxGUWq5LdMSEus1sbnyNDXPqkSSwIQAACEIAABKIlgLiMtvQkDgEIQAACngggLj2BjCQM4jKOQiMu46gzWUIAAhCAAAQgEJgA4jIwYMJDAAIQgEDhCSAuC19irwkiLr3izGwwxGVmS8PAIAABCEAAAhDIEwHEZZ6qxVghAAEIQCCLBBCXWaxKdseEuMxubXyODHHpkyaxIAABCEAAAhCIlgDiMtrSkzgEIAABCHgigLj0BDKSMIjLOAqNuIyjzmQJAQhAAAIQgEBgAojLwIAJDwEIQAAChSeAuCx8ib0miLj0ijOzwRCXmS0NA4MABCAAAQhAIE8EEJd5qhZjhQAEIACBLBJAXGaxKtkdE+Iyu7XxOTLEpU+axIIABCAAAQhAIFoCiMtoS0/iEIAABCDgiQDi0hPISMIgLuMoNOIyjjqTJQQgAAEIQAACgQkgLgMDJjwEIAABCBSeAOKy8CX2miDi0ivOzAZDXGa2NAwMAhCAAAQgAIE8EUBc5qlajBUCEIAABLJIAHGZxapkd0yIy+zWxufIEJc+aRILAhCAAAQgAIFoCSAuoy09iUMAAhCAgCcCiEtPICMJg7iMo9CIyzjqTJYQgAAEIAABCAQmgLgMDJjwEIAABCBQeAKIy8KX2GuCiEuvODMbDHGZ2dIwMAhAAAIQgAAE8kQAcZmnajFWCEAAAhDIIgHEZRarkt0xIS6zWxufI0Nc+qRJLAhAAAIQgAAEoiWAuIy29CQOAQhAAAKeCCAuPYGMJAziMo5CIy7jqDNZQgACEIAABCAQmADiMjBgwkMAAhCAQOEJIC4LX2KvCSIuveLMbDDEZWZLw8AgAAEIQAACEMgTAcRlnqrFWCEAAQhAIIsEEJdZrEp2x4S4zG5tfI4McemTJrEgAAEIQAACEIiWAOIyvfQjR460s88+20455RS2jDLo37+/PfDAA+kFZC8EIACBKhJAXFYRdgEuhbgsQBHLSAFxWQYkDoEABCAAAQhAAAKlCCAu0wmdfvrpttdee9nAgQPZMspgn332sT59+qQXkL0QgAAEqkgAcVlF2AW4FOKyAEUsIwXEZRmQOAQCEIAABCAAAQiUIoC4TCfUq1cv69q1q7366qtsGWWgGkle8sougbffftuuvPJK172sDma27DG46KKL7P7778/uTZSTkSEuc1KojAwTcZmRQgQeBuIyMGDCQwACEIAABCAQBwHEZXqdJcV69+6d/iF7M0GgX79+iMtMVKLpQdx88822xRZbuO5ldTCzZY/B9ttvb126dGm6iHxSFgHEZVmYOOgHAojLOG4FxGUcdSZLCEAAAhCAAAQCE0BcpgNGXKZzydJexGWWqpE+lsGDB1tdXV36h+zNBIE77rjD2rRpk4mx5HkQiMs8V6/6Y0dcVp95La6IuKwFda4JAQhAAAIQgEDhCCAu00uKuEznkqW9iMssVSN9LIjLdC5Z2ou49FMNxKUfjrFEQVzGUWnEZRx1Jsv/1969QGtWz/8D/ynLrSUrCyEpU1FLIUksikrRhWKsWi2mmUopt0aFXNIqohCyEqlQ5JKRanSjKXfposuQiJmakC4UairU97/eu//TOvKc85w5z/Pss8+zX89ae82ZZ+/9/e7v67P30Pt8994ECBAgQIDAkAUEl92BBZfdXZr0reCySdXofiyCy+4uTfpWcDmYagguB+PYllYEl+2otOCyHXU2SgIECBAgQGDIAoLL7sCCy+4uTfpWcNmkanQ/FsFld5cmfSu4HEw1BJeDcWxLK4LLdlRacNmOOhslAQIECBAgMGQBwWV3YMFld5cmfSu4bFI1uh+L4LK7S5O+FVwOphqCy8E4tqUVwWU7Ki24bEedjZIAAQIECBAYsoDgsjuw4LK7S5O+FVw2qRrdj0Vw2d2lSd8KLgdTDcHlYBzb0tJQA+kAACAASURBVIrgsh2VFly2o85GSYAAAQIECAxZQHDZHVhw2d2lSd8KLptUje7HIrjs7tKkbwWXg6mG4HIwjm1pRXDZjkoLLttRZ6MkQIAAAQIEhizQluBy+fLlZdmyZWXp0qWTWubMmVP22muvSW2bNm+88cZy9913D7lamh8rILgcq9HMnwWXzazL2KMSXI7VmPrPgsup27VxT8FlO6ouuGxHnY2SAAECBAgQGLJAW4LLK664ogoid9111zKZZcMNNyzPec5zJrVt2kvIuXjx4iFXS/NjBQSXYzWa+bPgspl1GXtUgsuxGlP/WXA5dbs27im4bEfVBZftqLNREiBAgAABAkMWaEtwuXDhwrLOOuuUU045ZVJLQrHDDjtsUtuefPLJZa211irnn3/+kKul+bECgsuxGs38WXDZzLqMPSrB5ViNqf8suJy6XRv3FFy2o+qCy3bU2SgJECBAgACBIQu0Jbg844wzyjOf+cxyyy23TGrJbeVZJrP9zTffXNZee+1yzjnnDLlamh8rILgcq1HPz7feemuZP39+2XbbbcsWW2zRc8ms5VmzZvXcrtPW3LlzywUXXFDPYPRSCQguB3MiCC4H49iWVgSX7ai04LIddTZKAgQIECBAYMgCbQouN9hgg6Fo3n///dVsTsHlUHjHbVRwOS7N0FZcf/31ZY011ihHHnlkOfHEE3sumY186qmn9tyu09ZWW21Vjj322KEdv4b/V0Bw+b8mU/lGcDkVtfbuI7hsR+0Fl+2os1ESIECAAAECQxYQXPYPLLjs33AqLQgup6LW3z5/+MMfykorrVSuvfba/hoaZ++dd965HHXUUeOs9fUwBASXg1EVXA7GsS2tCC7bUWnBZTvqbJQECBAgQIDAkAUEl/0DCy77N5xKC4LLqaj1t4/gsj+/Ju4tuBxMVQSXg3FsSyuCy3ZUWnDZjjobJQECBAgQIDBkAcFl/8CCy/4Np9KC4HIqav3tI7jsz6+JewsuB1MVweVgHNvSiuCyHZUWXLajzkZJgAABAgQIDFlAcNk/sOCyf8OptCC4nIpaf/sILvvza+LegsvBVEVwORjHtrQiuGxHpQWX7aizURIgQIAAAQJDFhBc9g8suOzfcCotCC6notbfPoLL/vyauLfgcjBVEVwOxrEtrQgu21FpwWU76myUBAgQIECAwJAFBJf9Awsu+zecSguCy6mo9beP4LI/vybuLbgcTFUEl4NxbEsrgst2VFpw2Y46GyUBAgQIECAwZAHBZf/Agsv+DafSguByKmr97SO47M+viXsLLgdTFcHlYBzb0orgsh2VFly2o85GSYAAAQIECAxZoC3B5cKFC8t6661XvvOd70xq+frXv16yTGb7008/vTzjGc8o559//pCrpfmxAoLLsRr1/Cy4rMe5zl4El4PRFlwOxrEtrQgu21FpwWU76myUBAgQIECAwJAF2hJc/vSnPy2vfvWry/z58ye1bL311mWbbbaZ1LZpc8cddyyXXHLJUKt15513lquuuqokaFiwYEG1XHHFFeWf//znf/V77733ll/96lflnHPOqbY566yzyi9+8Yty9913l/vuu6/a9p577ilLly4tv/zlL6v9M2u088k2t9xyS/n1r39dbrvttvKPf/yjXHnlleXmm28ud911V1m2bFnVfvoZu19n/7r+nExw+e9//7v89a9/fXDcdR3bTOznjjvuKH/+858nPHTB5YQ85V//+le55pprym9+85vquplo65ybuaZybf3973+ftnN0MsFlrvPbb7+9Gt9EY2rzOsFlm6u/4mMXXK642UzcQ3A5E6vmmAkQIECAAIHGCbQluExA8L3vfW/SS4LI1772tZPePm3feuutQ6tvAsNLL720HHjggWWjjTaqlvXXX7+84x3vKD//+c+rUDLhQgLJhJvvf//7y8tf/vJquxe96EXlTW96U/nZz35WhQ//+c9/qsDki1/8YnnLW95Sfv/73/9XaJLw5cILLyyHHHJItU/CqqOOOqrqJ6FlZqKm/QSCTQ0uE6omdL366qvLt771rSpE6oS2QyvSDG44dUy4n/+YTvCW4DrB2kPru2TJkrLqqquWhOE5z3otixcvrgLwXtt11m+33Xblk5/85IyVTPh72GGHlSOOOKJce+21E44jvxDIdZZrOObxno7PRMFljimhav6NyMzyP/7xjyX/fvj8r4Dg8n9NfDO+gOByfJtRWiO4HKVqGgsBAgQIECAwbQJtCS5XFHi//farZluu6H7D2D7hUWZzvu9976uWzLBMCJcQ4QMf+EB529veVgVICesySzIzSw8//PAqDMnx/OUvfynHH3982XTTTct5551XBREJcicTXGamZoLMtJ3AIjPyTjnllPKe97ynajfHkSXrly9fXi35Ocf80NBr0DbdZlzmWHK8CVryH4YJbddee+2SmakJdX26C6RmxxxzTHnMYx5Tnv70p5ePfOQj5cYbb6zMYtqpZer/qle9qjz+8Y8vj3rUo3ouq622WnnKU57Sc7tOW5tsskn55je/2f0gB/BtxpHzOOPNeZJZyFnyc0K6/JzzOH/PuPPJPlnXOb9zHqWNfJ9l7PmfwPfQQw99MLjsrM8+2T/tp618/9DgMn2OvY6yz1j7AQy/axPdgsv0m+O86aabqlnbW221VVljjTXKaaedVv370bWhln8puGz5CbCCwxdcriDYDN1ccDlDC+ewCRAgQIAAgWYJCC6716NJwWUCjQsuuKAKCxPqdIKPhCd5dmeCksyCzMyoo48+ugozcwt49ssn2yWASMj50Y9+tPzud79boRmX2T59nHvuueW4446rwsCEGPvss08VZOaW8wSZz33uc8vzn//8qp/cVtoJfroL9/9tt+Ayt+hmttvmm29eVl999SpsyXH+7W9/q8Ki/nsdzRYSpP3kJz8pu+22W1lllVXKk5/85OqZsAcddFC57LLLqnMuI8+5lJnFf/rTn6rgPOH5REvOty222GLCbcbun5A9s4uH9UlY+KMf/aiaMZyZkTm2l7zkJeXDH/5wNTN3yy23LGuuuWb59Kc/XT0SIceR8X7lK18pT33qU6tlr732qh69kOsr12KujzwuIs+53WOPPcquu+76YHCZoDKzSXfeeeey7rrrljyCIsF/fvnw0OAy7cQ7/TzrWc8qe+65Z7nhhhsevI6HZdItuEy/J5xwQtl+++2r43nsYx9bXve611UzmId9XQ9rnMNuV3A5bOHRal9wOVr1HG80gsvxZHxPgAABAgQIEFgBAcFld6wmBZcJChJ+JBzMDMLMlEwwmE9u105wmJlwCScToCTEzM9jP5ntdfbZZ1dh40UXXVTNppvMjMvcXp4wMO1mtmZCrCOPPLLMmzevuo08M8w+9KEPVYFpXmSUUObggw8un/nMZ6ogdZghRye4zNgS1ObW9le+8pXVDMvMHFxppZXKBhtsUAVymcnmM7FAbnNO/RJcxm7llVcua621VhXsvf3tb68em5AgLiHnZD8JuhPWNeWTcD9h/6xZs6pzNNfExz72sSpwzIzmvGDrs5/9bNl3332r27gzMznBXkLEjCXPjc11+PGPf7yaxZuZvTnXM+s5t8/nGsiM1DyCIbfJ51mzuRX8C1/4QnX95Db4nKfZLtdu51bxPAYi12MeyZBHG+S4PvWpT1VtJnQf5qcTXOZaTXia0DYhZcLTBJY5FzIjNr80GfaxDHOcw25bcDls4dFqX3A5WvUcbzSCy/FkfE+AAAECBAgQWAEBwWV3rCYFlznChEoJERMazp07t2TWV55bmXAjz3HM7K88izKzvc4888zq+Y5jR5bgLuHnm9/85iqAyoyqFQ0uv//971czwDrPuEyok2Ams8xyC2lCjdxefPLJJ1fBTcLTzEgb1ifB5Qte8ILKZKeddqoCy0c/+tHlYQ97WPm///u/8vCHP7wKX2KW/0g89thjG7NkZmwCooReuUU7P6eWCbay7hOf+EQVjiVUS5iVMWT2Ym7hzozSzBBMYJxZg3HIklmxH/zgB6tgLLNr8xzShHHvfe97qzA5gdu73/3ukoAlM/vyvNQDDjigvPOd7yz7779/FbDF8RGPeETlF8OEl3HMLMCEWZl5uCJhdBODy4SCmRmckDLXVWYSxynhYl6AlespwWNCyuuuu666TmKUmaG5jhJQxvBrX/ta+eEPf1g55+fsm3M+wX3qkscspK88KzfXXkLfvIgnNU3N88uGTnB58cUXV/WOV2azZtv0nSXB/DA/CS5T3wS2+d+DZz/72dVzTBNY5hzIn3k0QIxyvuYYs+2oLIP6dyHPRU7A70NgMgKCy8kozfxtBJczv4ZGQIAAAQIECDRAQHDZvQhNCy5zlLlNt/NsygRTCZ6ynHjiiVXAkRen5Fbf8YLLhCa5bTovEhpEcJnbevNCl1e84hXVDMwEaQnQMltt9uzZ5be//W0V9HQX7v/b9JUZlQlOn/SkJ5VHPvKRD4aWCVwySywvMopV05YEz5mJl3BxvCVB0URLAsnO0tmu8/fOnwnRJloSZo5dcv5ktmr8siQEzpJbx1//+tdXAfVMDy4TWL7hDW94MPBPeJjAODOKO7d+J6jMdnk26uc///kqME6AmNmmmYGcmn3uc5+rXliT0DfBY355kMAxz5NNqJdb7zODdcMNN6yMEzpnvze+8Y3V+ZjZmp3gMjOGv/vd71bHkZA6wWYeD5Hb5lfEeypXVYLLJzzhCVWAnefBdmYrd86BBNdPe9rTqlnXTbuOmnQ8mXWbXwb5EJiMgOByMkozfxvB5cyvoREQIECAAAECDRAQXHYvQpOCy4QpmcnVCQI7t+omKMltrwlEElYmSMwMuq9+9avVrK2MLLPA8oy+PFMv2yRUzCyxzIzsd8ZlJ7jM28tf9rKXVc/xy+yyhF8JaBKkDvMW7QSXeWlIbq1961vfWt2SnIAtAWbn9tYXvvCF1Qy5vHk9M+CasiQsygzW3CKc2+8vv/zy6nb3BGUJmDPrr3OrcV64lLdO5y3VOQdyO29m4iX4yizbPCrg+uuvr8LovPU9S2YHZuZe5xECqVVC75wLedt6blPODNk8ciCzDvO8xWyfEPxxj3tc5ZfgKoHVS1/60mpGZmYg5nzqnH/dr5z//raJMy7jnvMljrm2JgouU5sEDLnGOsFl9svs1gSamWmc2ZnjBZeZfZxnW+6www7VzMtcHwnaE26mdp3gsvMm9wULFlS/XMg1lD5yvsZ8mJ+ciwksM/M0M0lzrHleZ2YvZ8ZtljzT9qSTTqr+7ci1NOwlnnUtg/w3If/m+RCYjIDgcjJKM38bweXMr6ERECBAgAABAg0QEFx2L0KTgssEJpn9lVuGE3Z0gqPMwMyLRjJbLLdvJ3zKfwxlhl2CheyX/5BO4PSDH/ygmp2X25HTRmfmZkKXBGBjZ3UlEE2gkmfxjX3G5UNvFU8YlmAnYceiRYuq/vIm5Dz3MkFaQsvOsXZX7u/bBJcJePLJMefZnQlm8xzQzpus119//SqgjYXPxAIJinbfffcqsEoAnGcc5tbXBN1TDc9menCZoPjLX/5yNUMyQW/nmstM5wR5Oe9zHma2Zs79hMC5FTy3+ufaySzKhKQJkxOSxjFhcq6dbNsJLhNW5/sEyukj4XJma6at/JJhmJ8El5kV2vlccskl1b8VeXFRnnGaXwQkzM5M0ATiPgQI9C8guOzfcCa0ILicCVVyjAQIECBAgEDjBQSX3UvUpOAyR5gZeXm2YZ6FmNmTCeISPiaIzK2qCUAS3mU2WGZ1ZbZWAojM3MtzD/PClW222aaawZXbT7Nvgpc88zLPqUygkjZzq2vWJ5CZKLjMrcgJWjKDL+FnZp9lFmBmBya0yXmVwCVhzbA+Y4PLsX1kFmNu9V1vvfWqZ/PlbecJgnwmFsgswFVXXbW67T7nVGqZ86Gfz0wPLhM4ZhZqnu+Z8D+h/OGHH17NKM4vDfKLgZz7eXlVzvdcc9tuu231/Nlce/l7brHPLw9yzSVcz3NG84zShICd4DK/mMiszlyT2S6zXxNc5tmZ6XOYn4cGl52+MsM3x5nHMSS4TIiZMNaHAIH+BQSX/RvOhBYElzOhSo6RAAECBAgQaLyA4LJ7iZoWXGb2Ym4dzuzGNddcs7p1My/UyNu9E34kYMrsxoSXmVGZW7U32WSTsvrqq5fMOkxAmecqbrfddtWt1ZlJllApL+LI7LrcCpolsxXzfL28QbhbcJkQJbez5kUUeV5mApY8ny8z8zJrK7P08gy/zMSsc8bl2Cqm38yOyzHkhTY51s5b2Mdu5+f/FkgolSA89YxfzqV+Z8zO9OAyvyTI7OH8wuCJT3xi9RKbvAArs48T9meWZW7vz+3fud06M1YzwzLjTvCXt5jn+sx1t84665TnPe951QzN/IKhsy7POk3ImTZz7eS6zrWUaz3Pok0dhvkZL7hMvznG/FuRZ3Zuv/321S9Qhnks2ibQFgHBZTsqLbhsR52NkgABAgQIEBiyQFuCy9wOnZmAmX04meXFL35x9Wy/yWybbdJ2njU4zE9mRGZWY2ZtdZbMiku4MPaTWY4JL3O7eLZLIJXxJ4DIzM08LzOzKjPjK7cHd9rKn9knQU1mfWU2WW5nzbbptxNmJbzMW5IzUzPBTY4rbedlJD/+8Y+r7/Ndv6HX2DF1+3m8GZedbRPmZowJfIc587PT30z/M48ayLmRmg6qdk0LLnMe5DxOcJjzOuPM3zOzMrdp5++d871z23aC8AT0nesk51OuizxeIdsnwMwLe3JLfdblWsls5LST277jmjA463Mt5t+JGI89lrSRcD3XVPrJtZR2hh3+55wdL7jsnM85ztzanrElyPUhQKB/AcFl/4YzoQXB5UyokmMkQIAAAQIEGi/QluAytz4njMxz2iazZHbi3nvvPalt095mm21WPW+y8QUfoQPsFVyO0FBn7FCaFlzOWMghHniv4HKIXWuaQGsFBJftKL3gsh11NkoCBAgQIEBgyAJtCS7POOOMMmvWrGqmYGYL9loy6ynPtOu1XdbnxRq5fTvPsfOpT0BwWZ91p6fMuMuLoI4++ujqZVF5YdREyy677FLyjNGJthm7Ls94zBu2feoTEFzWZ60nAh0BwWVHYrT/FFyOdn2NjgABAgQIEKhJoE3BZV4yMYxPbhfN8+sEl8PQHb9NweX4NsNak1uqN9poo7LDDjtUL4HKi6AmWvLvS57/ONE2Y9dl5nLCS5/6BASX9VnriUBHQHDZkRjtPwWXo11foyNAgAABAgRqEhBc9g8tuOzfcCotCC6notbfPnl26korrVS9eKa/lrrvvfPOO1ezM7uv9e0wBASXw1DVJoGJBQSXE/uMylrB5ahU0jgIECBAgACBaRUQXPbPL7js33AqLQgup6LW3z6Cy/78mri34LKJVXFMoy4guBz1Cj8wPsFlO+pslAQIECBAgMCQBQSX/QMLLvs3nEoLgsupqPW3j+CyP78m7i24bGJVHNOoCwguR73CD4xPcNmOOhslAQIECBAgMGQBwWX/wILL/g2n0oLgcipq/e0juOzPr4l7Cy6bWBXHNOoCgstRr/AD4xNctqPORkmAAAECBAgMWUBw2T+w4LJ/w6m0ILicilp/+wgu+/Nr4t6CyyZWxTGNuoDgctQr/MD4BJftqLNREiBAgAABAkMWEFz2Dyy47N9wKi0ILqei1t8+gsv+/Jq4t+CyiVVxTKMuILgc9Qo/MD7BZTvqbJQECBAgQIDAkAUEl/0DCy77N5xKC4LLqaj1t4/gsj+/Ju4tuGxiVRzTqAsILke9wg+MT3DZjjobJQECBAgQIDBkgbYEl2eeeWZZf/31yw033DCpZcmSJSXLZLa//vrry6xZs8q555475GppfqyA4HKsRj0/Cy7rca6zF8Flndr6IvCAgOCyHWeC4LIddTZKAgQIECBAYMgCbQkuzzvvvLLuuuuWXXbZZVLLlltuWbbaaqtJbZs2E1wuWrRoyNXS/FgBweVYjXp+FlzW41xnL4LLOrX1ReABAcFlO84EwWU76myUBAgQIECAwJAF2hJcLl26tJxwwgnl5JNPntSy7bbblu23335S26bNtL1s2bIhV0vzYwUEl2M16vlZcFmPc529CC7r1NYXgQcEBJftOBMEl+2os1ESIECAAAECQxZoS3B5zz33lJtvvnnSy7x588o+++wz6e3TdvrwqU9AcFmfdaenG2+8sWy88cZliy22KJmV3GvZYYcdyuzZs3tu12ln0003LV/60pc63fmzBgHBZQ3IuiDwEAHB5UNARvSvgssRLaxhESBAgAABAvUKtCW4XFHV/fbbr8yfP39Fd7N9jQKCyxqx/39Xd955Z1m4cGE56aSTyvHHH99zmTt3bhV0TmbbbHPaaaeV6667rv6BtbhHwWWLi2/o0yYguJw2+lo7FlzWyq0zAgQIECBAYFQFBJfdKyu47O7SpG8Fl02qRvdjOe6448rWW2/dfaVvGyEguGxEGRxEywQEl+0ouOCyHXU2SgIECBAgQGDIAoLL7sCCy+4uTfpWcNmkanQ/FsFld5cmfSu4bFI1HEtbBASX7ai04LIddTZKAgQIECBAYMgCgsvuwILL7i5N+lZw2aRqdD8WwWV3lyZ9K7hsUjUcS1sEBJftqLTgsh11NkoCBAgQIEBgyAKCy+7AgsvuLk36VnDZpGp0PxbBZXeXJn0ruGxSNRxLWwQEl+2otOCyHXU2SgIECBAgQGDIAoLL7sCCy+4uTfpWcNmkanQ/FsFld5cmfSu4bFI1HEtbBASX7ai04LIddTZKAgQIECBAYMgCgsvuwILL7i5N+lZw2aRqdD+WBJcbb7xxueCCCywNNTj00EPLhhtu2L2AviVAYCgCgsuhsDauUcFl40rigAgQIECAAIGZKCC47F41wWV3lyZ9K7hsUjW6H8sZZ5xRdtppp3LwwQdbGmqwzz77lD333LN7AX1LgMBQBASXQ2FtXKOCy8aVxAERIECAAAECM1FAcNm9avvvv3+ZPXt2SfBiaabBnDlzyrx587oX0LeNEFiyZElZsGBBOfXUUy0NNfjGN75RFi1a1IjzxUEQaIuA4LIdlRZctqPORkmAAAECBAgMWUBw2R34mGOOKbvuumtJgGlppsFuu+1WjjjiiO4F9C0BAgQIEGiogOCyoYUZ8GEJLgcMqjkCBAgQIECgnQKCy+51v+aaa8r5559vabjBVVdd1b2AviVAgAABAg0VEFw2tDADPizB5YBBNUeAAAECBAi0U0Bw2c66GzUBAgQIECAwPQKCy+lxr7tXwWXd4vojQIAAAQIERlJAcDmSZTUoAgQIECBAoKECgsuGFmbAhyW4HDCo5ggQIECAAIF2Cggu21l3oyZAgAABAgSmR0BwOT3udfcquKxbXH8ECBAgQIDASAoILkeyrAZFgAABAgQINFRAcNnQwgz4sASXAwbVHAECBAgQINBOAcFlO+tu1AQIECBAgMD0CAgup8e97l4Fl3WL648AAQIECBAYSQHB5UiW1aAIECBAgACBhgoILhtamAEfluBywKCaI0CAAAECBNopILhsZ92NmgABAgQIEJgeAcHl9LjX3avgsm5x/REgQIAAAQIjKSC4HMmyGhQBAgQIECDQUAHBZUMLM+DDElwOGFRzBAgQIECAQDsFBJftrLtREyBAgAABAtMjILicHve6exVc1i2uPwIECBAgQGAkBQSXI1lWgyJAgAABAgQaKiC4bGhhBnxYgssBg2qOAAECBAgQaKeA4LKddTdqAgQIECBAYHoEBJfT4153r4LLusX1R4AAAQIECIykgOByJMtqUAQIECBAgEBDBQSXDS3MgA9LcDlgUM0RIECAAAEC7RQQXLaz7kZNgAABAgQITI+A4HJ63OvuVXBZt7j+CBAgQIAAgZEUEFyOZFkNigABAgQIEGiogOCyoYUZ8GEJLgcMqjkCBAgQIECgnQKCy3bW3agJECBAgACB6REQXE6Pe929Ci7rFtcfAQIECBAgMJICgsuRLKtBESBAgAABAg0VEFw2tDADPizB5YBBNUeAAAECBAi0U0Bw2c66GzUBAgQIECAwPQKCy+lxr7tXwWXd4vojQIAAAQIERlJAcDmSZTUoAgQIECBAoKECgsuGFmbAhyW4HDCo5ggQIECAAIF2Cggu21l3oyZAgAABAgSmR0BwOT3udfcquKxbXH8ECBAgQIDASAoILkeyrAZFgAABAgQINFRAcNnQwgz4sASXAwbVHAECBAgQINBOAcFlO+tu1AQIECBAgMD0CAgup8e97l4Fl3WL648AAQIECBAYSQHB5UiW1aAIECBAgACBhgoILhtamAEfluBywKCaI0CAAAECBNopILhsZ92NmgABAgQIEJgeAcHl9LjX3avgsm5x/REgQIAAAQIjKSC4HMmyGhQBAgQIECDQUIEVCS6vvPLKMmfOnHLKKac0dDQOazwBweV4Mr4nQIAAAQIECKyAgOByBbBsSoAAAQIECBDoU2AyweW9995bFi9eXObOnVsOOOCAcvHFF/fZq93rFhBc1i2uPwIECBAgQGAkBQSXI1lWgyJAgAABAgQaKtAruLzrrrvK5ZdfXvbee+8ye/bssmDBgnLbbbc1dDQOazwBweV4Mr4nQIAAAQIECKyAgOByBbBsSoAAAQIECBDoU2Ci4DKh5aWXXloOPPDAstlmm5Wzzjqr3H777X32aPfpEBBcToe6PgkQIECAAIGRExBcjlxJDYgAAQIECBBosMB4weU999xTLrvssvKud72rbLzxxmXRokXlzjvvbPBIHNpEAoLLiXSsI0CAAAECBAhMUkBwOUkomxEgQIAAAQIEBiDQLbi87777ytVXX1323Xffsskmm5QLL7yw5DufmSsguJy5tXPkBAgQIECAQIMEBJcNKoZDIUCAAAECBEZeoFtwmbeH50U8r3nNa8rZZ59dli9fC+XsPgAAB9NJREFUXu6///6RtxjlAQouR7m6xkaAAAECBAjUJiC4rI1aRwQIECBAgACB8tDgMqHlnDlzyu67715OP/30cscdd1AaAQHB5QgU0RAIECBAgACB6RcQXE5/DRwBAQIECBAg0B6BTnB57733lsWLF1czLefNm+ft4SN2CgguR6yghkOAAAECBAhMj4Dgcnrc9UqAAAECBAi0UyDB5eabb14uv/zysvfee5fZs2eXb3/72+W2225rJ8iIjlpwOaKFNSwCBAgQIECgXgHBZb3eeiNAgAABAgTaLZDgctasWeWggw4qm222WVm4cGG5/fbb240ygqMXXI5gUQ2JAAECBAgQqF9gjz32KPPnzy/XXHONhYFzwDngHHAOOAecA86BIZ8DhxxySFlllVWqt4cvWrSo3HXXXfX/H0A9Dl1AcDl0Yh0QIECAAAECbRA44ogjyjrrrFNWXnllCwPngHPAOeAccA44B5wDQz4HVltttbLjjjuWiy66yJvDR/j/bAsuR7i4hkaAAAECBAjUJ5Bbk5YtW1aWLFliYeAccA44B5wDzgHngHNgyOfA0qVLy0033VSWL18uuKzv//LW3pPgsnZyHRIgQIAAAQIECBAgQIAAAQIECBAg0EtAcNlLyHoCBAgQIECAAAECBAgQIECAAAECBGoXEFzWTq5DAgQIECBAgAABAgQIECBAgAABAgR6CQguewlZT4AAAQIECBAgQIAAAQIECBAgQIBA7QKCy9rJdUiAAAECBAgQIECAAAECBAgQIECAQC8BwWUvIesJECBAgAABAgQIECBAgAABAgQIEKhdQHBZO7kOCRAgQIAAAQIECBAgQIAAAQIECBDoJSC47CVkPQECBAgQIECAAAECBAgQIECAAAECtQsILmsn1yEBAgQIECBAgAABAgQIECBAgAABAr0EBJe9hKwnQIAAAQIECBAgQIAAAQIECBAgQKB2AcFl7eQ6JECAAAECBAgQIECAAAECBAgQIECgl4DgspeQ9QQIECBAgAABAgQIECBAgAABAgQI1C4guKydXIcECBAgQIAAAQIECBAgQIAAAQIECPQSEFz2ErKeAAECBAgQIECAAAECBAgQIECAAIHaBQSXtZPrkAABAgQIECBAgAABAgQIECBAgACBXgKCy15C1hMgQIAAAQIECBAgQIAAAQIECBAgULuA4LJ2ch0SIECAAAECBAgQIECAAAECBAgQINBLQHDZS8h6AgQIECBAgAABAgQIECBAgAABAgRqFxBc1k6uQwIECBAgQIAAAQIECBAgQIAAAQIEegkILnsJWU+AAAECBAgQIECAAAECBAgQIECAQO0CgsvayXVIgAABAgQIECBAgAABAgQIECBAgEAvAcFlLyHrCRAgQIAAAQIECBAgQIAAAQIECBCoXUBwWTu5DgkQIECAAAECBAgQIECAAAECBAgQ6CUguOwlZD0BAgQIECBAgAABAgQIECBAgAABArULCC5rJ9chAQIECBAgQIAAAQIECBAgQIAAAQK9BASXvYSsJ0CAAAECBAgQIECAAAECBAgQIECgdgHBZe3kOiRAgAABAgQIECBAgAABAgQIECBAoJeA4LKXkPUECBAgQIAAAQIECBAgQIAAAQIECNQuILisnVyHBAgQIECAAAECBAgQIECAAAECBAj0EhBc9hKyngABAgQIECBAgAABAgQIECBAgACB2gUEl7WT65AAAQIECBAgQIAAAQIECBAgQIAAgV4CgsteQtYTIECAAAECBAgQIECAAAECBAgQIFC7gOCydnIdEiBAgAABAgQIECBAgAABAgQIECDQS0Bw2UvIegIECBAgQIAAAQIECBAgQIAAAQIEahcQXNZOrkMCBAgQIECAAAECBAgQIECAAAECBHoJCC57CVlPgAABAgQIECBAgAABAgQIECBAgEDtAoLL2sl1SIAAAQIECBAgQIAAAQIECBAgQIBALwHBZS8h6wkQIECAAAECBAgQIECAAAECBAgQqF1AcFk7uQ4JECBAgAABAgQIECBAgAABAgQIEOglILjsJWQ9AQIECBAgQIAAAQIECBAgQIAAAQK1CwguayfXIQECBAgQIECAAAECBAgQIECAAAECvQQEl72ErCdAgAABAgQIECBAgAABAgQIECBAoHYBwWXt5DokQIAAAQIECBAgQIAAAQIECBAgQKCXgOCyl5D1BAgQIECAAAECBAgQIECAAAECBAjULiC4rJ1chwQIECBAgAABAgQIECBAgAABAgQI9BIQXPYSsp4AAQIECBAgQIAAAQIECBAgQIAAgdoFBJe1k+uQAAECBAgQIECAAAECBAgQIECAAIFeAoLLXkLWEyBAgAABAgQIECBAgAABAgQIECBQu4DgsnZyHRIgQIAAAQIECBAgQIAAAQIECBAg0EtAcNlLyHoCBAgQIECAAAECBAgQIECAAAECBGoXEFzWTq5DAgQIECBAgAABAgQIECBAgAABAgR6CQguewlZT4AAAQIECBAgQIAAAQIECBAgQIBA7QKCy9rJdUiAAAECBAgQIECAAAECBAgQIECAQC8BwWUvIesJECBAgAABAgQIECBAgAABAgQIEKhdQHBZO7kOCRAgQIAAAQIECBAgQIAAAQIECBDoJSC47CVkPQECBAgQIECAAAECBAgQIECAAAECtQv8P55nnEYxIzOhAAAAAElFTkSuQmCC;" vertex="1" parent="1">
          <mxGeometry x="2279" y="446" width="661" height="331.49" as="geometry" />
        </mxCell>
        <mxCell id="CY7CNvu7F5HaNLHxp8Ah-42" value="Користувач" style="shape=umlActor;verticalLabelPosition=bottom;verticalAlign=top;html=1;outlineConnect=0;" vertex="1" parent="1">
          <mxGeometry x="2295" y="960" width="30" height="60" as="geometry" />
        </mxCell>
        <mxCell id="CY7CNvu7F5HaNLHxp8Ah-43" value="Смартфон користувача" style="verticalAlign=top;align=left;spacingTop=8;spacingLeft=2;spacingRight=12;shape=cube;size=10;direction=south;fontStyle=4;html=1;" vertex="1" parent="1">
          <mxGeometry x="2484" y="937" width="180" height="120" as="geometry" />
        </mxCell>
        <mxCell id="CY7CNvu7F5HaNLHxp8Ah-44" value="Інтерфейс&#xa; додатку" style="shape=module;align=left;spacingLeft=20;align=center;verticalAlign=top;" vertex="1" parent="1">
          <mxGeometry x="2518" y="988.5" width="100" height="50" as="geometry" />
        </mxCell>
        <mxCell id="CY7CNvu7F5HaNLHxp8Ah-45" value="" style="endArrow=classic;startArrow=classic;html=1;" edge="1" parent="1">
          <mxGeometry width="50" height="50" relative="1" as="geometry">
            <mxPoint x="2344" y="1000" as="sourcePoint" />
            <mxPoint x="2474" y="1000" as="targetPoint" />
          </mxGeometry>
        </mxCell>
        <mxCell id="CY7CNvu7F5HaNLHxp8Ah-46" value="Взаємодія через екран" style="text;html=1;align=center;verticalAlign=middle;resizable=0;points=[];autosize=1;strokeColor=none;" vertex="1" parent="1">
          <mxGeometry x="2344" y="972" width="138" height="18" as="geometry" />
        </mxCell>
        <mxCell id="CY7CNvu7F5HaNLHxp8Ah-47" value="Логіка додатку" style="verticalAlign=top;align=left;spacingTop=8;spacingLeft=2;spacingRight=12;shape=cube;size=10;direction=south;fontStyle=4;html=1;" vertex="1" parent="1">
          <mxGeometry x="2195" y="1112" width="583" height="417" as="geometry" />
        </mxCell>
        <mxCell id="CY7CNvu7F5HaNLHxp8Ah-48" value="Models" style="shape=module;align=left;spacingLeft=20;align=center;verticalAlign=top;" vertex="1" parent="1">
          <mxGeometry x="2573" y="1182" width="100" height="50" as="geometry" />
        </mxCell>
        <mxCell id="CY7CNvu7F5HaNLHxp8Ah-49" value="ViewModels" style="shape=module;align=left;spacingLeft=20;align=center;verticalAlign=top;" vertex="1" parent="1">
          <mxGeometry x="2409" y="1182" width="100" height="50" as="geometry" />
        </mxCell>
        <mxCell id="CY7CNvu7F5HaNLHxp8Ah-50" value="View" style="shape=module;align=left;spacingLeft=20;align=center;verticalAlign=top;" vertex="1" parent="1">
          <mxGeometry x="2239" y="1183" width="100" height="50" as="geometry" />
        </mxCell>
        <mxCell id="CY7CNvu7F5HaNLHxp8Ah-51" value="Services" style="shape=module;align=left;spacingLeft=20;align=center;verticalAlign=top;" vertex="1" parent="1">
          <mxGeometry x="2412" y="1270" width="100" height="50" as="geometry" />
        </mxCell>
        <mxCell id="CY7CNvu7F5HaNLHxp8Ah-53" value="SQLite" style="shape=module;align=left;spacingLeft=20;align=center;verticalAlign=top;" vertex="1" parent="1">
          <mxGeometry x="2573" y="1415" width="100" height="50" as="geometry" />
        </mxCell>
        <mxCell id="CY7CNvu7F5HaNLHxp8Ah-54" value="Data" style="shape=module;align=left;spacingLeft=20;align=center;verticalAlign=top;" vertex="1" parent="1">
          <mxGeometry x="2573" y="1267" width="100" height="50" as="geometry" />
        </mxCell>
        <mxCell id="CY7CNvu7F5HaNLHxp8Ah-55" value="UI Resources" style="shape=module;align=left;spacingLeft=20;align=center;verticalAlign=top;" vertex="1" parent="1">
          <mxGeometry x="2239" y="1271" width="100" height="50" as="geometry" />
        </mxCell>
        <mxCell id="CY7CNvu7F5HaNLHxp8Ah-58" value="" style="endArrow=classic;startArrow=classic;html=1;exitX=1;exitY=0.5;exitDx=0;exitDy=0;" edge="1" parent="1" source="CY7CNvu7F5HaNLHxp8Ah-44">
          <mxGeometry width="50" height="50" relative="1" as="geometry">
            <mxPoint x="2885" y="827" as="sourcePoint" />
            <mxPoint x="2239" y="1208" as="targetPoint" />
            <Array as="points">
              <mxPoint x="2731" y="1014" />
              <mxPoint x="2731" y="1089" />
              <mxPoint x="2180" y="1089" />
              <mxPoint x="2180" y="1208" />
            </Array>
          </mxGeometry>
        </mxCell>
        <mxCell id="CY7CNvu7F5HaNLHxp8Ah-63" value="" style="endArrow=classic;startArrow=classic;html=1;" edge="1" parent="1">
          <mxGeometry width="50" height="50" relative="1" as="geometry">
            <mxPoint x="2339" y="1207.71" as="sourcePoint" />
            <mxPoint x="2408" y="1208" as="targetPoint" />
          </mxGeometry>
        </mxCell>
        <mxCell id="CY7CNvu7F5HaNLHxp8Ah-64" value="" style="endArrow=classic;startArrow=classic;html=1;" edge="1" parent="1">
          <mxGeometry width="50" height="50" relative="1" as="geometry">
            <mxPoint x="2509" y="1206.7100000000003" as="sourcePoint" />
            <mxPoint x="2571" y="1207" as="targetPoint" />
          </mxGeometry>
        </mxCell>
        <mxCell id="CY7CNvu7F5HaNLHxp8Ah-65" value="" style="endArrow=classic;startArrow=classic;html=1;" edge="1" parent="1">
          <mxGeometry width="50" height="50" relative="1" as="geometry">
            <mxPoint x="2461.71" y="1235.0000000000002" as="sourcePoint" />
            <mxPoint x="2461.71" y="1267" as="targetPoint" />
          </mxGeometry>
        </mxCell>
        <mxCell id="CY7CNvu7F5HaNLHxp8Ah-66" value="" style="endArrow=classic;startArrow=classic;html=1;" edge="1" parent="1">
          <mxGeometry width="50" height="50" relative="1" as="geometry">
            <mxPoint x="2295" y="1235.0000000000002" as="sourcePoint" />
            <mxPoint x="2295" y="1267" as="targetPoint" />
          </mxGeometry>
        </mxCell>
        <mxCell id="CY7CNvu7F5HaNLHxp8Ah-68" value="" style="endArrow=classic;startArrow=classic;html=1;entryX=-0.03;entryY=0.34;entryDx=0;entryDy=0;entryPerimeter=0;" edge="1" parent="1" target="CY7CNvu7F5HaNLHxp8Ah-52">
          <mxGeometry width="50" height="50" relative="1" as="geometry">
            <mxPoint x="2466" y="1320.0000000000002" as="sourcePoint" />
            <mxPoint x="2564" y="1354" as="targetPoint" />
            <Array as="points">
              <mxPoint x="2466" y="1354" />
            </Array>
          </mxGeometry>
        </mxCell>
        <mxCell id="CY7CNvu7F5HaNLHxp8Ah-70" value="" style="endArrow=classic;startArrow=classic;html=1;" edge="1" parent="1">
          <mxGeometry width="50" height="50" relative="1" as="geometry">
            <mxPoint x="2512" y="1292.0000000000002" as="sourcePoint" />
            <mxPoint x="2572" y="1292" as="targetPoint" />
          </mxGeometry>
        </mxCell>
        <mxCell id="CY7CNvu7F5HaNLHxp8Ah-52" value="Repositories" style="shape=module;align=left;spacingLeft=20;align=center;verticalAlign=top;" vertex="1" parent="1">
          <mxGeometry x="2573" y="1337" width="100" height="50" as="geometry" />
        </mxCell>
        <mxCell id="CY7CNvu7F5HaNLHxp8Ah-74" value="" style="endArrow=classic;startArrow=classic;html=1;" edge="1" parent="1">
          <mxGeometry width="50" height="50" relative="1" as="geometry">
            <mxPoint x="2570" y="1440" as="sourcePoint" />
            <mxPoint x="2570" y="1371" as="targetPoint" />
            <Array as="points">
              <mxPoint x="2465" y="1440" />
              <mxPoint x="2465" y="1371" />
            </Array>
          </mxGeometry>
        </mxCell>
        <mxCell id="CY7CNvu7F5HaNLHxp8Ah-75" value="" style="endArrow=classic;startArrow=classic;html=1;entryX=1;entryY=0.5;entryDx=0;entryDy=0;" edge="1" parent="1" target="CY7CNvu7F5HaNLHxp8Ah-52">
          <mxGeometry width="50" height="50" relative="1" as="geometry">
            <mxPoint x="2673" y="1206.7100000000003" as="sourcePoint" />
            <mxPoint x="2733" y="1206.71" as="targetPoint" />
            <Array as="points">
              <mxPoint x="2720" y="1207" />
              <mxPoint x="2720" y="1362" />
            </Array>
          </mxGeometry>
        </mxCell>
      </root>
    </mxGraphModel>
  </diagram>
</mxfile>
